SplineFontDB: 2.0
FontName: Waree
FullName: Waree
FamilyName: Waree
Weight: Book
Copyright: Copyright (c) 2003 by Bitstream, Inc. All Rights Reserved.\n\nTLWG changes are in public domain.
Version: 0.11.1: 2007-12-07
ItalicAngle: 0
UnderlinePosition: -170
UnderlineWidth: 20
Ascent: 1638
Descent: 410
NeedsXUIDChange: 1
FSType: 0
OS2Version: 0
OS2_WeightWidthSlopeOnly: 0
OS2_UseTypoMetrics: 0
CreationTime: 1153662374
ModificationTime: 1198737186
PfmFamily: 33
TTFWeight: 400
TTFWidth: 5
LineGap: 0
VLineGap: 0
Panose: 2 11 5 4 2 2 2 2 2 4
OS2TypoAscent: 0
OS2TypoAOffset: 1
OS2TypoDescent: 0
OS2TypoDOffset: 1
OS2TypoLinegap: 0
OS2WinAscent: 0
OS2WinAOffset: 1
OS2WinDescent: 0
OS2WinDOffset: 1
HheadAscent: 0
HheadAOffset: 1
HheadDescent: 0
HheadDOffset: 1
OS2SubXSize: -12660
OS2SubYSize: -12824
OS2SubXOff: 24034
OS2SubYOff: -18656
OS2SupXSize: -12836
OS2SupYSize: -12856
OS2SupXOff: -28420
OS2SupYOff: -18656
OS2StrikeYSize: -12928
OS2StrikeYPos: -12660
OS2Vendor: 'PfEd'
Lookup: 4 0 1 "'liga' Standard Ligatures in Latin lookup 0"  {"'liga' Standard Ligatures in Latin lookup 0"  } ['liga' ('latn' <'dflt' > ) ]
Lookup: 4 0 0 "'frac' Diagonal Fractions in Latin lookup 42"  {"'frac' Diagonal Fractions in Latin lookup 42"  } ['frac' ('latn' <'dflt' > ) ]
Lookup: 6 0 0 "'ccmp' Thai General Composition"  {"'ccmp' Thai Below Vowel Tone Reordering"  "'ccmp' Thai General Composition"  } ['ccmp' ('thai' <'KUY ' 'PAL ' 'THA ' 'dflt' > ) ]
Lookup: 6 0 0 "'ccmp' Thai Conditional Descender Removal"  {"'ccmp' Thai Conditional Descender Removal"  } ['ccmp' ('thai' <'KUY ' 'PAL ' 'THA ' 'dflt' > ) ]
Lookup: 5 0 0 "Required Thai Descender Removal"  {"Required Thai Descender Removal"  } [' RQD' ('thai' <'PAL ' > ) ]
Lookup: 1 0 0 "Thai Descender Removal Single Substitution"  {"Thai Descender Removal Single Substitution" ("descless" ) } []
Lookup: 2 0 0 "Thai Sara Am Decomposition"  {"Thai Sara Am Decomposition"  } []

StartChar: .notdef
Encoding: 395 -1 0
Width: 1229
Flags: W
HStem: -362 114<217 1012> 1329 115<217 1012>
VStem: 102 115<-248 1329> 1012 114<-248 1329>
Fore
102 -362 m 1
 102 1444 l 1
 1126 1444 l 1
 1126 -362 l 1
 102 -362 l 1
217 -248 m 1
 1012 -248 l 1
 1012 1329 l 1
 217 1329 l 1
 217 -248 l 1
EndSplineSet
EndChar
StartChar: uni0E4D.high
Encoding: 392 63262 2
Width: 0
VWidth: 2561
Flags: W
HStem: 1881 102<-442.774 -301.001> 2139 103<-443.326 -301.024>
VStem: -552 100<1993.1 2130.86> -292 100<1992.78 2130.26>
AnchorPoint: "AboveMark" -364 1848 mark 0
Fore
-552 2060 m 0
 -552 2160 -473 2242 -370 2242 c 24
 -267 2242 -192 2157 -192 2060 c 0
 -192 1959 -272 1881 -370 1881 c 0
 -472 1881 -552 1961 -552 2060 c 0
-452 2060 m 0
 -452 2020 -416 1983 -372 1983 c 0
 -330 1983 -292 2021 -292 2060 c 0
 -292 2108 -329 2139 -372 2139 c 0
 -420 2139 -452 2103 -452 2060 c 0
EndSplineSet
EndChar
StartChar: exclam
Encoding: 3 33 5
Width: 821
Flags: W
HStem: 0 254<309 512> 1473 20G<309 512>
VStem: 309 203<0 254 733.552 1493>
Fore
309 254 m 1
 512 254 l 1
 512 0 l 1
 309 0 l 1
 309 254 l 1
309 1493 m 1
 512 1493 l 1
 512 838 l 1
 492 481 l 1
 330 481 l 1
 309 838 l 1
 309 1493 l 1
EndSplineSet
EndChar
StartChar: quotedbl
Encoding: 4 34 6
Width: 942
Flags: W
HStem: 1473 20G<197 367 575 745>
VStem: 197 170<938 1493> 575 170<938 1493>
Fore
367 1493 m 1
 367 938 l 1
 197 938 l 1
 197 1493 l 1
 367 1493 l 1
745 1493 m 1
 745 938 l 1
 575 938 l 1
 575 1493 l 1
 745 1493 l 1
EndSplineSet
EndChar
StartChar: numbersign
Encoding: 5 35 7
Width: 1716
Flags: W
HStem: 0 21G<369 534.976 823 988.024> 414 153<158 473 672 926 1126 1444> 901 154<272 594 793 1047 1247 1559>
Fore
1047 901 m 1
 756 901 l 1
 672 567 l 1
 965 567 l 1
 1047 901 l 1
897 1470 m 1
 793 1055 l 1
 1085 1055 l 1
 1190 1470 l 1
 1350 1470 l 1
 1247 1055 l 1
 1559 1055 l 1
 1559 901 l 1
 1208 901 l 1
 1126 567 l 1
 1444 567 l 1
 1444 414 l 1
 1087 414 l 1
 983 0 l 1
 823 0 l 1
 926 414 l 1
 633 414 l 1
 530 0 l 1
 369 0 l 1
 473 414 l 1
 158 414 l 1
 158 567 l 1
 510 567 l 1
 594 901 l 1
 272 901 l 1
 272 1055 l 1
 633 1055 l 1
 735 1470 l 1
 897 1470 l 1
EndSplineSet
EndChar
StartChar: dollar
Encoding: 6 36 8
Width: 1303
Flags: W
HStem: 0 142<345.329 592> 1179 145<692 926.341> 1536 20G<592 692>
VStem: 170 184<853.313 1095.91> 592 100<-301 0 145 578 770 1179 1324 1556> 948 185<237.543 484.71>
Fore
1133 381 m 0
 1133 154 976 22 692 2 c 1
 692 -301 l 1
 592 -301 l 1
 592 0 l 1
 465 2 326 26 170 92 c 1
 170 272 l 1
 351 158 502 143 592 142 c 1
 592 598 l 1
 321 642 170 741 170 956 c 0
 170 1175 320 1302 592 1321 c 1
 592 1556 l 1
 692 1556 l 1
 692 1324 l 1
 822 1318 936 1296 1042 1262 c 1
 1042 1087 l 1
 916 1151 798 1174 692 1179 c 1
 692 752 l 1
 973 709 1133 604 1133 381 c 0
592 1180 m 1
 461 1165 354 1107 354 973 c 0
 354 851 438 796 592 770 c 1
 592 1180 l 1
692 145 m 1
 847 166 948 232 948 362 c 0
 948 492 850 549 692 578 c 1
 692 145 l 1
EndSplineSet
EndChar
StartChar: percent
Encoding: 7 37 9
Width: 1946
Flags: W
HStem: -29 127<1379.75 1597.26> 657 127<1379.35 1595.4> 707 127<347.576 566.827> 1393 127<349.7 564.128>
VStem: 113 159<919.473 1306.86> 643 160<919.065 1307.72> 1143 160<182.576 571.715> 1673 160<183.237 571.12>
Fore
1673 377 m 0xdf
 1673 527 1619 657 1489 657 c 0
 1356 657 1303 529 1303 377 c 0
 1303 227 1357 98 1489 98 c 0
 1619 98 1673 227 1673 377 c 0xdf
1143 377 m 0
 1143 618 1267 784 1489 784 c 0
 1709 784 1833 617 1833 377 c 256
 1833 137 1709 -29 1489 -29 c 0
 1268 -29 1143 134 1143 377 c 0
643 1114 m 0
 643 1274 581 1393 457 1393 c 256
 332 1393 272 1273 272 1114 c 0
 272 963 324 834 457 834 c 256xbf
 590 834 643 962 643 1114 c 0
1360 1520 m 1
 1520 1520 l 1
 586 -29 l 1
 426 -29 l 1
 1360 1520 l 1
113 1114 m 0
 113 1353 237 1520 457 1520 c 256
 676 1520 803 1356 803 1114 c 0
 803 872 680 707 457 707 c 256
 235 707 113 873 113 1114 c 0
EndSplineSet
EndChar
StartChar: ampersand
Encoding: 8 38 10
Width: 1597
Flags: W
HStem: -29 162<505.641 901.248> 1362 158<572.97 858.82>
VStem: 129 193<307.135 643.049> 299 190<1039.13 1284.29> 1278 186<567.172 801>
Fore
322 473 m 0xe8
 322 277 479 133 694 133 c 0
 828 133 937 180 1028 260 c 1
 498 803 l 1
 393 710 322 605 322 473 c 0xe8
725 1362 m 0
 585 1362 489 1282 489 1163 c 0xd8
 489 1079 548 1009 639 915 c 2
 1147 395 l 1
 1238 532 1271 673 1278 801 c 1
 1464 801 l 1
 1445 593 1355 420 1255 285 c 1
 1534 0 l 1
 1282 0 l 1
 1139 147 l 1
 1011 37 861 -29 676 -29 c 0
 356 -29 129 168 129 461 c 0xe8
 129 642 230 790 397 913 c 1
 355 968 299 1058 299 1161 c 0xd8
 299 1376 456 1520 705 1520 c 0
 834 1520 946 1487 1038 1448 c 1
 1038 1266 l 1
 889 1346 788 1362 725 1362 c 0
EndSplineSet
EndChar
StartChar: quotesingle
Encoding: 9 39 11
Width: 563
Flags: W
HStem: 1473 20G<197 367>
VStem: 197 170<938 1493>
Fore
367 1493 m 1
 367 938 l 1
 197 938 l 1
 197 1493 l 1
 367 1493 l 1
EndSplineSet
EndChar
StartChar: parenleft
Encoding: 10 40 12
Width: 799
Flags: W
VStem: 176 195<301.077 985.189>
Fore
176 643 m 0
 176 1014 331 1328 475 1554 c 1
 635 1554 l 1
 493 1310 371 1007 371 643 c 256
 371 275 496 -31 635 -270 c 1
 475 -270 l 1
 326 -36 176 278 176 643 c 0
EndSplineSet
EndChar
StartChar: parenright
Encoding: 11 41 13
Width: 799
Flags: W
VStem: 428 195<300.084 982.874>
Fore
428 643 m 256
 428 1007 305 1311 164 1554 c 1
 324 1554 l 1
 473 1320 623 1007 623 643 c 0
 623 278 473 -36 324 -270 c 1
 164 -270 l 1
 301 -34 428 272 428 643 c 256
EndSplineSet
EndChar
StartChar: asterisk
Encoding: 12 42 14
Width: 1024
Flags: W
HStem: 1500 20G<455 569>
VStem: 455 114<586 963 1143 1520>
Fore
963 1247 m 1
 604 1053 l 1
 963 858 l 1
 905 760 l 1
 569 963 l 1
 569 586 l 1
 455 586 l 1
 455 963 l 1
 119 760 l 1
 61 858 l 1
 420 1053 l 1
 61 1247 l 1
 119 1346 l 1
 455 1143 l 1
 455 1520 l 1
 569 1520 l 1
 569 1143 l 1
 905 1346 l 1
 963 1247 l 1
EndSplineSet
EndChar
StartChar: plus
Encoding: 13 43 15
Width: 1716
Flags: W
HStem: 0 21G<774 942> 557 170<217 774 942 1499>
VStem: 774 168<0 557 727 1284>
Fore
942 1284 m 1
 942 727 l 1
 1499 727 l 1
 1499 557 l 1
 942 557 l 1
 942 0 l 1
 774 0 l 1
 774 557 l 1
 217 557 l 1
 217 727 l 1
 774 727 l 1
 774 1284 l 1
 942 1284 l 1
EndSplineSet
EndChar
StartChar: comma
Encoding: 14 44 16
Width: 651
Flags: W
VStem: 240 211<82 254>
Fore
240 254 m 1
 451 254 l 1
 451 82 l 1
 287 -238 l 1
 158 -238 l 1
 240 82 l 1
 240 254 l 1
EndSplineSet
EndChar
StartChar: hyphen
Encoding: 15 45 17
Width: 739
Flags: W
HStem: 479 164<100 639>
Fore
100 643 m 1
 639 643 l 1
 639 479 l 1
 100 479 l 1
 100 643 l 1
EndSplineSet
EndChar
StartChar: period
Encoding: 16 46 18
Width: 651
Flags: W
HStem: 0 254<219 430>
VStem: 219 211<0 254>
Fore
219 254 m 1
 430 254 l 1
 430 0 l 1
 219 0 l 1
 219 254 l 1
EndSplineSet
EndChar
StartChar: slash
Encoding: 17 47 19
Width: 690
Flags: W
HStem: 1473 20G<513.821 690>
VStem: 0 690<-190 1493>
Fore
520 1493 m 1
 690 1493 l 1
 170 -190 l 1
 0 -190 l 1
 520 1493 l 1
EndSplineSet
EndChar
StartChar: zero
Encoding: 18 48 20
Width: 1303
Flags: W
HStem: -29 160<515.531 788.599> 1360 160<508.85 786.73>
VStem: 135 203<375.562 1111.56> 965 202<377.707 1115.17>
Fore
965 745 m 0
 965 1065 902 1360 651 1360 c 0
 401 1360 338 1063 338 745 c 0
 338 427 401 131 651 131 c 0
 839 131 965 297 965 745 c 0
135 745 m 0
 135 1413 445 1520 651 1520 c 256
 1035 1520 1167 1172 1167 745 c 0
 1167 320 1036 -29 651 -29 c 256
 267 -29 135 318 135 745 c 0
EndSplineSet
EndChar
StartChar: one
Encoding: 19 49 21
Width: 1303
Flags: W
HStem: 0 170<254 584 784 1114> 1473 20G<482.833 784>
VStem: 584 200<170 1309>
Fore
254 170 m 1
 584 170 l 1
 584 1309 l 1
 225 1237 l 1
 225 1421 l 1
 582 1493 l 1
 784 1493 l 1
 784 170 l 1
 1114 170 l 1
 1114 0 l 1
 254 0 l 1
 254 170 l 1
EndSplineSet
EndChar
StartChar: two
Encoding: 20 50 22
Width: 1303
Flags: W
HStem: 0 170<393 1098> 1217 21G<160 263> 1350 170<355.135 761.357>
VStem: 887 203<924.791 1227.55>
Fore
582 1520 m 0
 879 1520 1090 1366 1090 1094 c 0
 1090 877 949 742 771 558 c 2
 393 170 l 1
 1098 170 l 1
 1098 0 l 1
 150 0 l 1
 150 170 l 1
 464 490 l 2
 754 783 887 916 887 1081 c 0
 887 1242 764 1350 586 1350 c 0
 501 1350 366 1332 160 1217 c 1
 160 1421 l 1
 255 1459 425 1520 582 1520 c 0
EndSplineSet
EndChar
StartChar: three
Encoding: 21 51 23
Width: 1303
Flags: W
HStem: -29 170<276.279 782.89> 715 166<414 795.204> 1350 170<395.921 792.415>
VStem: 903 201<976.818 1247.9> 938 201<273.088 588.125>
Fore
1104 1133 m 0xf0
 1104 951 989 845 831 805 c 1
 1013 766 1139 638 1139 434 c 0
 1139 116 901 -29 555 -29 c 0
 407 -29 269 5 156 45 c 1
 156 240 l 1
 291 162 436 141 549 141 c 0
 776 141 938 224 938 434 c 0xe8
 938 622 794 715 588 715 c 2
 414 715 l 1
 414 881 l 1
 596 881 l 2
 775 881 903 947 903 1112 c 0
 903 1280 771 1350 588 1350 c 0
 433 1350 275 1301 201 1276 c 1
 201 1456 l 1
 397 1511 525 1520 606 1520 c 0
 891 1520 1104 1390 1104 1133 c 0xf0
EndSplineSet
EndChar
StartChar: four
Encoding: 22 52 24
Width: 1303
Flags: W
HStem: 0 21G<774 975> 352 168<264 774 975 1188> 1473 20G<707.871 975>
VStem: 774 201<0 352 520 1317>
Fore
774 1317 m 1
 264 520 l 1
 774 520 l 1
 774 1317 l 1
721 1493 m 1
 975 1493 l 1
 975 520 l 1
 1188 520 l 1
 1188 352 l 1
 975 352 l 1
 975 0 l 1
 774 0 l 1
 774 352 l 1
 100 352 l 1
 100 547 l 1
 721 1493 l 1
EndSplineSet
EndChar
StartChar: five
Encoding: 23 53 25
Width: 1303
Flags: W
HStem: -29 170<276.807 749.602> 817 170<454.824 746.284> 1323 170<406 1014>
VStem: 221 185<957 1323> 922 202<307.343 653.711>
Fore
547 817 m 0
 420 817 312 784 221 743 c 1
 221 1493 l 1
 1014 1493 l 1
 1014 1323 l 1
 406 1323 l 1
 406 957 l 1
 459 975 516 987 582 987 c 0
 915 987 1124 795 1124 479 c 0
 1124 146 904 -29 551 -29 c 0
 406 -29 271 0 158 35 c 1
 158 238 l 1
 294 164 425 141 547 141 c 0
 774 141 922 266 922 479 c 256
 922 692 774 817 547 817 c 0
EndSplineSet
EndChar
StartChar: six
Encoding: 24 54 26
Width: 1303
Flags: W
HStem: -29 160<521.17 833.929> 827 160<516.239 833.943> 1350 170<582.45 932.252>
VStem: 143 238<376.01 899.414> 971 203<278.641 679.771>
Fore
971 479 m 0
 971 686 867 827 676 827 c 256
 486 827 381 687 381 479 c 0
 381 273 486 131 676 131 c 256
 866 131 971 272 971 479 c 0
762 1520 m 0
 857 1520 958 1503 1077 1460 c 1
 1077 1276 l 1
 995 1315 888 1350 770 1350 c 0
 467 1350 361 1116 344 807 c 1
 413 909 528 987 688 987 c 0
 989 987 1174 794 1174 479 c 0
 1174 166 975 -29 676 -29 c 0
 284 -29 143 311 143 745 c 0
 143 1190 359 1520 762 1520 c 0
EndSplineSet
EndChar
StartChar: seven
Encoding: 25 55 27
Width: 1303
Flags: W
HStem: 0 21G<375 593.704> 1323 170<168 885>
Fore
168 1493 m 1
 1128 1493 l 1
 1128 1407 l 1
 586 0 l 1
 375 0 l 1
 885 1323 l 1
 168 1323 l 1
 168 1493 l 1
EndSplineSet
EndChar
StartChar: eight
Encoding: 26 56 28
Width: 1303
Flags: W
HStem: -29 160<471.418 830.74> 709 159<475.451 827.286> 1360 160<476.764 822.629>
VStem: 139 203<254.9 583.829> 174 201<964.113 1262.59> 928 200<967.039 1262.56> 961 202<255.121 584.271>
Fore
961 420 m 0xf2
 961 603 843 709 651 709 c 0
 460 709 342 602 342 420 c 256
 342 238 460 131 651 131 c 256
 842 131 961 239 961 420 c 0xf2
139 420 m 0
 139 625 269 753 449 795 c 1
 288 835 174 950 174 1133 c 0
 174 1387 371 1520 651 1520 c 0
 931 1520 1128 1388 1128 1133 c 0xec
 1128 949 1013 835 854 795 c 1
 1034 753 1163 626 1163 420 c 0
 1163 119 968 -29 651 -29 c 256
 334 -29 139 119 139 420 c 0
651 1360 m 0
 481 1360 375 1274 375 1114 c 256
 375 954 481 868 651 868 c 0
 820 868 928 954 928 1114 c 256
 928 1273 820 1360 651 1360 c 0
EndSplineSet
EndChar
StartChar: nine
Encoding: 27 57 29
Width: 1303
Flags: W
HStem: -29 170<370.308 720.228> 506 158<468.773 786.408> 1360 160<469.071 781.803>
VStem: 129 203<811.368 1212.36> 922 237<582.183 1114.61>
Fore
541 -29 m 0
 446 -29 345 -12 225 31 c 1
 225 215 l 1
 307 176 415 141 532 141 c 0
 836 141 941 374 958 684 c 1
 890 582 774 506 614 506 c 0
 314 506 129 697 129 1012 c 0
 129 1325 328 1520 627 1520 c 0
 1019 1520 1159 1179 1159 745 c 0
 1159 301 944 -29 541 -29 c 0
332 1012 m 0
 332 805 436 664 627 664 c 256
 817 664 922 804 922 1012 c 0
 922 1218 817 1360 627 1360 c 256
 437 1360 332 1219 332 1012 c 0
EndSplineSet
EndChar
StartChar: colon
Encoding: 28 58 30
Width: 690
Flags: W
HStem: 0 254<240 451> 805 254<240 451>
VStem: 240 211<0 254 805 1059>
Fore
240 254 m 1
 451 254 l 1
 451 0 l 1
 240 0 l 1
 240 254 l 1
240 1059 m 1
 451 1059 l 1
 451 805 l 1
 240 805 l 1
 240 1059 l 1
EndSplineSet
EndChar
StartChar: semicolon
Encoding: 29 59 31
Width: 690
Flags: W
HStem: 805 254<240 451>
VStem: 240 211<82 254 805 1059>
Fore
240 1059 m 1
 451 1059 l 1
 451 805 l 1
 240 805 l 1
 240 1059 l 1
240 254 m 1
 451 254 l 1
 451 82 l 1
 287 -238 l 1
 158 -238 l 1
 240 82 l 1
 240 254 l 1
EndSplineSet
EndChar
StartChar: less
Encoding: 30 60 32
Width: 1716
Flags: W
Fore
1499 1008 m 1
 467 641 l 1
 1499 276 l 1
 1499 94 l 1
 217 559 l 1
 217 725 l 1
 1499 1190 l 1
 1499 1008 l 1
EndSplineSet
EndChar
StartChar: equal
Encoding: 31 61 33
Width: 1716
Flags: W
HStem: 352 170<217 1499> 762 168<217 1499>
Fore
217 930 m 1
 1499 930 l 1
 1499 762 l 1
 217 762 l 1
 217 930 l 1
217 522 m 1
 1499 522 l 1
 1499 352 l 1
 217 352 l 1
 217 522 l 1
EndSplineSet
EndChar
StartChar: greater
Encoding: 32 62 34
Width: 1716
Flags: W
Fore
217 1008 m 1
 217 1190 l 1
 1499 725 l 1
 1499 559 l 1
 217 94 l 1
 217 276 l 1
 1247 641 l 1
 217 1008 l 1
EndSplineSet
EndChar
StartChar: question
Encoding: 33 63 35
Width: 1087
Flags: W
HStem: 0 254<391 594> 1219 21G<147 231> 1356 164<314.328 658.206>
VStem: 391 203<0 254 401 714.63> 741 203<1033.5 1279.14>
Fore
391 254 m 1
 594 254 l 1
 594 0 l 1
 391 0 l 1
 391 254 l 1
537 1520 m 0
 786 1520 944 1379 944 1167 c 0
 944 1047 878 960 782 868 c 2
 694 782 l 2
 598 686 588 666 588 524 c 2
 588 401 l 1
 397 401 l 1
 397 555 l 2
 397 700 434 767 543 872 c 2
 633 961 l 2
 692 1016 741 1079 741 1157 c 0
 741 1276 647 1356 502 1356 c 0
 431 1356 315 1335 147 1219 c 1
 147 1407 l 1
 250 1469 376 1520 537 1520 c 0
EndSplineSet
EndChar
StartChar: at
Encoding: 34 64 36
Width: 2048
Flags: W
HStem: -356 143<779.21 1292.05> 88 143<875.061 1180.85> 842 145<875.24 1179.14> 1298 144<788.191 1311.93>
VStem: 135 141<282.767 788.024> 602 160<354.203 719.458> 1307 143<231 238 836 967> 1761 144<431.238 884.953>
Fore
1026 842 m 0
 858 842 762 719 762 537 c 0
 762 352 856 231 1028 231 c 0
 1199 231 1292 354 1292 537 c 0
 1292 719 1195 842 1026 842 c 0
1053 1442 m 0
 1551 1442 1905 1070 1905 657 c 0
 1905 299 1676 92 1307 84 c 1
 1307 238 l 1
 1239 150 1143 88 989 88 c 0
 757 88 602 270 602 537 c 256
 602 803 757 987 989 987 c 0
 1141 987 1238 925 1307 836 c 1
 1307 967 l 1
 1450 967 l 1
 1450 231 l 1
 1646 261 1761 417 1761 653 c 0
 1761 1040 1429 1298 1055 1298 c 0
 580 1298 276 939 276 543 c 0
 276 127 591 -213 1038 -213 c 0
 1234 -213 1403 -136 1520 -45 c 1
 1610 -156 l 1
 1465 -268 1267 -356 1038 -356 c 0
 554 -356 135 4 135 543 c 0
 135 1082 569 1442 1053 1442 c 0
EndSplineSet
EndChar
StartChar: A
Encoding: 35 65 37
Width: 1401
Flags: W
HStem: 0 21G<16 236.102 1166.9 1384> 383 168<426 975> 1473 20G<578.364 822.622>
Fore
700 1294 m 1
 426 551 l 1
 975 551 l 1
 700 1294 l 1
586 1493 m 1
 815 1493 l 1
 1384 0 l 1
 1174 0 l 1
 1038 383 l 1
 365 383 l 1
 229 0 l 1
 16 0 l 1
 586 1493 l 1
EndSplineSet
EndChar
StartChar: B
Encoding: 36 66 38
Width: 1405
Flags: W
HStem: 0 166<403 925.699> 713 164<403 901.419> 1327 166<403 899.698>
VStem: 201 202<166 713 877 1327> 995 203<961.894 1243.81> 1047 213<272.701 609.255>
Fore
1047 440 m 0xf4
 1047 604 969 713 727 713 c 2
 403 713 l 1
 403 166 l 1
 727 166 l 2
 930 166 1047 244 1047 440 c 0xf4
995 1102 m 0xf8
 995 1282 857 1327 702 1327 c 2
 403 1327 l 1
 403 877 l 1
 702 877 l 2
 920 877 995 967 995 1102 c 0xf8
1260 418 m 0xf4
 1260 131 1048 0 737 0 c 2
 201 0 l 1
 201 1493 l 1
 717 1493 l 2
 998 1493 1198 1382 1198 1124 c 0xf8
 1198 869 1031 819 946 805 c 1
 1134 765 1260 632 1260 418 c 0xf4
EndSplineSet
EndChar
StartChar: C
Encoding: 37 67 39
Width: 1430
Flags: W
HStem: -29 166<624.22 1095.24> 1354 166<624.043 1095.61>
VStem: 115 213<461.056 1029.54>
Fore
844 1520 m 0
 999 1520 1163 1485 1319 1378 c 1
 1319 1165 l 1
 1193 1283 1041 1354 856 1354 c 0
 499 1354 328 1123 328 745 c 0
 328 369 499 137 856 137 c 0
 1041 137 1193 208 1319 326 c 1
 1319 115 l 1
 1162 9 998 -29 844 -29 c 0
 388 -29 115 266 115 745 c 0
 115 1224 387 1520 844 1520 c 0
EndSplineSet
EndChar
StartChar: D
Encoding: 38 68 40
Width: 1577
Flags: W
HStem: 0 166<403 938.011> 1327 166<403 938.011>
VStem: 201 202<166 1327> 1243 213<475.422 1019.75>
Fore
1243 748 m 0
 1243 1154 1051 1327 647 1327 c 2
 403 1327 l 1
 403 166 l 1
 647 166 l 2
 1051 166 1243 340 1243 748 c 0
1456 748 m 0
 1456 211 1163 0 616 0 c 2
 201 0 l 1
 201 1493 l 1
 616 1493 l 2
 1163 1493 1456 1285 1456 748 c 0
EndSplineSet
EndChar
StartChar: E
Encoding: 39 69 41
Width: 1294
Flags: W
HStem: 0 170<403 1163> 711 170<403 1114> 1323 170<403 1145>
VStem: 201 202<170 711 881 1323>
Fore
201 1493 m 1
 1145 1493 l 1
 1145 1323 l 1
 403 1323 l 1
 403 881 l 1
 1114 881 l 1
 1114 711 l 1
 403 711 l 1
 403 170 l 1
 1163 170 l 1
 1163 0 l 1
 201 0 l 1
 201 1493 l 1
EndSplineSet
EndChar
StartChar: F
Encoding: 40 70 42
Width: 1178
Flags: W
HStem: 0 21G<201 403> 713 170<403 995> 1323 170<403 1059>
VStem: 201 202<0 713 883 1323>
Fore
201 1493 m 1
 1059 1493 l 1
 1059 1323 l 1
 403 1323 l 1
 403 883 l 1
 995 883 l 1
 995 713 l 1
 403 713 l 1
 403 0 l 1
 201 0 l 1
 201 1493 l 1
EndSplineSet
EndChar
StartChar: G
Encoding: 41 71 43
Width: 1587
Flags: W
HStem: -29 166<634.771 1153.09> 614 166<889 1219> 1354 166<633.547 1129.53>
VStem: 115 213<453.781 1033.96> 1219 200<213 614>
Fore
877 137 m 0
 1020 137 1129 161 1219 213 c 1
 1219 614 l 1
 889 614 l 1
 889 780 l 1
 1419 780 l 1
 1419 139 l 1
 1275 37 1089 -29 860 -29 c 0
 391 -29 115 257 115 745 c 0
 115 1233 390 1520 860 1520 c 0
 1016 1520 1206 1488 1380 1378 c 1
 1380 1163 l 1
 1244 1278 1078 1354 877 1354 c 0
 499 1354 328 1135 328 745 c 0
 328 433 438 137 877 137 c 0
EndSplineSet
EndChar
StartChar: H
Encoding: 42 72 44
Width: 1540
Flags: W
HStem: 0 21G<201 403 1137 1339> 711 170<403 1137> 1473 20G<201 403 1137 1339>
VStem: 201 202<0 711 881 1493> 1137 202<0 711 881 1493>
Fore
201 1493 m 1
 403 1493 l 1
 403 881 l 1
 1137 881 l 1
 1137 1493 l 1
 1339 1493 l 1
 1339 0 l 1
 1137 0 l 1
 1137 711 l 1
 403 711 l 1
 403 0 l 1
 201 0 l 1
 201 1493 l 1
EndSplineSet
EndChar
StartChar: I
Encoding: 43 73 45
Width: 604
Flags: W
HStem: 0 21G<201 403> 1473 20G<201 403>
VStem: 201 202<0 1493>
Fore
201 1493 m 1
 403 1493 l 1
 403 0 l 1
 201 0 l 1
 201 1493 l 1
EndSplineSet
EndChar
StartChar: J
Encoding: 44 74 46
Width: 604
Flags: W
HStem: -410 170<-106 107.467> 1473 20G<201 403>
VStem: 201 202<-139.382 1493>
Fore
-43 -240 m 2
 152 -240 201 -125 201 104 c 2
 201 1493 l 1
 403 1493 l 1
 403 104 l 2
 403 -227 295 -410 -29 -410 c 2
 -106 -410 l 1
 -106 -240 l 1
 -43 -240 l 2
EndSplineSet
EndChar
StartChar: K
Encoding: 45 75 47
Width: 1343
Flags: W
HStem: 0 21G<201 403 1100.06 1386> 1473 20G<201 403 1051.76 1333>
VStem: 201 202<0 719 862 1493>
Fore
201 1493 m 1
 403 1493 l 1
 403 862 l 1
 1073 1493 l 1
 1333 1493 l 1
 592 797 l 1
 1386 0 l 1
 1120 0 l 1
 403 719 l 1
 403 0 l 1
 201 0 l 1
 201 1493 l 1
EndSplineSet
EndChar
StartChar: L
Encoding: 46 76 48
Width: 1141
Flags: W
HStem: 0 170<403 1130> 1473 20G<201 403>
VStem: 201 202<170 1493>
Fore
201 1493 m 1
 403 1493 l 1
 403 170 l 1
 1130 170 l 1
 1130 0 l 1
 201 0 l 1
 201 1493 l 1
EndSplineSet
EndChar
StartChar: M
Encoding: 47 77 49
Width: 1767
Flags: W
HStem: 0 21G<201 397 1370 1567> 1473 20G<201 509.5 1258.46 1567>
VStem: 201 196<0 1311> 1370 197<0 1311>
Fore
201 1493 m 1
 502 1493 l 1
 883 477 l 1
 1266 1493 l 1
 1567 1493 l 1
 1567 0 l 1
 1370 0 l 1
 1370 1311 l 1
 985 287 l 1
 782 287 l 1
 397 1311 l 1
 397 0 l 1
 201 0 l 1
 201 1493 l 1
EndSplineSet
EndChar
StartChar: N
Encoding: 48 78 50
Width: 1532
Flags: W
HStem: 0 21G<201 397 1048.4 1331> 1473 20G<201 483.6 1135 1331>
VStem: 201 196<0 1249> 1135 196<244 1493>
Fore
201 1493 m 1
 473 1493 l 1
 1135 244 l 1
 1135 1493 l 1
 1331 1493 l 1
 1331 0 l 1
 1059 0 l 1
 397 1249 l 1
 397 0 l 1
 201 0 l 1
 201 1493 l 1
EndSplineSet
EndChar
StartChar: O
Encoding: 49 79 51
Width: 1612
Flags: W
HStem: -29 164<613.755 1008.2> 1356 164<613.794 999.874>
VStem: 115 213<462.683 1027.72> 1284 213<462.463 1027.5>
Fore
1284 745 m 0
 1284 1096 1124 1356 807 1356 c 256
 491 1356 328 1097 328 745 c 0
 328 395 490 135 807 135 c 256
 1123 135 1284 394 1284 745 c 0
115 745 m 256
 115 1209 375 1520 807 1520 c 0
 1237 1520 1497 1209 1497 745 c 0
 1497 280 1236 -29 807 -29 c 0
 376 -29 115 280 115 745 c 256
EndSplineSet
EndChar
StartChar: P
Encoding: 50 80 52
Width: 1235
Flags: W
HStem: 0 21G<201 403> 600 166<403 838.684> 1327 166<403 837.953>
VStem: 201 202<0 600 766 1327> 952 213<881.476 1214.22>
Fore
952 1047 m 0
 952 1228 844 1327 657 1327 c 2
 403 1327 l 1
 403 766 l 1
 657 766 l 2
 845 766 952 865 952 1047 c 0
1165 1047 m 0
 1165 779 1021 600 657 600 c 2
 403 600 l 1
 403 0 l 1
 201 0 l 1
 201 1493 l 1
 657 1493 l 2
 1056 1493 1165 1276 1165 1047 c 0
EndSplineSet
EndChar
StartChar: Q
Encoding: 51 81 53
Width: 1612
Flags: W
HStem: -29 164<613.755 909.504> 1356 164<613.794 999.874>
VStem: 115 213<462.883 1027.72> 1284 213<461.306 1027.5>
Fore
1284 745 m 0
 1284 1096 1124 1356 807 1356 c 256
 491 1356 328 1097 328 745 c 0
 328 395 490 135 807 135 c 256
 1123 135 1284 394 1284 745 c 0
1497 745 m 0
 1497 370 1333 135 1090 27 c 1
 1356 -264 l 1
 1112 -264 l 1
 891 -25 l 1
 823.844 -28.9503 832 -29 807 -29 c 0
 376 -29 115 281 115 745 c 0
 115 1209 375 1520 807 1520 c 0
 1237 1520 1497 1209 1497 745 c 0
EndSplineSet
EndChar
StartChar: R
Encoding: 52 82 54
Width: 1423
Flags: W
HStem: 0 21G<201 403 1137.03 1364> 631 166<403 801.126> 1327 166<403 843.848>
VStem: 201 202<0 631 797 1327> 952 213<900.336 1226.07>
Fore
1165 1063 m 0
 1165 865 1067 746 909 700 c 1
 972 679 1057 616 1159 408 c 2
 1364 0 l 1
 1147 0 l 1
 956 383 l 2
 867 564 795 631 623 631 c 2
 403 631 l 1
 403 0 l 1
 201 0 l 1
 201 1493 l 1
 657 1493 l 2
 977 1493 1165 1369 1165 1063 c 0
952 1063 m 256
 952 1244 844 1327 657 1327 c 2
 403 1327 l 1
 403 797 l 1
 657 797 l 2
 844 797 952 882 952 1063 c 256
EndSplineSet
EndChar
StartChar: S
Encoding: 53 83 55
Width: 1300
Flags: W
HStem: -29 164<351.735 836.256> 1356 164<460.356 935.286>
VStem: 135 203<978.867 1249.3> 975 211<253.665 538.769>
Fore
659 1520 m 0
 821 1520 972 1485 1096 1444 c 1
 1096 1247 l 1
 995 1295 844 1356 682 1356 c 0
 488 1356 338 1286 338 1110 c 0
 338 971 416 918 623 879 c 2
 745 854 l 2
 1016 802 1186 677 1186 412 c 0
 1186 96 953 -29 614 -29 c 0
 425 -29 242 29 141 66 c 1
 141 274 l 1
 260 207 425 135 614 135 c 0
 819 135 975 210 975 397 c 0
 975 556 872 625 686 662 c 2
 563 686 l 2
 287 741 135 849 135 1094 c 0
 135 1375 351 1520 659 1520 c 0
EndSplineSet
EndChar
StartChar: T
Encoding: 54 84 56
Width: 1251
Flags: W
HStem: 0 21G<524 727> 1323 170<-6 524 727 1257>
VStem: 524 203<0 1323>
Fore
-6 1493 m 1
 1257 1493 l 1
 1257 1323 l 1
 727 1323 l 1
 727 0 l 1
 524 0 l 1
 524 1323 l 1
 -6 1323 l 1
 -6 1493 l 1
EndSplineSet
EndChar
StartChar: U
Encoding: 55 85 57
Width: 1499
Flags: W
HStem: -29 164<543.078 947.787> 1473 20G<178 381 1118 1321>
VStem: 178 203<319.87 1493> 1118 203<319.87 1493>
Fore
750 -29 m 0
 369 -29 178 175 178 561 c 2
 178 1493 l 1
 381 1493 l 1
 381 586 l 2
 381 240 515 135 750 135 c 0
 1031 135 1118 297 1118 586 c 2
 1118 1493 l 1
 1321 1493 l 1
 1321 561 l 2
 1321 175 1130 -29 750 -29 c 0
EndSplineSet
EndChar
StartChar: V
Encoding: 56 86 58
Width: 1401
Flags: W
HStem: 0 21G<578.364 822.622> 1473 20G<16 234.526 1166.46 1384>
Fore
586 0 m 1
 16 1493 l 1
 227 1493 l 1
 700 236 l 1
 1174 1493 l 1
 1384 1493 l 1
 815 0 l 1
 586 0 l 1
EndSplineSet
EndChar
StartChar: W
Encoding: 57 87 59
Width: 2025
Flags: W
HStem: 0 21G<436.99 700.907 1324.14 1588.02> 1473 20G<68 276.976 894.04 1130.98 1748.04 1958>
Fore
68 1493 m 1
 272 1493 l 1
 586 231 l 1
 899 1493 l 1
 1126 1493 l 1
 1440 231 l 1
 1753 1493 l 1
 1958 1493 l 1
 1583 0 l 1
 1329 0 l 1
 1014 1296 l 1
 696 0 l 1
 442 0 l 1
 68 1493 l 1
EndSplineSet
EndChar
StartChar: X
Encoding: 58 88 60
Width: 1403
Flags: W
HStem: 0 21G<61 292.323 1108.77 1339> 1473 20G<129 359.369 1076.56 1307>
Fore
129 1493 m 1
 346 1493 l 1
 717 938 l 1
 1090 1493 l 1
 1307 1493 l 1
 827 776 l 1
 1339 0 l 1
 1122 0 l 1
 702 635 l 1
 279 0 l 1
 61 0 l 1
 594 797 l 1
 129 1493 l 1
EndSplineSet
EndChar
StartChar: Y
Encoding: 59 89 61
Width: 1251
Flags: W
HStem: 0 21G<524 727> 1473 20G<-4 226.485 1024.61 1255>
VStem: 524 203<0 711>
Fore
-4 1493 m 1
 213 1493 l 1
 627 879 l 1
 1038 1493 l 1
 1255 1493 l 1
 727 711 l 1
 727 0 l 1
 524 0 l 1
 524 711 l 1
 -4 1493 l 1
EndSplineSet
EndChar
StartChar: Z
Encoding: 60 90 62
Width: 1403
Flags: W
HStem: 0 170<344 1311> 1323 170<115 1036>
Fore
115 1493 m 1
 1288 1493 l 1
 1288 1339 l 1
 344 170 l 1
 1311 170 l 1
 1311 0 l 1
 92 0 l 1
 92 154 l 1
 1036 1323 l 1
 115 1323 l 1
 115 1493 l 1
EndSplineSet
EndChar
StartChar: bracketleft
Encoding: 61 91 63
Width: 799
Flags: W
HStem: -270 143<360 600> 1413 143<360 600>
VStem: 176 184<-127 1413>
Fore
176 1556 m 1
 600 1556 l 1
 600 1413 l 1
 360 1413 l 1
 360 -127 l 1
 600 -127 l 1
 600 -270 l 1
 176 -270 l 1
 176 1556 l 1
EndSplineSet
EndChar
StartChar: backslash
Encoding: 62 92 64
Width: 690
Flags: W
HStem: 1473 20G<0 176.179>
VStem: 0 690<-190 1493>
Fore
170 1493 m 1
 690 -190 l 1
 520 -190 l 1
 0 1493 l 1
 170 1493 l 1
EndSplineSet
EndChar
StartChar: bracketright
Encoding: 63 93 65
Width: 799
Flags: W
HStem: -270 143<199 438> 1413 143<199 438>
VStem: 438 185<-127 1413>
Fore
623 1556 m 1
 623 -270 l 1
 199 -270 l 1
 199 -127 l 1
 438 -127 l 1
 438 1413 l 1
 199 1413 l 1
 199 1556 l 1
 623 1556 l 1
EndSplineSet
EndChar
StartChar: asciicircum
Encoding: 64 94 66
Width: 1716
Flags: W
HStem: 936 557<956 1499>
Fore
956 1493 m 1
 1499 936 l 1
 1298 936 l 1
 858 1331 l 1
 418 936 l 1
 217 936 l 1
 760 1493 l 1
 956 1493 l 1
EndSplineSet
EndChar
StartChar: underscore
Encoding: 65 95 67
Width: 1024
Flags: W
HStem: -483 143<-20 1044>
Fore
1044 -340 m 1
 1044 -483 l 1
 -20 -483 l 1
 -20 -340 l 1
 1044 -340 l 1
EndSplineSet
EndChar
StartChar: grave
Encoding: 66 96 68
Width: 1024
Flags: W
HStem: 1264 374<367 649>
VStem: 170 479<1264 1638>
Fore
367 1638 m 1
 649 1264 l 1
 496 1264 l 1
 170 1638 l 1
 367 1638 l 1
EndSplineSet
EndChar
StartChar: a
Encoding: 67 97 69
Width: 1255
Flags: W
HStem: -29 154<387.644 715.377> 563 144<406.955 885> 991 156<312.42 762.347>
VStem: 123 184<203.977 474.59> 885 184<0 170 313.396 563 707 876.02>
Back
205 899 m 9
 205 1069 l 17
 308.333 1120.33 435.333 1146.33 586 1147 c 0
 746.687 1148.41 867.854 1106.25 949.5 1020.5 c 128
 1029.17 936.833 1069 809.667 1069 639 c 2
 1069 0 l 1
 885 0 l 1
 885 170 l 1
 843 102 790.667 51.8333 728 19.5 c 128
 665.333 -12.8333 588.667 -29 498 -29 c 0
 383.333 -29 292.167 3.16667 224.5 67.5 c 128
 156.833 131.833 123 218 123 326 c 0
 123 452 165.167 547 249.5 611 c 128
 333.833 675 459.667 707 627 707 c 2
 885 707 l 1
 885 725 l 2
 885 809.667 857.167 875.167 801.5 921.5 c 128
 746.491 967.285 668.325 990.452 567 991 c 8
 450.333 991.667 329.667 961 205 899 c 9
702 563 m 2
 553.333 563 450.333 546 393 512 c 128
 335.667 478 307 420 307 338 c 0
 307 272.667 328.5 220.833 371.5 182.5 c 128
 414.5 144.167 473 125 547 125 c 0
 649 125 730.833 161.167 792.5 233.5 c 128
 854.167 305.833 885 402 885 522 c 2
 885 563 l 1
 702 563 l 2
EndSplineSet
Fore
547 125 m 0
 750 125 885 278 885 522 c 2
 885 563 l 1
 702 563 l 2
 441 563 307 518 307 338 c 0
 307 204 401 125 547 125 c 0
586 1147 m 0
 972 1147 1069 908 1069 639 c 2
 1069 0 l 1
 885 0 l 1
 885 170 l 1
 806 42 689 -29 498 -29 c 0
 266 -29 123 110 123 326 c 0
 123 631 370 707 627 707 c 2
 885 707 l 1
 885 725 l 2
 885 903 759 991 567 991 c 0
 458 991 332 968 205 899 c 1
 205 1069 l 1
 294 1103 434 1147 586 1147 c 0
EndSplineSet
EndChar
StartChar: b
Encoding: 68 98 70
Width: 1300
Flags: W
HStem: -29 154<528.263 838.929> 993 154<528.481 839.147> 1536 20G<186 371>
VStem: 186 185<0 168 315.332 803.107 950 1556> 997 191<316.548 801.232>
Fore
684 125 m 256
 900 125 997 316 997 559 c 256
 997 801 901 993 684 993 c 256
 468 993 371 802 371 559 c 256
 371 317 467 125 684 125 c 256
729 -29 m 0
 553 -29 442 45 371 168 c 1
 371 0 l 1
 186 0 l 1
 186 1556 l 1
 371 1556 l 1
 371 950 l 1
 442 1073 553 1147 729 1147 c 0
 1004 1147 1188 912 1188 559 c 256
 1188 206 1004 -29 729 -29 c 0
EndSplineSet
EndChar
StartChar: c
Encoding: 69 99 71
Width: 1126
Flags: W
HStem: -29 156<497.517 838.565> 991 156<494.277 910.524>
VStem: 113 194<330.77 788.672>
Fore
676 1147 m 0
 805 1147 911 1118 999 1077 c 1
 999 905 l 1
 916 951 810 991 684 991 c 0
 436 991 307 823 307 559 c 256
 307 295 436 127 684 127 c 0
 810 127 916 167 999 213 c 1
 999 43 l 1
 878 -14 765 -29 664 -29 c 0
 323 -29 113 199 113 559 c 0
 113 926 325 1147 676 1147 c 0
EndSplineSet
EndChar
StartChar: d
Encoding: 70 100 72
Width: 1300
Flags: W
HStem: -29 154<460.88 771.865> 993 154<461.098 773.775> 1536 20G<930 1114>
VStem: 113 190<316.979 801.241> 930 184<0 168 314.893 808.381 950 1556>
Fore
571 1147 m 0
 748 1147 859 1073 930 950 c 1
 930 1556 l 1
 1114 1556 l 1
 1114 0 l 1
 930 0 l 1
 930 168 l 1
 858 45 748 -29 571 -29 c 0
 296 -29 113 207 113 559 c 256
 113 911 296 1147 571 1147 c 0
616 993 m 256
 400 993 303 802 303 559 c 256
 303 317 399 125 616 125 c 256
 832 125 930 316 930 559 c 256
 930 814 824 993 616 993 c 256
EndSplineSet
EndChar
StartChar: e
Encoding: 71 101 73
Width: 1260
Flags: W
HStem: -29 156<500.386 969.104> 516 144<311 967> 991 156<480.956 824.214>
VStem: 967 184<660 840.604>
Fore
662 1147 m 0
 970 1147 1151 935 1151 606 c 2
 1151 516 l 1
 305 516 l 1
 321 269 453 127 705 127 c 0
 867 127 1000 174 1108 231 c 1
 1108 57 l 1
 1003 12 860 -29 694 -29 c 0
 330 -29 113 198 113 549 c 0
 113 913 320 1147 662 1147 c 0
967 660 m 1
 964 863 846 991 664 991 c 0
 452 991 329 865 311 660 c 1
 967 660 l 1
EndSplineSet
EndChar
StartChar: f
Encoding: 72 102 74
Width: 721
Flags: W
HStem: 0 21G<223 408> 977 143<47 223 408 711> 1403 153<449.252 760>
VStem: 223 185<0 977 1120 1366.51>
Fore
223 1198 m 2
 223 1445 333 1556 586 1556 c 2
 760 1556 l 1
 760 1403 l 1
 584 1403 l 2
 454 1403 408 1357 408 1219 c 2
 408 1120 l 1
 711 1120 l 1
 711 977 l 1
 408 977 l 1
 408 0 l 1
 223 0 l 1
 223 977 l 1
 47 977 l 1
 47 1120 l 1
 223 1120 l 1
 223 1198 l 2
EndSplineSet
EndChar
StartChar: g
Encoding: 73 103 75
Width: 1300
Flags: W
HStem: -426 152<339.172 767.776> 0 154<457.384 772.217> 993 154<457.384 773.059>
VStem: 113 190<335.385 811.282> 930 184<-104.109 197 334.078 811.799 950 1120>
Fore
616 154 m 0
 833 154 930 331 930 573 c 0
 930 814 835 993 616 993 c 0
 399 993 303 814 303 573 c 0
 303 333 399 154 616 154 c 0
571 1147 m 0
 749 1147 860 1072 930 950 c 1
 930 1120 l 1
 1114 1120 l 1
 1114 139 l 2
 1114 -228 959 -426 598 -426 c 0
 458 -426 346 -403 248 -367 c 1
 248 -188 l 1
 333 -234 441 -274 569 -274 c 0
 815 -274 930 -144 930 106 c 2
 930 197 l 1
 860 75 747 0 571 0 c 0
 296 0 113 223 113 573 c 0
 113 924 296 1147 571 1147 c 0
EndSplineSet
EndChar
StartChar: h
Encoding: 74 104 76
Width: 1298
Flags: W
HStem: 0 21G<186 371 940 1124> 987 160<541.412 841.113> 1536 20G<186 371>
VStem: 186 185<0 832.869 946 1556> 940 184<0 874.314>
Fore
733 1147 m 0
 884 1147 1124 1093 1124 676 c 2
 1124 0 l 1
 940 0 l 1
 940 670 l 2
 940 902 841 987 692 987 c 0
 489 987 371 849 371 633 c 2
 371 0 l 1
 186 0 l 1
 186 1556 l 1
 371 1556 l 1
 371 946 l 1
 445 1059 554 1147 733 1147 c 0
EndSplineSet
EndChar
StartChar: i
Encoding: 75 105 77
Width: 569
Flags: W
HStem: 0 21G<193 377> 1100 20G<193 377> 1323 233<193 377>
VStem: 193 184<0 1120 1323 1556>
Fore
193 1120 m 1
 377 1120 l 1
 377 0 l 1
 193 0 l 1
 193 1120 l 1
193 1556 m 1
 377 1556 l 1
 377 1323 l 1
 193 1323 l 1
 193 1556 l 1
EndSplineSet
EndChar
StartChar: j
Encoding: 76 106 78
Width: 569
Flags: W
HStem: -426 156<-37 141.668> 1100 20G<193 377> 1323 233<193 377>
VStem: 193 184<-221.904 1120 1323 1556>
Fore
12 -270 m 2
 154 -270 193 -215 193 -20 c 2
 193 1120 l 1
 377 1120 l 1
 377 -20 l 2
 377 -283 291 -426 33 -426 c 2
 -37 -426 l 1
 -37 -270 l 1
 12 -270 l 2
193 1556 m 1
 377 1556 l 1
 377 1323 l 1
 193 1323 l 1
 193 1556 l 1
EndSplineSet
EndChar
StartChar: k
Encoding: 77 107 79
Width: 1186
Flags: W
HStem: 0 21G<186 371 919.196 1180> 1100 20G<897.267 1155> 1536 20G<186 371>
VStem: 186 185<0 547 637 1556>
Fore
186 1556 m 1
 371 1556 l 1
 371 637 l 1
 920 1120 l 1
 1155 1120 l 1
 561 596 l 1
 1180 0 l 1
 940 0 l 1
 371 547 l 1
 371 0 l 1
 186 0 l 1
 186 1556 l 1
EndSplineSet
EndChar
StartChar: l
Encoding: 78 108 80
Width: 569
Flags: W
HStem: 0 21G<193 377> 1536 20G<193 377>
VStem: 193 184<0 1556>
Fore
193 1556 m 1
 377 1556 l 1
 377 0 l 1
 193 0 l 1
 193 1556 l 1
EndSplineSet
EndChar
StartChar: m
Encoding: 79 109 81
Width: 1995
Flags: W
HStem: 0 21G<186 371 911 1096 1636 1821> 987 160<532.66 819.728 1257.88 1545.08>
VStem: 186 185<0 830.657 946 1120> 911 185<0 831.542> 1636 185<0 887.117>
CounterMasks: 1 38
Fore
731 1147 m 0
 931 1147 1025 1021 1065 905 c 1
 1140 1040 1254 1147 1456 1147 c 0
 1709 1147 1821 952 1821 676 c 2
 1821 0 l 1
 1636 0 l 1
 1636 670 l 2
 1636 856 1580 987 1405 987 c 0
 1207 987 1096 846 1096 633 c 2
 1096 0 l 1
 911 0 l 1
 911 670 l 2
 911 909 818 987 678 987 c 0
 483 987 371 844 371 633 c 2
 371 0 l 1
 186 0 l 1
 186 1120 l 1
 371 1120 l 1
 371 946 l 1
 442 1063 548 1147 731 1147 c 0
EndSplineSet
EndChar
StartChar: n
Encoding: 80 110 82
Width: 1298
Flags: W
HStem: 0 21G<186 371 940 1124> 987 160<541.412 841.113>
VStem: 186 185<0 832.869 946 1120> 940 184<0 874.314>
Fore
733 1147 m 0
 884 1147 1124 1093 1124 676 c 2
 1124 0 l 1
 940 0 l 1
 940 670 l 2
 940 902 841 987 692 987 c 0
 489 987 371 849 371 633 c 2
 371 0 l 1
 186 0 l 1
 186 1120 l 1
 371 1120 l 1
 371 946 l 1
 445 1059 554 1147 733 1147 c 0
EndSplineSet
EndChar
StartChar: o
Encoding: 81 111 83
Width: 1253
Flags: W
HStem: -29 156<469.379 783.476> 991 156<469.638 785.484>
VStem: 113 194<316.231 802.199> 946 195<316.231 799.631>
Fore
946 559 m 0
 946 811 835 991 627 991 c 0
 410 991 307 803 307 559 c 256
 307 316 408 127 627 127 c 0
 842 127 946 316 946 559 c 0
113 559 m 0
 113 916 293 1147 627 1147 c 0
 959 1147 1141 916 1141 559 c 0
 1141 203 959 -29 627 -29 c 0
 294 -29 113 203 113 559 c 0
EndSplineSet
EndChar
StartChar: p
Encoding: 82 112 84
Width: 1300
Flags: W
HStem: -426 21G<186 371> -29 154<528.263 838.929> 993 154<528.481 839.147>
VStem: 186 185<-426 168 315.332 803.107 950 1120> 997 191<316.548 801.232>
Fore
729 -29 m 0
 553 -29 442 45 371 168 c 1
 371 -426 l 1
 186 -426 l 1
 186 1120 l 1
 371 1120 l 1
 371 950 l 1
 442 1073 553 1147 729 1147 c 0
 1004 1147 1188 912 1188 559 c 256
 1188 206 1004 -29 729 -29 c 0
684 125 m 256
 900 125 997 316 997 559 c 256
 997 801 901 993 684 993 c 256
 468 993 371 802 371 559 c 256
 371 317 467 125 684 125 c 256
EndSplineSet
EndChar
StartChar: q
Encoding: 83 113 85
Width: 1300
Flags: W
HStem: -426 21G<930 1114> -29 154<460.88 771.865> 993 154<461.098 773.775>
VStem: 113 190<316.979 801.241> 930 184<-426 168 314.893 808.381 950 1120>
Fore
616 993 m 256
 400 993 303 802 303 559 c 256
 303 317 399 125 616 125 c 256
 832 125 930 316 930 559 c 256
 930 814 824 993 616 993 c 256
571 1147 m 0
 748 1147 859 1073 930 950 c 1
 930 1120 l 1
 1114 1120 l 1
 1114 -426 l 1
 930 -426 l 1
 930 168 l 1
 858 45 748 -29 571 -29 c 0
 296 -29 113 207 113 559 c 256
 113 911 296 1147 571 1147 c 0
EndSplineSet
EndChar
StartChar: r
Encoding: 84 114 86
Width: 842
Flags: W
HStem: 0 21G<186 371> 983 164<534.741 780.075>
VStem: 186 185<0 818.938 946 1120>
Fore
371 946 m 1
 444 1074 560 1147 748 1147 c 0
 767 1147 795 1145 841 1137 c 1
 841 948 l 1
 791 977 738 983 694 983 c 0
 473 983 371 828 371 590 c 2
 371 0 l 1
 186 0 l 1
 186 1120 l 1
 371 1120 l 1
 371 946 l 1
EndSplineSet
EndChar
StartChar: s
Encoding: 85 115 87
Width: 1067
Flags: W
HStem: -29 154<325.795 707.332> 993 154<364.691 823.547>
VStem: 119 178<729.71 932.529> 778 189<191.685 402.372>
Fore
549 1147 m 0
 687 1147 807 1126 907 1087 c 1
 907 913 l 1
 788 974 672 993 571 993 c 0
 371 993 297 926 297 825 c 0
 297 724 384 691 543 655 c 2
 606 641 l 2
 840 591 967 508 967 309 c 0
 967 79 764 -29 504 -29 c 0
 425 -29 299 -20 111 41 c 1
 111 231 l 1
 258 155 389 125 508 125 c 0
 736 125 778 227 778 295 c 0
 778 402 715 442 506 487 c 2
 442 502 l 2
 237 545 119 628 119 817 c 0
 119 1047 298 1147 549 1147 c 0
EndSplineSet
EndChar
StartChar: t
Encoding: 86 116 88
Width: 803
Flags: W
HStem: 0 154<486.946 754> 977 143<55 190 375 754>
VStem: 190 185<277.067 977 1120 1438>
Fore
565 0 m 2
 283 0 190 93 190 369 c 2
 190 977 l 1
 55 977 l 1
 55 1120 l 1
 190 1120 l 1
 190 1438 l 1
 375 1438 l 1
 375 1120 l 1
 754 1120 l 1
 754 977 l 1
 375 977 l 1
 375 369 l 2
 375 278 388 219 412 193 c 0
 438 167 488 154 565 154 c 2
 754 154 l 1
 754 0 l 1
 565 0 l 2
EndSplineSet
EndChar
StartChar: u
Encoding: 87 117 89
Width: 1298
Flags: W
HStem: -29 160<457.964 764.015> 1100 20G<174 358 928 1112>
VStem: 174 184<244.057 1120> 928 184<0 172 285.131 1120>
Fore
567 -29 m 0
 417 -29 174 26 174 442 c 2
 174 1120 l 1
 358 1120 l 1
 358 449 l 2
 358 216 457 131 606 131 c 0
 809 131 928 269 928 485 c 2
 928 1120 l 1
 1112 1120 l 1
 1112 0 l 1
 928 0 l 1
 928 172 l 1
 853 58 747 -29 567 -29 c 0
EndSplineSet
EndChar
StartChar: v
Encoding: 88 118 90
Width: 1212
Flags: W
HStem: 0 21G<473.5 738.5> 1100 20G<61 263.447 948.553 1151>
Fore
61 1120 m 1
 256 1120 l 1
 606 180 l 1
 956 1120 l 1
 1151 1120 l 1
 731 0 l 1
 481 0 l 1
 61 1120 l 1
EndSplineSet
EndChar
StartChar: w
Encoding: 89 119 91
Width: 1675
Flags: W
HStem: 0 21G<373.768 601.272 1073.75 1301.23> 1100 20G<86 275.263 723.76 951.263 1399.76 1589>
Fore
86 1120 m 1
 270 1120 l 1
 500 246 l 1
 729 1120 l 1
 946 1120 l 1
 1176 246 l 1
 1405 1120 l 1
 1589 1120 l 1
 1296 0 l 1
 1079 0 l 1
 838 918 l 1
 596 0 l 1
 379 0 l 1
 86 1120 l 1
EndSplineSet
EndChar
StartChar: x
Encoding: 90 120 92
Width: 1212
Flags: W
HStem: 0 21G<59 290.818 913.182 1145> 1100 20G<96 327.887 892.113 1124>
Fore
1124 1120 m 1
 719 575 l 1
 1145 0 l 1
 928 0 l 1
 602 440 l 1
 276 0 l 1
 59 0 l 1
 494 586 l 1
 96 1120 l 1
 313 1120 l 1
 610 721 l 1
 907 1120 l 1
 1124 1120 l 1
EndSplineSet
EndChar
StartChar: y
Encoding: 91 121 93
Width: 1212
Flags: W
HStem: -426 154<162 389.597> 1100 20G<61 263.991 948.009 1151>
Fore
659 -104 m 2
 571 -331 498 -426 309 -426 c 2
 162 -426 l 1
 162 -272 l 1
 270 -272 l 2
 385.755 -272 422.805 -218.335 481 -66 c 2
 514 18 l 1
 61 1120 l 1
 256 1120 l 1
 606 244 l 1
 956 1120 l 1
 1151 1120 l 1
 659 -104 l 2
EndSplineSet
EndChar
StartChar: z
Encoding: 92 122 94
Width: 1075
Flags: W
HStem: 0 147<295 987> 973 147<113 780>
Fore
113 1120 m 1
 987 1120 l 1
 987 952 l 1
 295 147 l 1
 987 147 l 1
 987 0 l 1
 88 0 l 1
 88 168 l 1
 780 973 l 1
 113 973 l 1
 113 1120 l 1
EndSplineSet
EndChar
StartChar: braceleft
Encoding: 93 123 95
Width: 1303
Flags: W
HStem: -334 144<798.707 1047> 541 143<256 495.097> 1413 143<798.707 1047>
VStem: 567 185<-144.597 466.726 757.149 1367.48>
Fore
551 612 m 1
 686 579 752 509 752 287 c 2
 752 39 l 2
 752 -55 766 -117 795 -146 c 0
 824 -175 885 -190 979 -190 c 2
 1047 -190 l 1
 1047 -334 l 1
 985 -334 l 2
 819 -334 708 -309 652 -260 c 0
 595 -211 567 -112 567 35 c 2
 567 274 l 2
 567 473 505 541 317 541 c 2
 256 541 l 1
 256 684 l 1
 317 684 l 2
 501 684 567 747 567 948 c 2
 567 1188 l 2
 567 1335 595 1434 652 1482 c 0
 708 1532 819 1556 985 1556 c 2
 1047 1556 l 1
 1047 1413 l 1
 979 1413 l 2
 885 1413 824 1398 795 1369 c 0
 766 1340 752 1278 752 1184 c 2
 752 936 l 2
 752 714 686 643 551 612 c 1
EndSplineSet
EndChar
StartChar: bar
Encoding: 94 124 96
Width: 690
Flags: W
VStem: 260 170<-483 1565>
Fore
430 1565 m 1
 430 -483 l 1
 260 -483 l 1
 260 1565 l 1
 430 1565 l 1
EndSplineSet
EndChar
StartChar: braceright
Encoding: 95 125 97
Width: 1303
Flags: W
HStem: -334 144<256 505.293> 541 143<806.903 1047> 1413 143<256 505.293>
VStem: 551 184<-144.597 466.726 755.194 1367.48>
Fore
985 541 m 2
 801 541 735 477 735 274 c 2
 735 35 l 2
 735 -112 707 -211 652 -260 c 0
 596 -309 485 -334 319 -334 c 2
 256 -334 l 1
 256 -190 l 1
 326 -190 l 2
 419 -190 480 -176 508 -147 c 0
 537 -118 551 -56 551 39 c 2
 551 287 l 2
 551 509 616 579 752 612 c 1
 616 643 551 712 551 936 c 2
 551 1184 l 2
 551 1279 537 1340 508 1370 c 0
 480 1398 419 1413 326 1413 c 2
 256 1413 l 1
 256 1556 l 1
 319 1556 l 2
 485 1556 596 1532 652 1482 c 0
 707 1434 735 1335 735 1188 c 2
 735 948 l 2
 735 751 798 684 985 684 c 2
 1047 684 l 1
 1047 541 l 1
 985 541 l 2
EndSplineSet
EndChar
StartChar: asciitilde
Encoding: 96 126 98
Width: 1716
Flags: W
HStem: 492 165<950.13 1322.48> 627 166<391.224 774.395>
Fore
1141 657 m 0x80
 1284 657 1403 739 1499 817 c 1
 1499 639 l 1
 1389 556 1270 492 1118 492 c 0x80
 920 492 751 627 575 627 c 0
 432 627 315 550 217 467 c 1
 217 645 l 1
 328 728 446 793 598 793 c 0x40
 814 793 972 657 1141 657 c 0x80
EndSplineSet
EndChar
StartChar: exclamdown
Encoding: 98 161 100
Width: 821
Flags: W
HStem: 0 21G<309 512> 1239 254<309 512>
VStem: 309 203<0 759.448 1239 1493>
Fore
512 1239 m 1
 309 1239 l 1
 309 1493 l 1
 512 1493 l 1
 512 1239 l 1
512 0 m 1
 309 0 l 1
 309 655 l 1
 330 1012 l 1
 492 1012 l 1
 512 655 l 1
 512 0 l 1
EndSplineSet
EndChar
StartChar: cent
Encoding: 99 162 101
Width: 1303
Flags: W
VStem: 172 195<324.173 783.287> 678 102<-313 -29 131 987 1145 1432>
Fore
678 987 m 1
 476 962 367 799 367 559 c 0
 367 319 475 154 678 131 c 1
 678 987 l 1
172 559 m 0
 172 910 361 1116 678 1145 c 1
 678 1432 l 1
 780 1432 l 1
 780 1145 l 1
 892 1139 982 1112 1059 1077 c 1
 1059 905 l 1
 986 945 891 986 780 991 c 1
 780 127 l 1
 890 135 981 171 1059 213 c 1
 1059 43 l 1
 982 7 893 -19 780 -29 c 1
 780 -313 l 1
 678 -313 l 1
 678 -25 l 1
 361 1 172 210 172 559 c 0
EndSplineSet
EndChar
StartChar: sterling
Encoding: 100 163 102
Width: 1303
Flags: W
HStem: 0 170<129 365 565 1122> 635 143<166 365 565 956> 1360 160<660.974 894.418>
VStem: 365 200<170 635 778 1256.58>
Fore
811 1520 m 0
 869 1520 971 1508 1102 1460 c 1
 1102 1278 l 1
 955 1358 863 1360 829 1360 c 0
 624 1360 565 1258 565 993 c 2
 565 778 l 1
 956 778 l 1
 956 635 l 1
 565 635 l 1
 565 170 l 1
 1122 170 l 1
 1122 0 l 1
 129 0 l 1
 129 170 l 1
 365 170 l 1
 365 635 l 1
 166 635 l 1
 166 778 l 1
 365 778 l 1
 365 1016 l 2
 365 1345 487 1520 811 1520 c 0
EndSplineSet
EndChar
StartChar: currency
Encoding: 101 164 103
Width: 1303
Flags: W
HStem: 215 158<502.642 803.109> 909 158<503.054 805.812> 1182 20G<1078.19 1117.83>
VStem: 227 156<493.466 790.569> 922 157<492.553 751.34>
Fore
653 1067 m 0
 751 1067 832 1030 891 993 c 1
 1098 1202 l 1
 1212 1087 l 1
 1006 881 l 1
 1070 778 1079 695 1079 641 c 0
 1079 541 1044 467 1001 406 c 1
 1210 199 l 1
 1096 86 l 1
 889 293 l 1
 824 249 747 215 653 215 c 0
 557 215 476 251 414 289 c 1
 207 82 l 1
 94 197 l 1
 301 403 l 1
 265 463 227 544 227 641 c 0
 227 740 262 816 303 877 c 1
 96 1083 l 1
 211 1198 l 1
 418 991 l 1
 478 1034 553 1067 653 1067 c 0
653 373 m 256
 800 373 922 486 922 643 c 0
 922 792 809 909 653 909 c 0
 507 909 383 798 383 643 c 0
 383 485 506 373 653 373 c 256
EndSplineSet
EndChar
StartChar: yen
Encoding: 102 165 104
Width: 1303
Flags: W
HStem: 0 21G<551 752> 455 123<135 551 752 1165> 784 123<135 399 901 1165> 1473 20G<82 282.829 1017.23 1219>
VStem: 551 201<0 455 578 629>
Fore
1165 455 m 1
 752 455 l 1
 752 0 l 1
 551 0 l 1
 551 455 l 1
 135 455 l 1
 135 578 l 1
 551 578 l 1
 551 629 l 1
 467 784 l 1
 135 784 l 1
 135 907 l 1
 399 907 l 1
 82 1493 l 1
 272 1493 l 1
 651 793 l 1
 1028 1493 l 1
 1219 1493 l 1
 901 907 l 1
 1165 907 l 1
 1165 784 l 1
 834 784 l 1
 750 629 l 1
 750 578 l 1
 1165 578 l 1
 1165 455 l 1
EndSplineSet
EndChar
StartChar: brokenbar
Encoding: 103 166 105
Width: 690
Flags: W
VStem: 260 170<-350 408 674 1432>
Fore
430 408 m 1
 430 -350 l 1
 260 -350 l 1
 260 408 l 1
 430 408 l 1
430 1432 m 1
 430 674 l 1
 260 674 l 1
 260 1432 l 1
 430 1432 l 1
EndSplineSet
EndChar
StartChar: section
Encoding: 104 167 106
Width: 1024
Flags: W
HStem: -195 144<255.567 623.893> 1376 144<390.226 752.508>
VStem: 92 162<642.651 863.107> 158 184<1137.53 1328.12> 680 184<2.52012 201.808> 768 162<484.016 704.085>
Fore
643 410 m 1xe4
 711 458 768 519 768 592 c 0
 768 685 718 753 379 936 c 1
 302 880 254 820 254 754 c 0
 254 635 367 559 643 410 c 1xe4
524 1520 m 0
 638 1520 744 1493 829 1462 c 1
 829 1298 l 1
 790 1317 660 1376 547 1376 c 0
 431 1376 342 1330 342 1225 c 0
 342 1165 411 1097 548 1020 c 2
 588 997 l 2
 835 858 930 773 930 623 c 0xd4
 930 510 876 414 745 340 c 1
 802 292 864 223 864 115 c 0
 864 -84 709 -195 487 -195 c 0
 369 -195 258 -165 172 -137 c 1
 172 27 l 1
 213 9 348 -51 465 -51 c 0
 588 -51 680 -3 680 109 c 0
 680 177 606 252 459 334 c 2
 434 348 l 2
 185 487 92 570 92 723 c 0xe8
 92 804 120 922 276 1006 c 1
 211 1054 158 1123 158 1231 c 0xd0
 158 1404 300 1520 524 1520 c 0
EndSplineSet
EndChar
StartChar: dieresis
Encoding: 105 168 107
Width: 1024
Flags: W
HStem: 1350 202<215 418 606 809>
VStem: 215 203<1350 1552> 606 203<1350 1552>
Fore
606 1552 m 1
 809 1552 l 1
 809 1350 l 1
 606 1350 l 1
 606 1552 l 1
215 1552 m 1
 418 1552 l 1
 418 1350 l 1
 215 1350 l 1
 215 1552 l 1
EndSplineSet
EndChar
StartChar: copyright
Encoding: 106 169 108
Width: 2048
Flags: W
HStem: 0 102<786.271 1261.59> 289 119<888.202 1145.27> 1073 119<885.9 1209.39> 1382 103<786.271 1261.59>
VStem: 283 100<503.41 978.89> 582 163<550.87 930.231> 1663 102<503.41 978.89>
Fore
1024 1485 m 256
 1434 1485 1765 1151 1765 741 c 0
 1765 331 1434 0 1024 0 c 256
 614 0 283 331 283 741 c 0
 283 1151 614 1485 1024 1485 c 256
1024 1382 m 0
 664 1382 383 1101 383 741 c 0
 383 381 664 102 1024 102 c 0
 1384 102 1663 381 1663 741 c 0
 1663 1101 1384 1382 1024 1382 c 0
1049 1192 m 0
 1131 1192 1222 1179 1323 1137 c 1
 1323 1008 l 1
 1252 1043 1166 1073 1061 1073 c 0
 860 1073 745 950 745 741 c 0
 745 528 864 408 1071 408 c 0
 1128 408 1210 415 1323 473 c 1
 1323 346 l 1
 1222 302 1131 289 1049 289 c 0
 758 289 582 463 582 741 c 0
 582 1020 758 1192 1049 1192 c 0
EndSplineSet
EndChar
StartChar: ordfeminine
Encoding: 107 170 109
Width: 965
Flags: W
HStem: 469 123<139 827> 698 119<305.75 577.712> 1104 115<311.089 676> 1405 115<230.17 612.327>
VStem: 115 147<859.923 1057.48> 676 149<717 829 916.548 1104 1219 1340.28>
Fore
139 592 m 1
 827 592 l 1
 827 469 l 1
 139 469 l 1
 139 592 l 1
463 1520 m 0
 656 1520 825 1449 825 1165 c 2
 825 717 l 1
 676 717 l 1
 676 829 l 1
 643 782 564 698 395 698 c 0
 228 698 115 791 115 946 c 0
 115 1110 222 1219 494 1219 c 2
 676 1219 l 1
 676 1223 l 2
 676 1355 583 1405 442 1405 c 0
 341 1405 247 1372 176 1337 c 1
 176 1464 l 1
 255 1494 356 1520 463 1520 c 0
442 817 m 0
 582 817 676 923 676 1075 c 2
 676 1104 l 1
 549 1104 l 2
 343 1104 262 1066 262 958 c 0
 262 873 330 817 442 817 c 0
EndSplineSet
EndChar
StartChar: guillemotleft
Encoding: 108 171 110
Width: 1253
Flags: W
HStem: 141 918<1061 1061>
VStem: 158 903<559 1059>
Fore
1061 1059 m 1
 1061 868 l 1
 760 600 l 1
 1061 332 l 1
 1061 141 l 1
 592 559 l 1
 592 641 l 1
 1061 1059 l 1
627 1059 m 1
 627 868 l 1
 326 600 l 1
 627 332 l 1
 627 141 l 1
 158 559 l 1
 158 641 l 1
 627 1059 l 1
EndSplineSet
EndChar
StartChar: logicalnot
Encoding: 109 172 111
Width: 1716
Flags: W
HStem: 692 170<217 1331>
VStem: 1331 168<287 692>
Fore
217 862 m 1
 1499 862 l 1
 1499 287 l 1
 1331 287 l 1
 1331 692 l 1
 217 692 l 1
 217 862 l 1
EndSplineSet
EndChar
StartChar: uni00AD
Encoding: 110 173 112
Width: 739
Flags: W
HStem: 479 164<100 639>
Fore
100 643 m 1
 639 643 l 1
 639 479 l 1
 100 479 l 1
 100 643 l 1
EndSplineSet
EndChar
StartChar: registered
Encoding: 111 174 113
Width: 2048
Flags: W
HStem: 0 102<796.992 1250.87> 694 101<874 1049.03> 1071 103<874 1159.42> 1382 103<796.992 1250.87>
VStem: 283 100<514.131 968.146> 719 155<338 694 795 1071> 1194 160<827.994 1038.37> 1663 102<514.131 968.146>
Fore
1024 1382 m 0
 674 1382 383 1091 383 741 c 0
 383 391 674 102 1024 102 c 0
 1374 102 1663 391 1663 741 c 0
 1663 1091 1374 1382 1024 1382 c 0
1024 1485 m 256
 1434 1485 1765 1151 1765 741 c 0
 1765 331 1434 0 1024 0 c 256
 614 0 283 331 283 741 c 0
 283 1151 614 1485 1024 1485 c 256
1194 932 m 0
 1194 1043 1125 1071 997 1071 c 2
 874 1071 l 1
 874 795 l 1
 997 795 l 2
 1130 795 1194 825 1194 932 c 0
1354 934 m 0
 1354 809 1269 739 1153 719 c 1
 1187 708 1233 651 1290 561 c 2
 1427 338 l 1
 1255 338 l 1
 1126 547 l 2
 1061 653 1025 694 940 694 c 2
 874 694 l 1
 874 338 l 1
 719 338 l 1
 719 1174 l 1
 1004 1174 l 2
 1263 1174 1354 1078 1354 934 c 0
EndSplineSet
EndChar
StartChar: macron
Encoding: 112 175 114
Width: 1024
Flags: W
HStem: 1378 148<213 811>
Fore
213 1526 m 1
 811 1526 l 1
 811 1378 l 1
 213 1378 l 1
 213 1526 l 1
EndSplineSet
EndChar
StartChar: degree
Encoding: 113 176 115
Width: 1024
Flags: W
HStem: 885 127<389.699 633.197> 1391 129<388.551 631.591>
VStem: 195 127<1079.66 1322.47> 702 127<1077.76 1323.08>
Fore
702 1200 m 256
 702 1308 617 1391 512 1391 c 0
 408 1391 322 1311 322 1200 c 0
 322 1097 401 1012 512 1012 c 256
 623 1012 702 1097 702 1200 c 256
195 1200 m 0
 195 1386 338 1520 512 1520 c 0
 675 1520 829 1392 829 1200 c 0
 829 1028 696 885 510 885 c 0
 327 885 195 1020 195 1200 c 0
EndSplineSet
EndChar
StartChar: plusminus
Encoding: 114 177 116
Width: 1716
Flags: W
HStem: 0 170<217 1499> 727 170<217 774 942 1499>
VStem: 774 168<340 727 897 1284>
Fore
942 1284 m 1
 942 897 l 1
 1499 897 l 1
 1499 727 l 1
 942 727 l 1
 942 340 l 1
 774 340 l 1
 774 727 l 1
 217 727 l 1
 217 897 l 1
 774 897 l 1
 774 1284 l 1
 942 1284 l 1
217 170 m 1
 1499 170 l 1
 1499 0 l 1
 217 0 l 1
 217 170 l 1
EndSplineSet
EndChar
StartChar: uni00B2
Encoding: 115 178 117
Width: 821
Flags: W
HStem: 668 114<268 692> 1411 109<156.359 485.643>
VStem: 535 151<1170.95 1362.19>
Fore
367 1520 m 0
 563 1520 686 1424 686 1280 c 0
 686 1187 576 1046 355 857 c 2
 268 782 l 1
 692 782 l 1
 692 668 l 1
 94 668 l 1
 94 778 l 1
 191 865 l 2
 420 1068 535 1201 535 1264 c 0
 535 1352 461 1411 346 1411 c 0
 248 1411 145 1363 100 1341 c 1
 100 1464 l 1
 151 1482 260 1520 367 1520 c 0
EndSplineSet
EndChar
StartChar: uni00B3
Encoding: 116 179 118
Width: 821
Flags: W
HStem: 653 109<189.532 511.287> 1061 108<260 510.638> 1411 109<284.943 513.109>
VStem: 545 151<1204.24 1376.31> 565 152<815.84 1013.72>
Fore
696 1303 m 0xf0
 696 1193 612 1139 524 1120 c 1
 634 1098 717 1032 717 911 c 0
 717 725 557 653 350 653 c 0
 300 653 220 659 98 694 c 1
 98 815 l 1
 163 781 241 762 336 762 c 0
 459 762 565 803 565 911 c 0xe8
 565 1001 502 1061 346 1061 c 2
 260 1061 l 1
 260 1169 l 1
 354 1169 l 2
 458 1169 545 1199 545 1292 c 0
 545 1383 453 1411 350 1411 c 0
 305 1411 247 1404 127 1370 c 1
 127 1485 l 1
 252 1514 332 1520 383 1520 c 0
 612 1520 696 1408 696 1303 c 0xf0
EndSplineSet
EndChar
StartChar: acute
Encoding: 117 180 119
Width: 1024
Flags: W
HStem: 1262 376<524 651>
VStem: 371 479<1262 1638>
Fore
651 1638 m 1
 850 1638 l 1
 524 1262 l 1
 371 1262 l 1
 651 1638 l 1
EndSplineSet
EndChar
StartChar: mu
Encoding: 118 181 120
Width: 1303
Flags: W
HStem: -426 21G<174 358> -29 170<1054 1251.43> -29 160<464.296 804.264> 1100 20G<174 358 928 1112>
VStem: 174 184<-426 127 237.445 1120> 928 184<259.603 1120>
Fore
645 -29 m 0xbc
 473 -29 397 55 358 127 c 1
 358 -426 l 1
 174 -426 l 1
 174 1120 l 1
 358 1120 l 1
 358 424 l 2
 358 236 447 131 631 131 c 0xbc
 809 131 928 222 928 467 c 2
 928 1120 l 1
 1112 1120 l 1
 1112 258 l 2
 1112 193 1126 141 1184 141 c 0
 1198 141 1226 153 1253 164 c 1
 1253 16 l 1
 1213 -6 1164 -29 1104 -29 c 0xdc
 1004 -29 956 32 938 129 c 1
 879 36 790 -29 645 -29 c 0xbc
EndSplineSet
EndChar
StartChar: paragraph
Encoding: 119 182 121
Width: 1303
Flags: W
HStem: 1370 123<750 940>
VStem: 608 142<-197 649> 940 141<-197 1370>
Fore
158 1071 m 0
 158 1324 343 1493 633 1493 c 2
 1081 1493 l 1
 1081 -197 l 1
 940 -197 l 1
 940 1370 l 1
 750 1370 l 1
 750 -197 l 1
 608 -197 l 1
 608 649 l 1
 329 671 158 818 158 1071 c 0
EndSplineSet
EndChar
StartChar: periodcentered
Encoding: 120 183 122
Width: 651
Flags: W
HStem: 584 254<219 430>
VStem: 219 211<584 838>
Fore
219 838 m 1
 430 838 l 1
 430 584 l 1
 219 584 l 1
 219 838 l 1
EndSplineSet
EndChar
StartChar: cedilla
Encoding: 121 184 123
Width: 1024
Flags: W
HStem: -395 123<374.362 552.389> -20 20G<477 628.5>
VStem: 565 140<-255.969 -113.266>
Fore
565 -178 m 0
 565 -142 545 -92 477 0 c 1
 596 0 l 1
 661 -73 705 -145 705 -215 c 0
 705 -346 608 -395 467 -395 c 0
 401 -395 345 -386 291 -371 c 1
 291 -240 l 1
 346 -267 399 -272 446 -272 c 0
 505 -272 565 -253 565 -178 c 0
EndSplineSet
EndChar
StartChar: uni0E01
Encoding: 224 3585 124
Width: 1340
Flags: W
HStem: 0 21G<200 384 964 1146> 1072 160<432.359 839.392>
VStem: 200 184<0 602.035> 964 182<0 941.407>
Back
104.5 1046.5 m 13
 105 843.5 l 5
 342.5 751 l 5
 288.061 723.613 245.584 681.353 215.068 624.22 c 132
 184.527 567.041 169.269 510.968 169.294 456 c 6
 169.5 0 l 5
 354.5 0 l 5
 354.294 456 l 6
 354.27 508.919 368.377 554.728 396.614 593.427 c 132
 424.827 632.084 463.456 660.609 512.5 679 c 5
 512 826.5 l 5
 260.608 940.811 l 5
 309.117 977.608 365.992 1007.49 431.233 1030.45 c 132
 496.474 1053.41 563.563 1064.26 632.5 1063 c 4
 733.784 1061.2 809.272 1033.41 858.963 979.636 c 132
 908.654 925.863 933.5 842.985 933.5 731 c 6
 933.5 0 l 5
 1116.5 0 l 5
 1116.5 747 l 6
 1116.5 905.919 1071.32 1025.04 980.974 1104.37 c 132
 890.623 1183.69 774.465 1223.23 632.5 1223 c 4
 533.315 1222.84 439.217 1208.91 350.205 1181.2 c 132
 261.193 1153.49 179.291 1108.59 104.5 1046.5 c 13
EndSplineSet
Fore
134 1056 m 17
 184 1097 347 1232 666 1232 c 0
 871 1232 1146 1137 1146 756 c 2
 1146 0 l 1
 964 0 l 1
 964 740 l 2
 964 920 901 1072 651 1072 c 0
 507 1072 376 1015 291 950 c 1
 542 836 l 1
 542 688 l 1
 454 654 384 579 384 465 c 2
 384 0 l 1
 200 0 l 1
 200 472 l 2
 200 542 242 694 372 760 c 1
 134 862 l 1
 134 1056 l 17
EndSplineSet
EndChar
StartChar: uni0E02
Encoding: 225 3586 125
Width: 1220
Flags: W
HStem: 0 154<530 830.492> 761 106<192.329 330.327> 1085 135<374 473.267>
VStem: 72 114<874.021 1006.72> 338 112<873.86 1009.12> 341 189<154 582.991> 526 183<814.083 1031.36> 846 182<166.599 196 196 1202>
Back
1315 927 m 132
 1315 953.667 1324.33 976.333 1343 995 c 132
 1361.67 1013.67 1384.33 1023 1411 1023 c 132
 1437.67 1023 1460.33 1013.67 1479 995 c 132
 1497.67 976.333 1507 953.667 1507 927 c 132
 1507 900.333 1497.67 877.667 1479 859 c 132
 1460.33 840.333 1437.67 831 1411 831 c 132
 1384.33 831 1361.67 840.333 1343 859 c 132
 1324.33 877.667 1315 900.333 1315 927 c 132
1303.5 1118.5 m 132
 1243.83 1062.83 1215.67 999 1219 927 c 4
 1221.67 871.667 1241.17 825.833 1277.5 789.5 c 132
 1313.83 753.167 1358.33 735 1411 735 c 132
 1463.67 735 1508.83 753.833 1546.5 791.5 c 132
 1584.17 829.167 1603 874.333 1603 927 c 260
 1603 987 1584.33 1032 1547 1062 c 5
 1595 1058.67 1631.5 1039.17 1656.5 1003.5 c 132
 1681.39 967.833 1693.55 934.333 1693 903 c 4
 1691.91 856.779 1684.07 820.752 1669.46 794.919 c 132
 1654.86 769.086 1631.47 735.808 1599.28 695.085 c 132
 1567.09 654.362 1542.33 610 1525 562 c 132
 1507.67 514 1499 468.333 1499 425 c 6
 1499 0 l 5
 1917 0 l 6
 2014.33 0 2084 19.5 2126 58.5 c 132
 2168.05 97.564 2189.05 142.731 2189 194 c 6
 2188 1202 l 5
 1998 1202 l 5
 1998 261 l 6
 1998 227.667 1989.83 202.5 1973.5 185.5 c 132
 1957.17 168.5 1932.33 160 1899 160 c 6
 1691 160 l 5
 1691 425 l 6
 1691 464.403 1696.51 500.743 1707.54 534.021 c 132
 1718.57 567.299 1741.07 605.615 1775.04 648.97 c 132
 1809.01 692.323 1832.17 731 1844.5 765 c 132
 1856.83 799 1863 839 1863 885 c 4
 1861.67 981.667 1827 1059 1759 1117 c 132
 1691 1175 1613 1203.67 1525 1203 c 132
 1437 1202.33 1363.17 1174.17 1303.5 1118.5 c 132
564 875 m 0
 564 926.333 549.167 970.333 519.5 1007 c 128
 489.833 1043.67 446.333 1064 389 1068 c 1
 412.333 1056 430.833 1037.33 444.5 1012 c 128
 458.167 986.667 465 956.333 465 921 c 0
 465 874.333 447.5 832.833 412.5 796.5 c 128
 377.5 760.167 334 742.667 282 744 c 0
 225.333 745.333 179 763.5 143 798.5 c 128
 107 833.5 88.6667 877.667 88 931 c 0
 86.6667 1005.67 115.333 1069.67 174 1123 c 128
 232.667 1176.33 306.667 1203 396 1203 c 128
 485.333 1203 563.665 1174.12 630.995 1116.36 c 128
 698.325 1058.61 732.66 981.487 734 885 c 0
 734.667 837 729.5 796.167 718.5 762.5 c 128
 707.5 728.833 683.167 689 645.5 643 c 128
 607.833 597 583.5 557.667 572.5 525 c 128
 561.5 492.333 556 459 556 425 c 2
 556 154 l 9
 761 154 l 2
 794.333 154 819.167 162.5 835.5 179.5 c 128
 851.833 196.5 860 221.667 860 255 c 2
 860 1202 l 1
 1039 1202 l 1
 1040 194 l 2
 1040.05 142.649 1019.05 97.482 977 58.5 c 128
 935 19.5 865.333 0 768 0 c 2
 367 0 l 1
 366 425 l 18
 365.841 492.331 374.135 545.331 390.881 584 c 128
 407.627 622.667 435.381 664.314 474.143 708.943 c 128
 512.905 753.571 537.465 785.898 547.823 805.925 c 128
 558.182 825.952 563.574 848.977 564 875 c 0
281.5 999.5 m 152
 260.5 999.833 242.167 993 226.5 979 c 128
 210.833 965 202.667 947.5 202 926.5 c 128
 201.333 905.5 208.333 887.667 223 873 c 128
 237.667 858.333 255.5 850.833 276.5 850.5 c 128
 297.5 850.167 315.5 857 330.5 871 c 128
 345.5 885 353.333 902.333 354 923 c 128
 354.667 943.667 348 961.5 334 976.5 c 128
 320 991.5 302.5 999.167 281.5 999.5 c 152
EndSplineSet
Fore
376 1220 m 0xfb
 602 1220 709 1047 709 912 c 0xfb
 709 873 699 808 646 716 c 2
 594 623 l 2
 569 579 530 490 530 402 c 2
 530 154 l 1
 745 154 l 2
 812 154 846 190 846 258 c 2
 846 1202 l 25
 1028 1202 l 13
 1028 196 l 2
 1028 65 932 0 740 0 c 2
 341 0 l 1
 341 452 l 2xf5
 341 535 370 607 404 658 c 2
 458 735 l 2
 490 779 526 840 526 910 c 0
 526 1014 455 1082 374 1085 c 1
 426 1050 450 1030 450 938 c 0
 450 854 361 761 271 761 c 0
 169 761 72 826 72 953 c 0
 72 1095 198 1220 376 1220 c 0xfb
338 945 m 0
 338 985 305 1016 263 1016 c 0
 217 1016 186 975 186 940 c 0
 186 899 221 867 265 867 c 0
 301 867 338 895 338 945 c 0
EndSplineSet
EndChar
StartChar: uni0E03
Encoding: 226 3587 126
Width: 1310
Flags: W
HStem: 0 154<634 933.492> 637 108<217.387 356.216> 894 107<240.907 354.765> 1206 20<224 351.224 515.29 635.5 949 1131>
VStem: 72 139<773.939 981.752> 362 112<750.631 888.522> 444 190<154 581.906> 642 180<809.729 1054.36> 949 182<172.211 196 196 1202>
Fore
211 817 m 0xfd80
 211 792 230 745 290 745 c 0
 337 745 362 782 362 820 c 0
 362 856 339 894 291 894 c 0
 241 894 211 855 211 817 c 0xfd80
294 1001 m 0
 421 1001 474 898 474 816 c 0xfd80
 474 729 387 637 282 637 c 0
 227 637 72 665 72 910 c 0
 72 1012 132 1177 316 1226 c 1
 434 1159 l 1
 554 1221 l 1
 717 1191 822 1045 822 903 c 0
 822 877 821 810 756 711 c 2
 700 623 l 2
 671 574 634 494 634 408 c 2
 634 154 l 1
 843 154 l 2
 914 154 949 189 949 258 c 2
 949 1202 l 1
 1131 1202 l 1
 1131 196 l 18
 1131 65 1035 0 843 0 c 2
 444 0 l 1
 444 458 l 2xfb80
 444 538 473 608 512 659 c 2
 568 730 l 2
 621 796 642 863 642 923 c 0
 642 999 607 1061 562 1086 c 1
 430 1026 l 1
 300 1088 l 1
 252 1065 226 1032 221 987 c 1
 221 987 289 1001 294 1001 c 0
EndSplineSet
EndChar
StartChar: uni0E04
Encoding: 227 3588 127
Width: 1340
Flags: W
HStem: 0 21G<203.338 401.8 973 1157> 461 132<574.307 707.177> 737 132<575.222 707.364> 1072 160<462.319 841.358>
VStem: 145 177<686.985 836.406> 713 132<598.636 731.177> 973 184<0 825.547>
Back
378 0 m 1
 195 0 l 1
 118 757.885 l 2
 114.361 793.704 119.893 837.177 134.597 888.306 c 128
 149.301 939.435 170.495 984.893 198.178 1024.68 c 128
 225.861 1064.47 259.635 1099.06 299.502 1128.46 c 128
 339.369 1157.85 388.133 1181.11 445.794 1198.22 c 128
 503.455 1215.33 566.857 1223.89 636 1223.89 c 0
 702.043 1223.89 762.777 1215.34 818.203 1198.25 c 128
 873.629 1181.15 920.64 1157.9 959.237 1128.5 c 128
 997.832 1099.09 1030.61 1064.57 1057.56 1024.92 c 128
 1084.51 985.266 1104.53 942.348 1117.6 896.166 c 128
 1130.67 849.984 1137.14 778.262 1137 681 c 2
 1136 0 l 1
 953 0 l 1
 953 742.886 l 2
 953 790.849 947.445 833.726 936.336 871.518 c 128
 925.227 909.31 907.743 942.916 883.882 972.335 c 128
 860.022 1001.75 827.528 1024.37 786.399 1040.18 c 128
 745.27 1055.99 696.47 1063.89 640 1063.89 c 0
 581.045 1063.89 528.983 1055.49 483.814 1038.7 c 128
 438.645 1021.91 402.527 998.627 375.46 968.862 c 128
 348.393 939.099 328.636 904.599 316.191 865.363 c 128
 303.746 826.126 299.015 783.301 302 736.886 c 2
 322 425.886 l 1
 328.235 443.701 335.915 472.139 345.039 511.202 c 128
 354.162 550.264 364.249 586.669 375.3 620.417 c 128
 386.351 654.166 399.917 683.322 416 707.886 c 0
 437.563 740.819 457.847 767.295 476.853 787.314 c 128
 495.858 807.333 519.962 824.225 549.164 837.99 c 128
 578.366 851.755 611.332 858.868 648.062 859.329 c 0
 699.763 859.978 743.276 842.361 778.6 806.479 c 128
 813.925 770.597 832.225 727.399 833.5 676.886 c 0
 834.801 625.394 816.578 582.521 778.832 548.267 c 0
 742.602 515.388 700.325 498.261 652 496.886 c 0
 623.076 496.063 598.964 498.883 579.663 505.346 c 128
 560.363 511.809 546.042 519.594 536.699 528.7 c 128
 527.356 537.805 516.79 551.201 505 568.886 c 1
 442.333 437.629 400 248 378 0 c 1
649 600.886 m 24
 669.922 600.886 687.952 607.934 703.089 622.031 c 128
 718.226 636.128 725.863 653.413 726 673.886 c 0
 726.14 694.812 718.756 712.71 703.848 727.581 c 128
 688.94 742.451 670.991 749.886 650 749.886 c 128
 629.074 749.886 611.211 742.467 596.411 727.629 c 128
 581.611 712.791 574.141 694.877 574 673.886 c 0
 573.865 653.631 581.188 636.4 595.971 622.194 c 128
 610.754 607.989 628.43 600.886 649 600.886 c 24
EndSplineSet
Fore
845 665 m 0
 845 551 754 461 641 461 c 0
 585 461 537 481 497 521 c 9
 398 0 l 17
 205 0 l 1
 148 686 l 2
 146 707 145 729 145 753 c 0
 145 953 223 1232 656 1232 c 0
 952 1232 1093 1061 1138 904 c 0
 1150 858 1157 786 1157 689 c 2
 1157 0 l 1
 973 0 l 1
 973 751 l 2
 973 913 910 1072 660 1072 c 0
 494 1072 377 1002 338 880 c 0
 327 845 322 800 322 745 c 2
 323 168 l 1
 341 317 401 713 478 800 c 0
 519 846 574 869 641 869 c 0
 755 869 845 778 845 665 c 0
641 737 m 0
 598 737 569 703 569 665 c 0
 569 622 603 593 641 593 c 0
 684 593 713 627 713 665 c 0
 713 708 679 737 641 737 c 0
EndSplineSet
EndChar
StartChar: uni0E05
Encoding: 228 3589 128
Width: 1340
Flags: W
HStem: 0 21G<223.025 416 981 1164> 450 132<584.307 717.177> 726 132<588.407 717.364>
VStem: 144 185<790.015 970.489> 723 132<587.636 720.177> 981 183<0 987.613>
Fore
651 726 m 0
 608 726 579 692 579 654 c 0
 579 611 613 582 651 582 c 0
 694 582 723 616 723 654 c 0
 723 697 689 726 651 726 c 0
855 654 m 0
 855 540 764 450 651 450 c 256
 595 450 547 470 507 510 c 1
 457 393 424 223 408 0 c 1
 225 0 l 1
 146 800 l 2
 145 812 144 824 144 837 c 0
 144 991 243 1170 473 1243 c 1
 664 1092 l 1
 847 1243 l 1
 1021 1186 1164 1036 1164 801 c 2
 1164 0 l 1
 981 0 l 1
 981 785 l 2
 981 933 936 1029 848 1072 c 1
 700 958 l 1
 633 958 l 1
 481 1072 l 1
 417 1038 329 958 329 808 c 0
 329 798 329 789 330 779 c 2
 354 447 l 1
 354 506 430 858 651 858 c 0
 765 858 855 767 855 654 c 0
EndSplineSet
EndChar
StartChar: uni0E06
Encoding: 229 3590 129
Width: 1360
Flags: W
HStem: -10 142<287.184 416.305> 276 143<286.254 408.083> 637 108<197.447 336.216> 894 107<220.907 334.765> 1206 20<204 331.224 495.29 615.5 988 1170>
VStem: 52 139<771.501 981.752> 148 132<138.514 270.759> 342 112<750.631 888.522> 424 190<137.909 223.074 414 581.352> 622 180<809.729 1054.36> 988 182<215 1202>
Fore
274 1001 m 0xfae0
 401 1001 454 898 454 816 c 0
 454 729 367 637 262 637 c 0
 216 637 166 655 119 699 c 0
 74 741 52 811 52 910 c 0xfd60
 52 1012 112 1177 296 1226 c 1
 414 1159 l 1
 534 1221 l 1
 697 1191 802 1045 802 903 c 0
 802 877 801 810 736 711 c 2
 682 626 l 2
 654 579 614 495 614 408 c 10
 614 379 l 17
 750 341 876 286 988 215 c 1
 988 1202 l 1
 1170 1202 l 1
 1170 0 l 1
 980 0 l 1
 869 99 747 173 614 224 c 1
 614 130 556 -10 352 -10 c 0
 246 -10 148 70 148 204 c 0
 148 317 236 419 356 419 c 0
 373 419 397 419 424 414 c 9
 424 458 l 2
 424 538 453 608 492 659 c 2
 548 730 l 2
 601 796 622 863 622 923 c 0
 622 999 587 1061 542 1086 c 1
 410 1026 l 1
 280 1088 l 1
 232 1065 206 1032 201 987 c 1
 201 987 269 1001 274 1001 c 0xfae0
191 817 m 0
 191 792 210 745 270 745 c 0
 317 745 342 782 342 820 c 0
 342 856 319 894 271 894 c 0
 221 894 191 855 191 817 c 0
352 276 m 0
 309 276 280 242 280 204 c 0
 280 161 314 132 352 132 c 0
 395 132 424 166 424 204 c 0xfae0
 424 247 390 276 352 276 c 0
EndSplineSet
EndChar
StartChar: uni0E07
Encoding: 230 3591 130
Width: 1050
Flags: W
HStem: 0 21G<543 830> 804 132<523.636 639.814> 1080 132<523.823 655.703>
VStem: 386 132<941.823 1074.36> 644 186<300 807> 662 168<941.217 1074.8>
Back
586 922.902 m 24
 606.922 922.902 624.952 929.95 640.089 944.047 c 128
 655.226 958.143 662.863 975.427 663 995.9 c 0
 663.14 1016.83 655.756 1034.73 640.849 1049.6 c 128
 625.941 1064.47 607.991 1071.9 587 1071.9 c 128
 566.073 1071.9 548.21 1064.48 533.411 1049.64 c 128
 518.611 1034.81 511.141 1016.89 511 995.9 c 0
 510.864 975.647 518.188 958.417 532.971 944.211 c 128
 547.754 930.005 565.431 922.902 586 922.902 c 24
643.821 800.898 m 9
 644 300 l 1
 533.615 462.551 369.225 616.185 150.83 760.902 c 1
 91.8301 640.902 l 1
 161.415 591.613 249.587 500.398 356.346 367.257 c 128
 463.105 234.117 548.989 111.698 614 0 c 1
 830 0 l 1
 829.83 952.902 l 18
 829.816 1031.37 807.581 1092.59 763.126 1136.57 c 128
 718.671 1180.55 666.629 1202.66 607 1202.9 c 0
 539.959 1203.17 484.759 1184.44 441.401 1146.7 c 128
 398.044 1108.96 376.91 1056.03 378 987.9 c 0
 378.944 928.91 400.033 881.907 441.267 846.892 c 128
 482.501 811.877 529.412 794.214 582 793.902 c 0
 608.445 793.745 629.052 796.077 643.821 800.898 c 9
EndSplineSet
Fore
590 1080 m 0xf4
 547 1080 518 1046 518 1008 c 0
 518 965 552 936 590 936 c 0
 633 936 662 970 662 1008 c 0
 662 1051 628 1080 590 1080 c 0xf4
590 1212 m 0
 756 1212 830 1085 830 963 c 10
 830 0 l 1xf4
 604 0 l 1
 482 204 307 476 92 641 c 1
 151 761 l 1
 339 633 518 479 644 300 c 1
 644 807 l 17xf8
 643 805 625 804 590 804 c 0
 476 804 386 895 386 1008 c 0
 386 1122 477 1212 590 1212 c 0
EndSplineSet
EndChar
StartChar: uni0E08
Encoding: 231 3592 131
Width: 1140
Flags: W
HStem: 0 21G<670 868.656> 449 126<323.113 461.817> 724 126<323.774 461.535> 1076 156<209.42 656.384>
VStem: 187 129<582.361 717.017> 782 189<754.031 964.109>
Back
946 723 m 10
 946 0 l 1
 760 0 l 1
 733.333 128 702.43 240.5 667.289 337.5 c 128
 632.148 434.5 596.219 497.333 559.5 526 c 1
 551.876 509.725 535.543 492.841 510.502 475.348 c 128
 485.461 457.855 448.96 449.093 401 449.06 c 8
 341.135 449.019 292.545 467.128 255.23 503.388 c 128
 217.915 539.648 198.505 585.872 197 642.06 c 0
 195.275 706.452 215.318 757.164 257.129 794.196 c 128
 298.94 831.229 353.23 849.517 420 849.06 c 0
 469.687 849.043 512.608 836.528 548.765 811.517 c 128
 584.922 786.506 614.345 759.895 637.036 731.685 c 128
 659.726 703.475 684.061 665.912 710.041 618.996 c 128
 736.021 572.081 753.341 529.749 762 492 c 1
 762 810 l 2
 762 894.667 734.167 960.167 678.5 1006.5 c 128
 622.833 1052.83 544.667 1076 444 1076 c 0
 380 1076 317.667 1068.33 257 1053 c 128
 196.333 1037.67 138 1014.67 82 984 c 1
 82 1154 l 1
 149.333 1180 214.667 1199.5 278 1212.5 c 128
 341.333 1225.5 403 1232 463 1232 c 0
 625 1232 746 1190 826 1106 c 128
 906 1022 946 894.333 946 723 c 10
401 575.06 m 24
 421.922 575.06 439.952 582.108 455.089 596.205 c 128
 470.226 610.302 477.863 627.587 478 648.06 c 0
 478.14 668.986 470.756 686.884 455.848 701.755 c 128
 440.94 716.625 422.991 724.06 402 724.06 c 128
 381.074 724.06 363.211 716.641 348.411 701.803 c 128
 333.611 686.965 326.141 669.051 326 648.06 c 0
 325.865 627.804 333.188 610.573 347.971 596.368 c 128
 362.754 582.163 380.43 575.06 401 575.06 c 24
EndSplineSet
Fore
394 449 m 0
 294 449 187 509 187 649 c 0
 187 781 289 850 401 850 c 0
 492 850 590 804 643 707 c 0
 680 639 727 491 751 326 c 1
 782 810 l 2
 782 816 783 823 783 829 c 0
 783 990 646 1076 464 1076 c 0
 355 1076 229 1053 102 984 c 1
 102 1154 l 1
 191 1188 331 1232 483 1232 c 0
 826 1232 971 1011 971 818 c 0
 971 797 969 775 966 753 c 10
 866 0 l 1
 680 0 l 1
 660 208 626 369 550 526 c 1
 527 477 462 449 394 449 c 0
316 648 m 0
 316 609 347 575 391 575 c 24
 435 575 468 608 468 648 c 0
 468 694 433 724 392 724 c 0
 344 724 316 686 316 648 c 0
EndSplineSet
EndChar
StartChar: uni0E09
Encoding: 232 3593 132
Width: 1300
Flags: W
HStem: 0 132<936.636 1069.18> 424 132<221.636 337.814> 700 132<221.823 353.703> 1076 156<394.222 778.364>
VStem: 84 132<561.823 694.364> 342 186<207 427> 360 168<561.217 694.797> 898 184<391 961.523> 1075 132<137.636 269.52>
Fore
288 832 m 0xfc80
 454 832 528 705 528 583 c 2xfa
 528 207 l 1
 636 308 759 369 898 391 c 9
 898 810 l 2
 898 916 851 1076 570 1076 c 0
 413 1076 293 1032 178 964 c 1
 178 1134 l 1
 376 1226 486 1232 589 1232 c 0
 857 1232 1082 1130 1082 723 c 10
 1082 388 l 17xfd
 1139 371 1207 303 1207 204 c 0
 1207 90 1116 0 1003 0 c 0
 889 0 799 91 799 204 c 1
 675 155 583 87 524 0 c 1
 342 0 l 1
 342 427 l 1
 341 425 323 424 288 424 c 0
 174 424 84 515 84 628 c 0
 84 742 175 832 288 832 c 0xfc80
1003 276 m 0
 960 276 931 242 931 204 c 0
 931 161 965 132 1003 132 c 0
 1046 132 1075 166 1075 204 c 0xf880
 1075 247 1041 276 1003 276 c 0
288 700 m 0
 245 700 216 666 216 628 c 0
 216 585 250 556 288 556 c 0
 331 556 360 590 360 628 c 0xfa
 360 671 326 700 288 700 c 0
EndSplineSet
EndChar
StartChar: uni0E0A
Encoding: 233 3594 133
Width: 1260
Flags: W
HStem: 0 154<540 840.492> 761 106<203.334 340.898> 1085 135<384 483.267>
VStem: 82 114<876.081 1006.58> 348 112<873.984 1009.85> 351 189<154 586.117> 536 183<859.695 1031.55> 856 182<166.599 196 196 857.994> 968 180<1148.88 1392>
Fore
386 1220 m 0xfa
 612 1220 719 1047 719 912 c 0xfa
 719 873 709 808 656 716 c 2
 604 623 l 2
 576 574 540 490 540 402 c 2
 540 154 l 1
 755 154 l 2
 822 154 856 190 856 258 c 2
 856 709 l 2xf5
 856 798 827 861 770 898 c 1
 770 1024 l 1
 931 1061 968 1227 968 1392 c 1
 1148 1392 l 1xf080
 1148 1253 1126 1151 1082 1084 c 0
 1039 1018 991 970 940 940 c 1
 1010 891 1038 809 1038 709 c 2
 1038 196 l 2
 1038 65 942 0 750 0 c 2
 351 0 l 1
 351 452 l 2xf5
 351 535 380 607 414 658 c 2
 468 735 l 2
 525 814 536 872 536 914 c 0
 536 1003 473 1085 384 1085 c 1
 430 1067 460 1027 460 944 c 0
 460 867 403 761 276 761 c 0
 168 761 82 836 82 953 c 0
 82 1094 206 1220 386 1220 c 0xfa
348 945 m 0
 348 985 315 1016 273 1016 c 0
 227 1016 196 975 196 940 c 0
 196 899 231 867 275 867 c 0
 311 867 348 895 348 945 c 0
EndSplineSet
EndChar
StartChar: uni0E0B
Encoding: 234 3595 134
Width: 1370
Flags: W
HStem: 0 154<644 952.492> 637 108<227.387 366.166> 894 107<250.907 365.01> 1206 20G<234 361.224 525.29 645.5>
VStem: 82 139<773.939 981.605> 373 111<751.217 887.908> 454 190<154 581.906> 652 180<809.729 1054.36> 968 182<172.211 196 196 837.75> 1078 180<1262.95 1382>
Fore
1052 930 m 1xf940
 1115 885 1150 806 1150 699 c 2
 1150 196 l 2
 1150 65 1054 0 862 0 c 10
 454 0 l 17
 454 458 l 2xfb80
 454 538 483 608 522 659 c 2
 578 730 l 2
 631 796 652 863 652 923 c 0
 652 999 617 1061 572 1086 c 1
 440 1026 l 1
 310 1088 l 1
 262 1065 236 1032 231 987 c 1
 231 987 299 1001 304 1001 c 0
 431 1001 484 898 484 816 c 0xfd
 484 729 397 637 292 637 c 0
 237 637 82 665 82 910 c 0
 82 1012 142 1176 326 1226 c 1
 444 1159 l 1
 564 1221 l 1
 727 1191 832 1045 832 903 c 0
 832 877 831 810 766 711 c 2
 710 623 l 2
 681 574 644 494 644 408 c 2
 644 154 l 1
 862 154 l 2
 933 154 968 189 968 258 c 2
 968 699 l 2xfb80
 968 771 939 834 881 888 c 1
 881 1014 l 1
 1042 1052 1078 1213 1078 1382 c 1
 1258 1382 l 1
 1258 1320 1257 1173 1194 1074 c 0
 1150 1008 1103 960 1052 930 c 1xf940
373 822 m 0xfd
 373 857 343 894 301 894 c 16
 251 894 221 855 221 817 c 0
 221 792 240 745 300 745 c 0
 337 745 373 775 373 822 c 0xfd
EndSplineSet
EndChar
StartChar: uni0E0C
Encoding: 235 3596 135
Width: 1800
Flags: W
HStem: -11 123<882.364 1019.94> -10 132<364.297 496.177> 266 132<379.561 496.364 887.632 954> 1072 160<421.843 826.134>
VStem: 189 170<127.203 260.783> 189 185<395 603.031> 503 130<127.636 260.177> 741 135<119.863 253.767> 954 183<394 941.407> 1028 127<120.145 241.806> 1430 182<216 1203>
Fore
954 740 m 2xb3a0
 954 918 892 1072 642 1072 c 0
 498 1072 367 1015 281 950 c 1
 531 836 l 1
 531 688 l 1
 467 663 374 599 374 464 c 2
 374 395 l 1xb7a0
 375 397 394 398 429 398 c 0
 543 398 633 307 633 194 c 0
 633 80 542 -10 429 -10 c 0
 263 -10 189 117 189 239 c 2x7b20
 189 465 l 2
 189 566 246 702 363 760 c 1
 125 862 l 1
 125 1056 l 17
 172 1095 336 1232 653 1232 c 0
 862 1232 1137 1137 1137 756 c 2
 1137 383 l 1x77a0
 1243 362 1341 306 1430 216 c 1
 1430 1203 l 1
 1612 1203 l 1
 1612 0 l 17
 1431 0 l 1
 1335 138 1240 222 1147 251 c 1
 1153 229 1155 207 1155 186 c 0x7360
 1155 72 1072 -11 942 -11 c 0
 804 -11 741 82 741 180 c 0
 741 285 815 394 944 394 c 0
 954 394 l 1
 954 740 l 2xb3a0
431 122 m 0x7b20
 474 122 503 156 503 194 c 0
 503 237 469 266 431 266 c 0
 388 266 359 232 359 194 c 0
 359 151 393 122 431 122 c 0x7b20
1028 188 m 0xb360
 1028 227 997 261 953 261 c 24
 909 261 876 228 876 188 c 0
 876 142 910 112 952 112 c 24
 994 112 1028 151 1028 188 c 0xb360
EndSplineSet
EndChar
StartChar: uni0E0D
Encoding: 236 3597 136
Width: 1800
Flags: W
HStem: -396 100<1215 1365> -138 88<1047.32 1162.62> -10 132<363.297 495.177> 0 156<1106 1433> 266 132<378.561 495.364> 1072 160<423.408 814.307>
VStem: 188 170<127.203 260.783> 188 185<395 602.267> 502 130<127.636 260.177> 923 183<156 954.372> 954 90<-248.102 -155.006> 1165 93<-249.279 -140.451> 1433 185<156 1204>
Fore
642 1232 m 0xed98
 853 1232 1106 1137 1106 756 c 2
 1106 156 l 1
 1433 156 l 1
 1433 1204 l 1
 1618 1204 l 1
 1618 0 l 1
 923 0 l 1
 923 740 l 2
 923 923 872 1072 642 1072 c 0
 503 1072 364 1014 280 950 c 1
 531 836 l 1
 531 688 l 1
 467 663 373 597 373 464 c 2
 373 395 l 1xddd8
 374 397 393 398 428 398 c 0
 542 398 632 307 632 194 c 0
 632 80 541 -10 428 -10 c 0
 262 -10 188 117 188 239 c 2xee98
 188 465 l 2
 188 566 245 702 362 760 c 1
 124 862 l 1
 124 1056 l 17
 161 1087 331 1232 642 1232 c 0xed98
430 122 m 0xee98
 473 122 502 156 502 194 c 0
 502 237 468 266 430 266 c 0
 387 266 358 232 358 194 c 0
 358 151 392 122 430 122 c 0xee98
1107 -138 m 0
 1062 -138 1044 -170 1044 -197 c 0xccb8
 1044 -232 1074 -251 1105 -251 c 0
 1146 -251 1165 -224 1165 -196 c 0
 1165 -167 1144 -138 1107 -138 c 0
1106 -50 m 0xccd8
 1190 -50 1258 -110 1258 -199 c 0
 1258 -244 1244 -276 1215 -296 c 1
 1222 -296 l 2
 1355 -296 1498 -166 1559 -86 c 1
 1592 -235 l 1
 1513 -310 1372 -396 1225 -396 c 0
 984 -396 954 -259 954 -199 c 0xccb8
 954 -117 1019 -50 1106 -50 c 0xccd8
EndSplineSet
Substitution2: "Thai Descender Removal Single Substitution" uni0E0D.descless
EndChar
StartChar: uni0E0E
Encoding: 237 3598 137
Width: 1440
Flags: W
HStem: -410 148<545.748 663.778> -116 139<560.219 711.827> -10 132<206.636 337.775> 266 132<206.823 322.33> 1072 160<528.198 938.348>
VStem: 69 132<127.823 260.364> 326 187<394 630.392> 345 168<129.393 260.797> 389 155<-258.661 -134.232> 1062 184<-186 941.407>
AnchorPoint: "BelowBase" 1249 -478 basechar 0
Fore
544 -201 m 0xdcc0
 544 -239 570 -262 601 -262 c 0
 630 -262 699 -253 727 -133 c 1
 703 -121 679 -116 656 -116 c 0
 594 -116 544 -154 544 -201 c 0xdcc0
1062 740 m 2
 1062 919 1001 1072 751 1072 c 0
 608 1072 476 1016 390 950 c 1
 641 836 l 1
 641 688 l 1
 580 661 513 615 513 506 c 2xde40
 513 239 l 2xdd40
 513 110 433 -10 273 -10 c 0
 159 -10 69 81 69 194 c 0
 69 308 160 398 273 398 c 0
 307 398 325 397 326 394 c 1
 326 506 l 2xbe40
 326 579 349 722 472 760 c 1
 234 862 l 1
 234 1056 l 17
 281 1095 445 1232 762 1232 c 0
 971 1232 1246 1137 1246 756 c 2
 1246 -410 l 1
 1061 -410 l 1
 996 -315 934 -246 876 -201 c 1
 826 -362 715 -410 601 -410 c 0
 460 -410 389 -311 389 -217 c 0
 389 -73 509 23 653 23 c 0
 695 23 731 18 761 9 c 1
 779 99 l 1
 939 42 l 1
 917 -52 l 1
 961 -81 1009 -125 1062 -186 c 1
 1062 740 l 2
273 266 m 0
 230 266 201 232 201 194 c 0
 201 151 235 122 273 122 c 0
 316 122 345 156 345 194 c 0xbd40
 345 237 311 266 273 266 c 0
EndSplineSet
EndChar
StartChar: uni0E0F
Encoding: 238 3599 138
Width: 1440
Flags: W
HStem: -410 128<480.76 597.491> -132 120<474.627 603.215> -10 132<206.636 337.775> 266 132<206.823 322.33> 1072 160<530.843 938.133>
VStem: 69 132<127.823 260.364> 325 137<-279.145 -144.09> 326 187<394 630.392> 345 168<129.393 260.797> 1062 184<-229 941.407>
AnchorPoint: "BelowBase" 1249 -478 basechar 0
Fore
273 266 m 0xfcc0
 230 266 201 232 201 194 c 0
 201 151 235 122 273 122 c 0
 316 122 345 156 345 194 c 0
 345 237 311 266 273 266 c 0xfcc0
1062 740 m 2
 1062 919 1001 1072 751 1072 c 0
 607 1072 476 1015 390 950 c 1
 641 836 l 1
 641 688 l 1
 580 661 513 615 513 506 c 2xfd40
 513 239 l 2xfcc0
 513 110 433 -10 273 -10 c 0
 159 -10 69 81 69 194 c 0
 69 308 160 398 273 398 c 0
 307 398 325 397 326 394 c 1
 326 506 l 2xfd40
 326 579 349 722 472 760 c 1
 234 862 l 1
 234 1056 l 17
 281 1095 445 1232 762 1232 c 0
 970 1232 1246 1137 1246 756 c 10
 1246 -410 l 17
 1040 -410 l 1
 969 -271 l 1
 904 -410 l 1
 810 -410 l 1
 802 -334 779 -271 740 -221 c 1
 712 -358 614 -410 534 -410 c 0
 392 -410 325 -325 325 -231 c 0xfe40
 325 -161 372 -12 561 -12 c 0
 598 -12 629 -19 655 -32 c 1
 668 49 l 1
 794 33 l 1
 768 -87 l 1
 811 -113 845 -159 870 -224 c 1
 928 -104 l 1
 1002 -104 l 1
 1062 -229 l 1
 1062 740 l 2
527 -282 m 0
 591 -282 617 -214 629 -155 c 1
 601 -139 575 -132 553 -132 c 0
 496 -132 462 -176 462 -220 c 0xfe40
 462 -270 496 -282 527 -282 c 0
EndSplineSet
EndChar
StartChar: uni0E10
Encoding: 239 3600 139
Width: 1170
Flags: W
HStem: -542 100<245.553 392.199> -320 105<248.452 374.12> -290 69<713.42 797.724> -119 75<712.887 814.603> 0 21G<679.5 872.52> 270 125<323.77 462.024> 544 125<324.577 460.508> 1064 158<439.386 834.178>
VStem: 127 117<-437.819 -341.908> 190 126<402.331 535.588> 637 75<-219.652 -120.192> 792 188<587.632 681.372> 798 162<-403 -283> 815 145<-220.604 -121.539>
Back
391 395.06 m 24
 411.922 395.06 429.952 402.108 445.089 416.205 c 128
 460.226 430.302 467.863 447.587 468 468.06 c 0
 468.14 488.986 460.756 506.884 445.848 521.755 c 128
 430.94 536.625 412.991 544.06 392 544.06 c 128
 371.074 544.06 353.211 536.641 338.411 521.803 c 128
 323.611 506.965 316.141 489.051 316 468.06 c 0
 315.865 447.804 323.188 430.573 337.971 416.368 c 128
 352.754 402.163 370.43 395.06 391 395.06 c 24
976 608 m 10
 869 0 l 1
 683 0 l 1
 677.398 35.7689 662.664 89.7112 638.798 161.827 c 128
 614.933 233.942 588 296 558 348 c 1
 552.143 333.809 535.335 317.113 507.577 297.912 c 128
 479.819 278.71 441.96 269.093 394 269.06 c 8
 334.135 269.019 285.545 287.128 248.23 323.388 c 128
 210.915 359.648 191.505 405.872 190 462.06 c 0
 188.275 526.452 208.572 577.389 250.889 614.87 c 128
 293.206 652.351 347.243 670.414 413 669.06 c 0
 491.667 667.687 561 630.333 621 557 c 128
 681 483.667 722 393.333 744 286 c 1
 790 565.917 l 2
 804.179 652.201 754.846 704.229 642 722 c 10
 134 802 l 17
 134 1046 l 17
 209.333 1108 291.5 1152.83 380.5 1180.5 c 128
 469.5 1208.17 563.333 1222 662 1222 c 0
 729.707 1222 792.901 1212.54 851.583 1193.63 c 128
 910.266 1174.72 960.795 1147.2 1003.17 1111.08 c 128
 1045.55 1074.96 1076.68 1037.71 1096.57 999.32 c 9
 945.086 886.666 l 17
 938.621 914.695 921.012 944.141 892.259 975.002 c 128
 863.506 1005.86 829.808 1027.84 791.163 1040.94 c 128
 752.519 1054.04 709.465 1061.06 662 1062 c 0
 593.333 1063.33 526.333 1052.5 461 1029.5 c 128
 395.667 1006.5 339 976.667 291 940 c 9
 712 878 l 18
 914.433 848.188 1002.43 758.188 976 608 c 10
798 -403 m 1
 798 -283 l 1
 790 -287.667 775 -290 753 -290 c 0
 722.333 -290 695.5 -279.167 672.5 -257.5 c 128
 649.5 -235.833 637.333 -207.333 636 -172 c 0
 634.667 -140 646.5 -110.5 671.5 -83.5 c 128
 696.5 -56.5 732 -43.3333 778 -44 c 0
 834.667 -44.6667 879.167 -64.3333 911.5 -103 c 128
 943.833 -141.667 960 -186.333 960 -237 c 2
 960 -540 l 1
 780 -540 l 1
 753.333 -501.333 726.667 -471.667 700 -451 c 1
 674 -472.333 649 -501.333 625 -538 c 1
 559 -538 l 1
 554.333 -496.667 535.333 -457 502 -419 c 1
 483.901 -456.841 458.876 -486.802 426.926 -508.881 c 128
 394.975 -530.96 355.667 -542 309 -542 c 0
 261.651 -542 219.48 -528.417 182.488 -501.25 c 128
 145.496 -474.083 127 -437 127 -390 c 0
 127 -346.654 143.928 -306.285 177.785 -268.892 c 128
 211.642 -231.5 260.38 -213.536 324 -215 c 0
 376.667 -215.667 419 -229 451 -255 c 1
 478 -184 l 1
 570 -252 l 1
 540 -318 l 1
 568 -340.667 588 -370 600 -406 c 1
 626.667 -370 660 -341.333 700 -320 c 1
 731.04 -338 763.707 -365.667 798 -403 c 1
766 -119 m 24
 751.333 -119 738.667 -124 728 -134 c 128
 717.333 -144 712 -156 712 -170 c 128
 712 -184 717.167 -196 727.5 -206 c 128
 737.833 -216 750 -221 764 -221 c 128
 778 -221 790 -215.833 800 -205.5 c 128
 810 -195.167 815 -183 815 -169 c 128
 815 -155 810.167 -143.167 800.5 -133.5 c 128
 790.833 -123.833 779.333 -119 766 -119 c 24
245 -394 m 0
 246.143 -408.83 253.678 -420.589 267.604 -429.276 c 128
 281.53 -437.963 295.995 -442.205 311 -442 c 0
 357.101 -441.333 392.434 -412.333 417 -355 c 1
 389 -332.333 358.333 -320.667 325 -320 c 0
 294.969 -319.241 273.655 -326.417 261.058 -341.528 c 128
 248.461 -356.638 243.109 -374.129 245 -394 c 0
EndSplineSet
Fore
316 468 m 0x9f60
 316 429 347 395 391 395 c 24
 435 395 468 428 468 468 c 0
 468 514 433 544 392 544 c 0
 344 544 316 506 316 468 c 0x9f60
408 669 m 0
 597 669 709 459 744 286 c 1
 790 566 l 2
 792 576 792 585 792 593 c 0
 792 663 742 706 642 722 c 10
 134 802 l 17
 134 1046 l 17
 180 1083 345 1222 662 1222 c 0
 923 1222 1053 1084 1097 999 c 9
 945 887 l 17
 924 980 810 1064 648 1064 c 0
 505 1064 365 997 291 940 c 9
 712 878 l 18
 891 851 980 778 980 657 c 0x9f70
 980 641 979 625 976 608 c 10
 869 0 l 1
 683 0 l 1
 676 45 631 222 558 348 c 1
 538 300 469 270 396 270 c 0
 294 270 190 327 190 470 c 0
 190 606 296 669 408 669 c 0
775 -44 m 0
 903 -44 960 -148 960 -237 c 2
 960 -540 l 1
 780 -540 l 1
 753 -501 727 -472 700 -451 c 1
 674 -472 649 -501 625 -538 c 1
 559 -538 l 1
 554 -497 535 -457 502 -419 c 1
 469 -489 409 -542 309 -542 c 0
 235 -542 127 -500 127 -390 c 0
 127 -332 168 -215 317 -215 c 0
 374 -215 418 -228 451 -255 c 1
 478 -184 l 1
 570 -252 l 1
 540 -318 l 1
 568 -341 588 -370 600 -406 c 1
 627 -370 660 -341 700 -320 c 1xdfa4
 731 -338 764 -366 798 -403 c 1
 798 -283 l 1
 790 -288 775 -290 753 -290 c 0xbfa8
 678 -290 637 -230 637 -169 c 0
 637 -107 680 -44 775 -44 c 0
815 -169 m 0
 815 -140 792 -119 766 -119 c 24
 735 -119 712 -142 712 -170 c 0
 712 -197 734 -221 764 -221 c 0xbf24
 791 -221 815 -199 815 -169 c 0
321 -320 m 0xdfa0
 252 -320 244 -370 244 -385 c 0
 244 -416 272 -442 310 -442 c 0
 374 -442 404 -385 417 -355 c 1
 391 -334 359 -320 321 -320 c 0xdfa0
EndSplineSet
Substitution2: "Thai Descender Removal Single Substitution" uni0E10.descless
EndChar
StartChar: uni0E11
Encoding: 240 3601 140
Width: 1560
Flags: W
HStem: 0 21G<424 685.5 1178 1361> 637 107<197.855 336.427> 892 109<220.794 337.862> 1060 162<1050.36 1171.65>
VStem: 52 139<751.475 981.752> 343 111<751.153 884.885> 424 190<243 581.906> 622 180<811.125 1054.36> 1178 183<0 1054.81>
Fore
1152 1222 m 0xfb80
 1277 1222 1361 1126 1361 997 c 2
 1361 0 l 1
 1178 0 l 1
 1178 980 l 10
 1178 1033 1159 1060 1122 1060 c 0
 1088 1060 1068 1045 1045 1007 c 0
 998 931 952 781 909 559 c 0
 865 336 764 150 607 0 c 9
 424 0 l 1
 424 458 l 2xfb80
 424 538 453 608 492 659 c 2
 548 730 l 2
 601 796 622 863 622 923 c 0
 622 999 587 1061 542 1086 c 1
 410 1026 l 1
 280 1088 l 1
 232 1065 206 1032 201 987 c 1
 201 987 269 1001 274 1001 c 0
 401 1001 454 898 454 816 c 0xfd80
 454 729 367 637 263 637 c 0
 216 637 167 655 119 699 c 0
 74 741 52 811 52 910 c 0
 52 1012 112 1177 296 1226 c 1
 414 1159 l 1
 534 1221 l 1
 697 1191 802 1045 802 903 c 0
 802 877 800 810 736 711 c 2
 680 623 l 2
 649 572 614 494 614 408 c 2
 614 243 l 17
 871 521 786 932 999 1168 c 0
 1032 1204 1083 1222 1152 1222 c 0xfb80
267 744 m 0
 308 744 343 775 343 820 c 0xfd80
 343 868 305 892 268 892 c 0
 229 892 191 868 191 818 c 0
 191 778 224 744 267 744 c 0
EndSplineSet
EndChar
StartChar: uni0E12
Encoding: 241 3602 141
Width: 1790
Flags: W
HStem: -10 132<885.823 1018.36> 442 127<559.499 624> 713 132<557.636 690.177> 1204 20<365.5 468.298 792.762 900.5 1418 1598>
VStem: 115 184<768.156 952.853> 420 132<575.871 707.177> 696 132<575.257 707.364> 748 132<127.636 260.371> 952 183<398 848.652> 1418 180<216 1203>
Fore
952 -10 m 0xfec0
 839 -10 748 80 748 194 c 0xfdc0
 748 308 839 398 952 398 c 1
 952 763 l 2
 952 812 952 987 818 1053 c 1
 670 939 l 1
 603 939 l 1
 451 1053 l 1
 386 1019 299 937 299 795 c 0
 299 783 300 770 301 757 c 2
 357 220 l 1
 459 270 566 360 624 442 c 1
 501 442 420 532 420 641 c 0
 420 754 510 845 624 845 c 0
 737 845 828 755 828 641 c 0
 828 513 755 325 378 0 c 1
 195 0 l 1
 117 778 l 2
 115 793 115 808 115 822 c 0
 115 1041 288 1175 443 1224 c 1
 634 1073 l 1
 817 1224 l 1
 984 1168 1135 1021 1135 779 c 2
 1135 367 l 1
 1241 338 1335 288 1418 216 c 1
 1418 1203 l 1
 1598 1203 l 1
 1598 0 l 1
 1420 0 l 1
 1337 104 1249 169 1156 194 c 1
 1156 81 1066 -10 952 -10 c 0xfec0
952 122 m 0
 990 122 1024 151 1024 194 c 0
 1024 232 995 266 952 266 c 0
 914 266 880 237 880 194 c 0
 880 156 909 122 952 122 c 0
624 569 m 0
 662 569 696 598 696 641 c 0xfec0
 696 679 667 713 624 713 c 0
 586 713 552 684 552 641 c 0
 552 603 581 569 624 569 c 0
EndSplineSet
EndChar
StartChar: uni0E13
Encoding: 242 3603 142
Width: 1850
Flags: W
HStem: -10 132<364.297 496.177 1509.18 1640.18> 266 132<379.561 496.364 1624 1638.66> 1072 160<421.33 814.057>
VStem: 189 170<127.203 260.783> 189 185<395 602.267> 503 130<127.636 260.177> 924 183<216 949.206> 1370 132<129.246 204> 1443 181<398 1202> 1646 132<127.636 260.577>
Fore
924 740 m 2xe740
 924 914 871 1072 661 1072 c 0
 530 1072 400 1041 281 950 c 1
 532 836 l 1
 532 688 l 1
 468 663 374 597 374 464 c 2
 374 395 l 1xef40
 375 397 394 398 429 398 c 0
 543 398 633 307 633 194 c 0
 633 80 542 -10 429 -10 c 0
 263 -10 189 117 189 239 c 2xf640
 189 465 l 2
 189 566 246 702 363 760 c 1
 125 862 l 1
 125 1056 l 17
 266 1173 436 1232 673 1232 c 0
 823 1232 1107 1158 1107 756 c 2
 1107 216 l 1
 1196 288 1308 345 1443 387 c 1
 1443 1202 l 1
 1624 1202 l 1
 1624 398 l 1xeec0
 1671 398 1778 322 1778 194 c 0
 1778 80 1687 -10 1574 -10 c 0
 1468 -10 1370 70 1370 204 c 1
 1282 179 1194 111 1105 0 c 1
 924 0 l 1
 924 740 l 2xe740
431 122 m 0
 474 122 503 156 503 194 c 0
 503 237 469 266 431 266 c 0
 388 266 359 232 359 194 c 0xf640
 359 151 393 122 431 122 c 0
1574 122 m 0
 1617 122 1646 156 1646 194 c 0
 1646 237 1612 266 1574 266 c 0
 1531 266 1502 232 1502 194 c 0xe740
 1502 151 1536 122 1574 122 c 0
EndSplineSet
EndChar
StartChar: uni0E14
Encoding: 243 3604 143
Width: 1330
Flags: W
HStem: 0 21G<213.047 475.5 973 1157> 450 127<580.055 646> 721 132<580.596 712.364> 1072 160<466.87 842.406>
VStem: 143 178<716.6 934.584> 442 132<583.998 715.885> 718 132<583.401 715.177> 973 184<0 942.716>
Fore
660 1072 m 0
 383 1072 321 887 321 775 c 0
 321 765 321 755 322 745 c 2
 377 177 l 1
 459 243 549 334 646 450 c 1
 644 450 l 2
 522 450 442 542 442 648 c 0
 442 767 537 853 646 853 c 0
 760 853 850 762 850 649 c 0
 850 569 832 502 796 448 c 0
 686 282 553 133 398 0 c 1
 215 0 l 1
 148 686 l 2
 144 723 143 756 143 786 c 0
 143 1016 311 1232 656 1232 c 0
 910 1232 1157 1123 1157 689 c 2
 1157 0 l 1
 973 0 l 1
 973 751 l 2
 973 913 910 1072 660 1072 c 0
646 721 m 0
 603 721 574 687 574 649 c 0
 574 606 608 577 646 577 c 0
 689 577 718 611 718 649 c 0
 718 692 684 721 646 721 c 0
EndSplineSet
EndChar
StartChar: uni0E15
Encoding: 244 3605 144
Width: 1340
Flags: W
HStem: 0 21G<223.025 480.5 981 1164> 459 127<591.499 656> 730 132<589.823 722.364>
VStem: 144 184<790.039 970.228> 452 132<592.864 724.364> 728 132<592.704 724.177> 981 183<0 987.613>
Fore
847 1243 m 1
 1021 1186 1164 1036 1164 801 c 2
 1164 0 l 1
 981 0 l 1
 981 785 l 2
 981 933 936 1029 848 1072 c 1
 700 958 l 1
 633 958 l 1
 481 1072 l 1
 395 1026 328 934 328 812 c 0
 328 801 329 790 330 779 c 2
 387 176 l 1
 656 459 l 1
 533 459 452 549 452 658 c 0
 452 772 543 862 656 862 c 0
 770 862 860 771 860 658 c 0
 860 579 842 512 806 457 c 0
 686 276 553 124 408 0 c 1
 225 0 l 1
 146 800 l 2
 145 812 144 824 144 837 c 0
 144 991 243 1170 473 1243 c 1
 664 1092 l 1
 847 1243 l 1
656 730 m 0
 613 730 584 696 584 658 c 0
 584 615 618 586 656 586 c 0
 699 586 728 620 728 658 c 0
 728 701 694 730 656 730 c 0
EndSplineSet
EndChar
StartChar: uni0E16
Encoding: 245 3606 145
Width: 1340
Flags: W
HStem: -10 132<376.297 508.177> 266 132<391.592 508.364> 1072 160<434.043 843.568>
VStem: 202 185<395 602.267> 202 168<127.203 260.783> 514 132<127.636 260.177> 968 182<0 941.407>
Fore
442 122 m 0xee
 485 122 514 156 514 194 c 0
 514 237 480 266 442 266 c 0
 399 266 370 232 370 194 c 0
 370 151 404 122 442 122 c 0xee
666 1232 m 0
 875 1232 1150 1137 1150 756 c 2
 1150 0 l 17
 968 0 l 1
 968 740 l 2
 968 956 874 1072 666 1072 c 0
 518 1072 382 1017 294 950 c 1
 545 836 l 1
 545 688 l 1
 481 663 387 597 387 464 c 2
 387 395 l 1xf6
 388 397 407 398 442 398 c 0
 556 398 646 307 646 194 c 0
 646 80 555 -10 442 -10 c 0
 276 -10 202 117 202 239 c 2xee
 202 465 l 2xf6
 202 566 259 702 376 760 c 1
 138 862 l 1
 138 1056 l 17
 185 1095 349 1232 666 1232 c 0
EndSplineSet
EndChar
StartChar: uni0E17
Encoding: 246 3607 146
Width: 1420
Flags: W
HStem: 0 21G<344 580 1040 1223> 804 132<223.636 339.814> 1070 152<864.282 1028.44> 1080 132<223.823 356.015>
VStem: 86 132<941.823 1074.36> 344 186<454 807> 362 168<941.217 1073.04> 1040 183<0 1057.5>
Fore
290 1080 m 0xdb
 247 1080 218 1046 218 1008 c 0
 218 965 252 936 290 936 c 0
 333 936 362 970 362 1008 c 0
 362 1051 328 1080 290 1080 c 0xdb
986 1222 m 0xed
 1116 1222 1223 1117 1223 988 c 2
 1223 0 l 1
 1040 0 l 1
 1040 961 l 2
 1040 1034 1012 1070 956 1070 c 0
 903 1070 865 1043 842 988 c 0
 741 745 635 416 525 0 c 1
 344 0 l 25
 344 807 l 17xed
 343 805 325 804 290 804 c 0
 176 804 86 895 86 1008 c 0
 86 1122 177 1212 290 1212 c 0
 458 1212 530 1081 530 963 c 10xdb
 530 454 l 1
 595 701 658 894 719 1033 c 0
 752 1107 826 1222 986 1222 c 0xed
EndSplineSet
EndChar
StartChar: uni0E18
Encoding: 247 3608 147
Width: 1200
Flags: W
HStem: 0 154<407 805.492> 1062 160<430.839 835.627>
VStem: 228 179<154 674> 821 182<172.211 196 196 653.522>
Fore
662 1222 m 0
 923 1222 1053 1084 1097 999 c 9
 945 887 l 17
 934 933 870 1062 651 1062 c 0
 507 1062 376 1005 291 940 c 9
 743 858 l 18
 916 827 1003 737 1003 588 c 10
 1003 196 l 2
 1003 65 907 0 715 0 c 10
 228 0 l 17
 228 674 l 1
 407 674 l 1
 407 154 l 1
 715 154 l 2
 786 154 821 189 821 258 c 2
 821 547 l 2
 821 632 772 684 673 702 c 10
 134 802 l 17
 134 1046 l 17
 180 1084 345 1222 662 1222 c 0
EndSplineSet
EndChar
StartChar: uni0E19
Encoding: 248 3609 148
Width: 1430
Flags: W
HStem: -20 132<1059.18 1190.18> 256 123<1124 1190.78> 804 132<217.636 333.814> 1080 132<217.823 349.547>
VStem: 80 132<941.823 1074.36> 338 186<171 807> 356 168<941.217 1069.96> 920 132<119.246 194> 983 181<379 1202> 1196 132<117.636 250.305>
Fore
284 1080 m 0xfa40
 241 1080 212 1046 212 1008 c 0
 212 965 246 936 284 936 c 0
 327 936 356 970 356 1008 c 0
 356 1051 322 1080 284 1080 c 0xfa40
1124 -20 m 0
 1018 -20 920 60 920 194 c 1
 816 174 683 109 521 0 c 1
 338 0 l 1
 338 807 l 1xfd40
 337 805 319 804 284 804 c 0
 170 804 80 895 80 1008 c 0
 80 1122 171 1212 284 1212 c 0
 449 1212 524 1086 524 963 c 2xfa40
 524 171 l 1
 641 263 794 331 983 374 c 1
 983 1202 l 1
 1164 1202 l 1
 1164 379 l 1xfcc0
 1222 378 1328 313 1328 184 c 0
 1328 70 1237 -20 1124 -20 c 0
1124 256 m 0
 1081 256 1052 222 1052 184 c 0
 1052 141 1086 112 1124 112 c 0
 1167 112 1196 146 1196 184 c 0
 1196 227 1162 256 1124 256 c 0
EndSplineSet
EndChar
StartChar: uni0E1A
Encoding: 249 3610 149
Width: 1400
Flags: W
HStem: 0 154<524 1032> 804 132<217.636 333.814> 1080 132<217.823 349.703>
VStem: 80 132<941.823 1074.36> 338 186<154 807> 356 168<941.217 1074.8> 1032 182<154 1202>
Fore
284 1080 m 0xf6
 241 1080 212 1046 212 1008 c 0
 212 965 246 936 284 936 c 0
 327 936 356 970 356 1008 c 0
 356 1051 322 1080 284 1080 c 0xf6
284 1212 m 0
 450 1212 524 1085 524 963 c 2xf6
 524 154 l 1
 1032 154 l 1
 1032 1202 l 1
 1214 1202 l 1
 1214 0 l 1
 338 0 l 1
 338 807 l 1xfa
 337 805 319 804 284 804 c 0
 170 804 80 895 80 1008 c 0
 80 1122 171 1212 284 1212 c 0
EndSplineSet
EndChar
StartChar: uni0E1B
Encoding: 250 3611 150
Width: 1400
Flags: W
HStem: 0 154<524 1032> 804 132<217.636 333.814> 1080 132<217.823 349.703>
VStem: 80 132<941.823 1074.36> 338 186<154 807> 356 168<941.217 1074.8> 1032 182<154 1638>
AnchorPoint: "AboveBase" 942 1340 basechar 0
Fore
284 1080 m 0xf6
 241 1080 212 1046 212 1008 c 0
 212 965 246 936 284 936 c 0
 327 936 356 970 356 1008 c 0
 356 1051 322 1080 284 1080 c 0xf6
284 1212 m 0
 450 1212 524 1085 524 963 c 2xf6
 524 154 l 1
 1032 154 l 1
 1032 1638 l 1
 1214 1638 l 1
 1214 0 l 1
 338 0 l 1
 338 807 l 1xfa
 337 805 319 804 284 804 c 0
 170 804 80 895 80 1008 c 0
 80 1122 171 1212 284 1212 c 0
EndSplineSet
EndChar
StartChar: uni0E1C
Encoding: 251 3612 151
Width: 1350
Flags: W
HStem: 0 21G<176 377.886 945.151 1160> 804 132<366.67 482.177> 1080 132<350.446 482.364>
VStem: 176 187<299 807> 176 168<941.203 1069.96> 488 132<941.636 1074.18> 977 183<303 1202>
Fore
416 936 m 0xee
 459 936 488 970 488 1008 c 0
 488 1051 454 1080 416 1080 c 0
 373 1080 344 1046 344 1008 c 0
 344 965 378 936 416 936 c 0xee
620 1008 m 0
 620 894 529 804 416 804 c 0
 382 804 364 805 363 807 c 1
 363 299 l 1xf6
 581 704 l 1
 755 704 l 1
 977 303 l 1
 977 1202 l 1
 1160 1202 l 1
 1160 0 l 1
 956 0 l 1
 662 542 l 1
 367 0 l 1
 176 0 l 1
 176 963 l 2
 176 1086 251 1212 416 1212 c 0
 530 1212 620 1121 620 1008 c 0
EndSplineSet
EndChar
StartChar: uni0E1D
Encoding: 252 3613 152
Width: 1350
Flags: W
HStem: 0 21G<176 377.886 945.151 1160> 804 132<366.67 482.177> 1080 132<350.446 482.364>
VStem: 176 187<299 807> 176 168<941.203 1069.96> 488 132<941.636 1074.18> 977 183<303 1638>
AnchorPoint: "AboveBase" 900 1340 basechar 0
Fore
416 936 m 0xee
 459 936 488 970 488 1008 c 0
 488 1051 454 1080 416 1080 c 0
 373 1080 344 1046 344 1008 c 0
 344 965 378 936 416 936 c 0xee
620 1008 m 0
 620 894 529 804 416 804 c 0
 382 804 364 805 363 807 c 1
 363 299 l 1xf6
 581 704 l 1
 755 704 l 1
 977 303 l 1
 977 1638 l 1
 1160 1638 l 1
 1160 0 l 1
 956 0 l 1
 662 542 l 1
 367 0 l 1
 176 0 l 1
 176 963 l 2
 176 1086 251 1212 416 1212 c 0
 530 1212 620 1121 620 1008 c 0
EndSplineSet
EndChar
StartChar: uni0E1E
Encoding: 253 3614 153
Width: 1460
Flags: W
HStem: 0 21G<328 526.832 1049.3 1260> 804 132<207.636 323.814> 1080 132<207.823 339.236>
VStem: 70 132<941.823 1074.36> 328 186<395.309 807> 346 168<941.217 1070.85> 1077 183<376 1202>
Fore
274 1080 m 0xf6
 231 1080 202 1046 202 1008 c 0
 202 965 236 936 274 936 c 0
 317 936 346 970 346 1008 c 0
 346 1051 312 1080 274 1080 c 0xf6
70 1008 m 0
 70 1122 161 1212 274 1212 c 0
 437 1212 514 1088 514 963 c 2
 514 372 l 1xf6
 708 1108 l 1
 884 1108 l 1
 1077 376 l 1
 1077 1202 l 1
 1260 1202 l 1
 1260 0 l 1
 1055 0 l 1
 791 926 l 1
 521 0 l 1
 328 0 l 1
 328 807 l 1xfa
 327 805 309 804 274 804 c 0
 160 804 70 895 70 1008 c 0
EndSplineSet
EndChar
StartChar: uni0E1F
Encoding: 254 3615 154
Width: 1460
Flags: W
HStem: 0 21G<328 526.832 1049.3 1260> 804 132<207.636 323.814> 1080 132<207.823 339.236>
VStem: 70 132<941.823 1074.36> 328 186<395.309 807> 346 168<941.217 1070.85> 1077 183<376 1638>
AnchorPoint: "AboveBase" 1016 1340 basechar 0
Fore
274 1080 m 0xf6
 231 1080 202 1046 202 1008 c 0
 202 965 236 936 274 936 c 0
 317 936 346 970 346 1008 c 0
 346 1051 312 1080 274 1080 c 0xf6
70 1008 m 0
 70 1122 161 1212 274 1212 c 0
 437 1212 514 1088 514 963 c 2
 514 372 l 1xf6
 708 1108 l 1
 884 1108 l 1
 1077 376 l 1
 1077 1638 l 1
 1260 1638 l 1
 1260 0 l 1
 1055 0 l 1
 791 926 l 1
 521 0 l 1
 328 0 l 1
 328 807 l 1xfa
 327 805 309 804 274 804 c 0
 160 804 70 895 70 1008 c 0
EndSplineSet
EndChar
StartChar: uni0E20
Encoding: 255 3616 155
Width: 1440
Flags: W
HStem: -10 132<206.636 338.399> 266 132<206.823 322.447> 1072 161<531.381 939.109>
VStem: 69 132<127.823 260.364> 326 187<394 630.392> 345 168<132.035 260.797> 1061 185<0 941.871>
Fore
273 266 m 0xf6
 230 266 201 232 201 194 c 0
 201 151 235 122 273 122 c 0
 316 122 345 156 345 194 c 0
 345 237 311 266 273 266 c 0xf6
1061 740 m 2
 1061 961 968 1072 752 1072 c 0
 608 1072 476 1015 390 950 c 1
 641 836 l 1
 641 688 l 1
 581 661 513 615 513 506 c 2xfa
 513 239 l 1xf6
 513 116 437 -10 273 -10 c 0
 159 -10 69 81 69 194 c 0
 69 308 160 398 273 398 c 0
 308 398 325 397 326 394 c 1
 326 506 l 2xfa
 326 579 349 721 472 760 c 1
 234 862 l 1
 234 1056 l 17
 369 1168 563 1233 746 1233 c 0
 969 1233 1246 1138 1246 756 c 2
 1246 0 l 1
 1061 0 l 1
 1061 740 l 2
EndSplineSet
EndChar
StartChar: uni0E21
Encoding: 256 3617 156
Width: 1370
Flags: W
HStem: -20 152<240.473 371.368> 276 142<242.108 373.852> 804 132<258.636 374.814> 1080 132<258.823 390.703>
VStem: 103 132<138.392 270.717> 121 132<941.823 1074.36> 379 186<138.113 211.895 417 807> 397 168<941.217 1074.8> 1008 184<209 1202>
Fore
325 1212 m 0xf680
 491 1212 565 1085 565 963 c 2
 565 389 l 1
 713 360 861 300 1008 209 c 1
 1008 1202 l 1
 1192 1202 l 1
 1192 0 l 1
 1002 0 l 1
 870 103 724 173 565 212 c 1
 565 111 512 -20 307 -20 c 0
 204 -20 103 55 103 204 c 0xf980
 103 345 223 418 307 418 c 8
 355 418 379 418 379 417 c 1
 379 807 l 1
 378 805 360 804 325 804 c 0
 211 804 121 895 121 1008 c 0
 121 1122 212 1212 325 1212 c 0xf680
307 276 m 0
 264 276 235 242 235 204 c 0
 235 161 269 132 307 132 c 0
 350 132 379 166 379 204 c 0xfa80
 379 247 345 276 307 276 c 0
325 1080 m 0
 282 1080 253 1046 253 1008 c 0
 253 965 287 936 325 936 c 0
 368 936 397 970 397 1008 c 0xf580
 397 1051 363 1080 325 1080 c 0
EndSplineSet
EndChar
StartChar: uni0E22
Encoding: 257 3618 157
Width: 1290
Flags: W
HStem: 0 154<360 924> 509 185<446.616 653> 804 132<379.907 500.177> 1080 132<370.562 500.364>
VStem: 145 217<838.968 1073.56> 162 198<154 430.439> 506 132<941.636 1074.18> 924 184<154 1202>
Fore
434 936 m 0xfb
 477 936 506 970 506 1008 c 0
 506 1051 472 1080 434 1080 c 0
 391 1080 362 1046 362 1008 c 0
 362 965 396 936 434 936 c 0xfb
638 1008 m 0
 638 894 547 804 434 804 c 0
 396 804 357 819 316 848 c 1
 326 805 375 694 653 694 c 9
 653 509 l 17
 443 509 360 427 360 302 c 2
 360 154 l 1
 924 154 l 1
 924 1202 l 1
 1108 1202 l 1
 1108 0 l 1
 162 0 l 1
 162 304 l 2xf7
 162 433 211 553 384 606 c 1
 282 639 145 731 145 920 c 0
 145 1097 268 1212 434 1212 c 0
 548 1212 638 1121 638 1008 c 0
EndSplineSet
EndChar
StartChar: uni0E23
Encoding: 258 3619 158
Width: 1150
Flags: W
HStem: -20 132<589.636 721.087> 256 132<589.823 705.776> 1063 159<418.598 824.79>
VStem: 452 132<117.823 250.364> 710 186<385 649.567> 728 168<121.155 250.797>
Back
603.731 184.059 m 128
 603.731 164.059 610.731 147.059 624.731 133.059 c 128
 638.731 119.059 655.731 112.059 675.731 112.059 c 128
 695.731 112.059 712.731 119.059 726.731 133.059 c 128
 740.731 147.059 747.731 164.059 747.731 184.059 c 128
 747.731 204.059 740.731 221.059 726.731 235.059 c 128
 712.731 249.059 695.731 256.059 675.731 256.059 c 128
 655.731 256.059 638.731 249.059 624.731 235.059 c 128
 610.731 221.059 603.731 204.059 603.731 184.059 c 128
916 229 m 2
 916 160.596 894.74 102.005 852.219 53.2266 c 128
 809.698 4.44793 750.869 -19.9414 675.731 -19.9414 c 0
 619.731 -19.9414 571.731 0.0585995 531.731 40.0586 c 128
 491.731 80.0589 471.731 128.059 471.731 184.059 c 128
 471.731 240.059 491.731 288.059 531.731 328.059 c 128
 571.731 368.059 619.731 388.059 675.731 388.059 c 0
 710.278 388.059 728.367 387.039 730 385 c 1
 730 585.917 l 2
 730 696.639 644 752 472 752 c 10
 146 752 l 17
 146 890.821 188.024 1003.86 272.072 1091.12 c 128
 356.12 1178.37 475.763 1222 631 1222 c 0
 724.333 1222 802.667 1215.5 866 1202.5 c 128
 929.333 1189.5 994.667 1170 1062 1144 c 1
 1062 974 l 1
 1006 1004.67 947.667 1027.67 887 1043 c 128
 826.333 1058.33 747.333 1066 650 1066 c 0
 572.944 1066 505.946 1046.67 449.007 1008 c 128
 392.068 969.333 359.066 932.667 350 898 c 9
 542 898 l 18
 791.333 898 916 808 916 628 c 2
 916 229 l 2
EndSplineSet
Fore
656 256 m 0xf4
 613 256 584 222 584 184 c 0
 584 141 618 112 656 112 c 0
 699 112 728 146 728 184 c 0
 728 227 694 256 656 256 c 0xf4
124 1046 m 17
 170 1083 335 1222 652 1222 c 0
 913 1222 1043 1084 1087 999 c 9
 935 887 l 17
 909 995 784 1063 632 1063 c 0
 520 1063 393 1025 281 940 c 9
 632 858 l 18
 808 817 896 727 896 588 c 2xf8
 896 229 l 2xf4
 896 104 818 -20 656 -20 c 0
 542 -20 452 71 452 184 c 0
 452 298 543 388 656 388 c 0
 691 388 709 387 710 385 c 1
 710 546 l 2xf8
 710 627 661 679 562 702 c 10
 124 802 l 17
 124 1046 l 17
EndSplineSet
EndChar
StartChar: uni0E24
Encoding: 259 3620 159
Width: 1340
Flags: W
HStem: -10 132<376.297 508.177> 266 132<391.592 508.364> 1072 160<434.043 842.472>
VStem: 202 185<395 602.267> 202 168<127.203 260.783> 514 132<127.636 260.177> 967 183<-410 941.407>
Fore
442 122 m 0xee
 485 122 514 156 514 194 c 0
 514 237 480 266 442 266 c 0
 399 266 370 232 370 194 c 0
 370 151 404 122 442 122 c 0xee
666 1232 m 0
 875 1232 1150 1137 1150 756 c 2
 1150 -410 l 17
 967 -410 l 1
 967 740 l 2
 967 909 912 1072 666 1072 c 0
 518 1072 382 1017 294 950 c 1
 545 836 l 1
 545 688 l 1
 479 663 387 597 387 464 c 2
 387 395 l 1xf6
 388 397 407 398 442 398 c 0
 556 398 646 307 646 194 c 0
 646 80 555 -10 442 -10 c 0
 276 -10 202 117 202 239 c 2xee
 202 465 l 2xf6
 202 566 259 702 376 760 c 1
 138 862 l 1
 138 1056 l 17
 185 1095 349 1232 666 1232 c 0
EndSplineSet
EndChar
StartChar: uni0E25
Encoding: 260 3621 160
Width: 1290
Flags: W
HStem: -10 128<357.782 494.224> 267 129<374.919 495.508> 705 163<413.617 622.095> 1072 160<307.985 779.549>
VStem: 181 169<126.963 290> 181 186<384 655.225> 502 133<126.888 258.475> 930 183<406 914.375>
Fore
181 486 m 2xf7
 181 632 276 868 517 868 c 0
 611 868 708 828 771 742 c 0
 832 659 885 547 930 406 c 1
 930 740 l 2
 930 944 802 1072 610 1072 c 0
 427 1072 273 1025 152 972 c 9
 152 1142 l 17
 192 1161 335 1232 610 1232 c 0
 844 1232 1113 1137 1113 756 c 2
 1113 0 l 1
 909 1 l 17
 771 488 671 705 513 705 c 0
 427 705 367 645 367 477 c 2
 367 384 l 1xf7
 383 392 405 396 429 396 c 0
 500 396 635 356 635 196 c 0
 635 35 498 -10 415 -10 c 0
 228 -10 181 135 181 290 c 2xfb
 181 486 l 2xf7
502 194 m 0
 502 233 470 267 427 267 c 24
 383 267 350 234 350 194 c 0xfb
 350 150 386 118 426 118 c 0
 470 118 502 154 502 194 c 0
EndSplineSet
EndChar
StartChar: uni0E26
Encoding: 261 3622 161
Width: 1420
Flags: W
HStem: -10 132<206.636 338.243> 266 132<206.823 322.447> 1072 161<531.381 939.109>
VStem: 69 132<127.823 260.364> 326 187<394 630.392> 345 168<131.595 260.797> 1061 185<-409 941.871>
Fore
273 266 m 0xf6
 230 266 201 232 201 194 c 0
 201 151 235 122 273 122 c 0
 316 122 345 156 345 194 c 0
 345 237 311 266 273 266 c 0xf6
1061 740 m 2
 1061 961 968 1072 752 1072 c 0
 608 1072 476 1015 390 950 c 1
 641 836 l 1
 641 688 l 1
 581 661 513 615 513 506 c 2xfa
 513 239 l 2xf6
 513 115 436 -10 273 -10 c 0
 159 -10 69 81 69 194 c 0
 69 308 160 398 273 398 c 0
 308 398 325 397 326 394 c 1
 326 506 l 2xfa
 326 579 349 721 472 760 c 1
 234 862 l 1
 234 1056 l 17
 369 1168 563 1233 746 1233 c 0
 969 1233 1246 1138 1246 756 c 2
 1246 -409 l 1
 1061 -409 l 1
 1061 740 l 2
EndSplineSet
EndChar
StartChar: uni0E27
Encoding: 262 3623 162
Width: 1140
Flags: W
HStem: -20 132<637.636 769.399> 256 132<637.823 754.057> 1066 156<187.42 636.986>
VStem: 500 132<117.823 250.364> 758 186<385 951.02> 776 168<122.035 250.797>
Fore
704 256 m 0xf4
 661 256 632 222 632 184 c 0
 632 141 666 112 704 112 c 0
 747 112 776 146 776 184 c 0
 776 227 742 256 704 256 c 0xf4
500 184 m 0
 500 298 591 388 704 388 c 0
 738 388 756 387 758 385 c 1
 758 796 l 2
 758 979 634 1066 442 1066 c 0
 333 1066 207 1043 80 974 c 1
 80 1144 l 1
 169 1178 309 1222 461 1222 c 0
 847 1222 944 983 944 714 c 2xf8
 944 229 l 2
 944 106 868 -20 704 -20 c 0
 590 -20 500 71 500 184 c 0
EndSplineSet
EndChar
StartChar: uni0E28
Encoding: 263 3624 163
Width: 1350
Flags: W
HStem: 0 21G<193.024 381 953 1137> 451 132<554.307 687.177> 727 132<554.714 687.364> 1064 160<446.896 827.827>
VStem: 123 178<708.46 927.812> 693 132<588.636 721.177> 953 184<0 821.5>
Fore
636 1224 m 0
 728 1224 860 1205 959 1128 c 1
 1008 1177 1055 1240 1102 1315 c 9
 1212 1150 l 17
 1169 1094 1122 1044 1072 1001 c 1
 1115 928 1137 822 1137 681 c 2
 1137 0 l 1
 953 0 l 1
 953 743 l 2
 953 798 945 848 930 891 c 1
 898 868 858 843 810 818 c 9
 735 922 l 17
 773 949 808 979 841 1012 c 1
 790 1047 723 1064 640 1064 c 0
 406 1064 301 931 301 766 c 0
 301 757 301 747 302 737 c 2
 324 428 l 1
 324 484 385 709 468 790 c 0
 514 836 565 859 621 859 c 0
 735 859 825 768 825 655 c 0
 825 541 734 451 621 451 c 0
 565 451 517 471 477 511 c 1
 417 386 384 215 378 0 c 1
 195 0 l 1
 128 678 l 2
 125 709 123 738 123 766 c 0
 123 1163.86 485.545 1224 636 1224 c 0
621 727 m 0
 578 727 549 693 549 655 c 0
 549 612 583 583 621 583 c 0
 664 583 693 617 693 655 c 0
 693 698 659 727 621 727 c 0
EndSplineSet
EndChar
StartChar: uni0E29
Encoding: 264 3625 164
Width: 1420
Flags: W
HStem: 0 154<526 1034> 416 136<699.21 831.156> 696 114<698.807 831.688> 804 132<219.636 335.814> 1080 132<219.823 351.703>
VStem: 82 132<941.823 1074.36> 340 186<154 807> 358 168<941.217 1074.8> 571 122<557.816 690.322> 837 122<568.333 690.064> 1034 182<154 467 693 1202>
Back
678 634 m 132
 678 614 685 597 699 583 c 132
 713 569 730 562 750 562 c 132
 770 562 787 569 801 583 c 132
 815 597 822 614 822 634 c 132
 822 654 815 671 801 685 c 132
 787 699 770 706 750 706 c 132
 730 706 713 699 699 685 c 132
 685 671 678 654 678 634 c 132
214 1008 m 128
 214 988 221 971 235 957 c 128
 249 943 266 936 286 936 c 128
 306 936 323 943 337 957 c 128
 351 971 358 988 358 1008 c 128
 358 1028 351 1045 337 1059 c 128
 323 1073 306 1080 286 1080 c 128
 266 1080 249 1073 235 1059 c 128
 221 1045 214 1028 214 1008 c 128
932.973 567.945 m 5
 1019 607 l 13
 1019 1202 l 1
 1201 1202 l 1
 1201 703 l 29
 1297 778 l 21
 1324 616 l 5
 1201 545 l 13
 1201 0 l 1
 340 0 l 1
 340 807 l 1
 338.667 805 320.667 804 286 804 c 0
 230 804 182 824 142 864 c 128
 102 904 82 952 82 1008 c 128
 82 1064 102 1112 142 1152 c 128
 182 1192 230 1212 286 1212 c 0
 361.333 1212 420.167 1187.67 462.5 1139 c 128
 504.833 1090.33 526 1031.67 526 963 c 2
 526 154 l 1
 1019 154 l 1
 1019 477 l 21
 907.027 443 824.694 426 772 426 c 4
 705.297 426 652.498 445.182 613.603 483.547 c 132
 574.708 521.912 555.619 571.158 556.334 631.283 c 4
 556.993 686.621 577.122 732.313 616.722 768.359 c 132
 656.322 804.406 705.931 821.522 765.548 819.707 c 4
 802.119 818.594 840.739 803.835 881.408 775.431 c 132
 922.078 747.027 942.8 701.193 943.573 637.928 c 4
 944.191 609.976 940.658 586.648 932.973 567.945 c 5
EndSplineSet
Fore
286 1080 m 0xdde0
 243 1080 214 1046 214 1008 c 0
 214 965 248 936 286 936 c 0
 329 936 358 970 358 1008 c 0
 358 1051 324 1080 286 1080 c 0xdde0
772 810 m 0xeee0
 826 810 959 776 959 628 c 0
 959 600 956 577 948 558 c 1
 1034 597 l 9
 1034 1202 l 1
 1216 1202 l 1
 1216 693 l 25
 1312 768 l 17
 1339 606 l 1
 1216 535 l 9
 1216 0 l 1
 340 0 l 1
 340 807 l 1xeee0
 339 805 321 804 286 804 c 0
 172 804 82 895 82 1008 c 0
 82 1122 173 1212 286 1212 c 0
 452 1212 526 1085 526 963 c 2xdde0
 526 154 l 1
 1034 154 l 1
 1034 467 l 17
 922 433 839 416 784 416 c 0
 640 416 571 515 571 613 c 0
 571 712 640 810 772 810 c 0xeee0
765 696 m 0
 722 696 693 662 693 624 c 0
 693 581 727 552 765 552 c 0
 808 552 837 586 837 624 c 0
 837 667 803 696 765 696 c 0
EndSplineSet
EndChar
StartChar: uni0E2A
Encoding: 265 3626 165
Width: 1290
Flags: W
HStem: -10 128<357.782 494.224> 267 129<374.932 495.491> 705 163<414.151 623.831> 1072 160<307.985 783.186>
VStem: 181 169<127.402 290> 181 186<384 657.677> 502 133<126.888 258.475> 930 183<406 813.389>
Back
372.5 1602.5 m 21
 499.167 1695.83 621.667 1826.67 740 1995 c 13
 850 1830 l 21
 759.601 1708.33 625.434 1597.5 447.5 1497.5 c 13
 372.5 1602.5 l 21
702.5 1532.5 m 17
 829.167 1625.83 951.667 1756.67 1070 1925 c 9
 1135 1735 l 17
 1036.78 1613.33 917.615 1510.83 777.5 1427.5 c 9
 702.5 1532.5 l 17
108.735 1077.92 m 1
 129.735 1094.26 l 2
 201.872 1141.02 271.331 1174.32 338.114 1194.16 c 128
 404.897 1214 488.193 1223.92 588 1223.92 c 0
 712.479 1223.92 815.057 1195.61 895.735 1139 c 1
 987.735 1285.92 l 1
 1129.74 1179.92 l 1
 1005.82 1019.92 l 1
 1050.08 945.255 1072.14 854.588 1072 747.918 c 2
 1072.26 0 l 1
 869.266 -0.000976562 l 1
 845.434 77.9342 845.434 77.9342 826.993 134.967 c 128
 814.699 172.989 799.388 217.391 781.059 268.174 c 128
 762.73 318.957 745.559 362.436 729.544 398.613 c 128
 713.529 434.79 695.007 472.048 673.977 510.386 c 128
 652.947 548.723 632.357 579.754 612.208 603.478 c 128
 592.059 627.202 569.913 646.706 545.768 661.991 c 128
 521.623 677.276 497.278 684.918 472.735 684.918 c 0
 447.726 684.918 425.355 677.792 405.621 663.539 c 128
 385.887 649.286 370.354 630.68 359.023 607.719 c 128
 347.692 584.758 339.124 560.396 333.318 534.633 c 128
 327.513 508.87 324.583 482.965 324.529 456.918 c 2
 323 372 l 1
 341 380.667 364 384.667 392 384 c 0
 446.667 382 493.667 364 533 330 c 128
 572.333 296 592.333 249.333 593 190 c 0
 594.333 122 573.667 69.6667 531 33 c 128
 488.333 -3.66667 432.333 -22.3333 363 -23 c 0
 295.677 -23.5064 241.304 1.94313 199.881 53.3486 c 128
 158.457 104.754 138.006 179.62 138.529 277.947 c 2
 138.735 495.918 l 2
 138.677 521.337 142.366 548.899 149.803 578.604 c 128
 157.239 608.309 169.61 639.183 186.915 671.224 c 128
 204.22 703.266 225.154 732.2 249.717 758.026 c 128
 274.28 783.852 305.632 805.124 343.775 821.842 c 128
 381.918 838.559 423.572 846.918 468.735 846.918 c 0
 509.551 846.918 548.72 838.768 586.242 822.469 c 128
 623.764 806.17 656.2 785.185 683.549 759.515 c 128
 710.898 733.846 736.364 705.118 759.949 673.333 c 128
 783.534 641.548 803.038 610.279 818.459 579.524 c 128
 833.88 548.769 847.102 520.042 858.125 493.342 c 128
 869.147 466.641 877.093 445.657 881.962 430.388 c 128
 886.831 415.119 889.265 406.97 889.265 405.939 c 1
 889 731.918 l 2
 889 793.815 881.789 846.481 867.367 889.918 c 1
 700.735 786.918 l 1
 650.735 879.311 l 1
 788.234 1005.92 l 1
 742.019 1041.16 675.275 1060.49 588 1063.92 c 0
 522.757 1066.48 456.591 1055.95 389.503 1032.34 c 128
 322.415 1008.73 264.616 978.528 216.107 941.729 c 2
 147.735 882.918 l 1
 108.735 1077.92 l 1
385 255 m 152
 364.333 255 346.333 248 331 234 c 128
 315.667 220 308 202.667 308 182 c 128
 308 161.333 315.5 143.5 330.5 128.5 c 128
 345.5 113.5 363.333 106 384 106 c 128
 404.667 106 422.5 113.5 437.5 128.5 c 128
 452.5 143.5 460 161.333 460 182 c 0
 460 202 452.667 219.167 438 233.5 c 128
 423.333 247.833 405.667 255 385 255 c 152
EndSplineSet
Fore
181 486 m 2xf7
 181 641 281 868 516 868 c 0
 611 868 707 828 771 742 c 0
 832 659 885 547 930 406 c 1
 930 740 l 2
 930 795 921 844 904 887 c 1
 790 818 l 9
 715 922 l 17
 749 947 783 975 816 1005 c 1
 762 1049 693 1072 610 1072 c 0
 427 1072 273 1025 152 972 c 9
 152 1142 l 17
 192 1162 335 1232 610 1232 c 0
 749 1232 861 1201 946 1139 c 1
 990 1192 1035 1251 1082 1315 c 9
 1192 1150 l 17
 1155 1100 1111 1052 1060 1006 c 1
 1095 937 1113 854 1113 756 c 2
 1113 0 l 1
 909 0 l 17
 769 492 671 705 513 705 c 0
 427 705 367 646 367 477 c 2
 367 384 l 1xf7
 383 392 405 396 430 396 c 0
 499 396 635 356 635 196 c 0
 635 35 498 -10 415 -10 c 0
 228 -10 181 136 181 290 c 2xfb
 181 486 l 2xf7
502 194 m 0
 502 233 470 267 427 267 c 24
 383 267 350 234 350 194 c 0xfb
 350 150 386 118 426 118 c 0
 470 118 502 154 502 194 c 0
EndSplineSet
EndChar
StartChar: uni0E2B
Encoding: 266 3627 166
Width: 1410
Flags: W
HStem: 0 21G<344 554 1042 1225> 804 132<223.636 339.814> 1080 132<223.823 356.015 948.823 1081.36>
VStem: 86 132<941.823 1074.36> 344 186<454 807> 362 168<941.217 1073.04> 811 132<941.3 1074.36> 1042 183<0 729.423> 1087 132<941.198 1074.18>
Fore
1015 1080 m 0xf280
 972 1080 943 1046 943 1008 c 0
 943 965 977 936 1015 936 c 0
 1058 936 1087 970 1087 1008 c 0
 1087 1051 1053 1080 1015 1080 c 0xf280
290 1080 m 0
 247 1080 218 1046 218 1008 c 0
 218 965 252 936 290 936 c 0
 333 936 362 970 362 1008 c 0xf6
 362 1051 328 1080 290 1080 c 0
1015 1212 m 0
 1129 1212 1219 1121 1219 1008 c 0xfa80
 1219 939 1186 882 1123 839 c 1
 1191 802 1225 742 1225 658 c 2
 1225 0 l 1
 1042 0 l 1
 1042 631 l 2
 1042 704 1011 740 948 740 c 0
 912 740 874 713 834 658 c 0
 676 442 582 240 526 0 c 1
 344 0 l 25
 344 807 l 17xfb
 343 805 325 804 290 804 c 0
 176 804 86 895 86 1008 c 0
 86 1122 177 1212 290 1212 c 0
 458 1212 530 1081 530 963 c 10xf6
 530 454 l 1xfa
 601 567 771 797 871 864 c 1
 831 904 811 952 811 1008 c 0
 811 1122 902 1212 1015 1212 c 0
EndSplineSet
EndChar
StartChar: uni0E2C
Encoding: 267 3628 167
Width: 1480
Flags: W
HStem: 0 21G<328 527.538 1048.61 1260> 804 132<207.636 323.814> 998 132<988.636 1076.26> 1080 132<207.823 339.703> 1274 132<988.823 1121.93>
VStem: 70 132<941.823 1074.36> 328 186<391.509 807> 346 168<941.217 1074.8> 851 132<1135.82 1268.36> 1077 183<376 1000>
AnchorPoint: "AboveBase" 741 1262 basechar 0
Fore
274 1212 m 0xdec0
 440 1212 514 1085 514 963 c 2
 514 372 l 1
 708 988 l 1
 884 988 l 1
 1077 376 l 1
 1077 1000 l 17
 1070 999 1062 998 1055 998 c 0xedc0
 941 998 851 1089 851 1202 c 0
 851 1316 942 1406 1055 1406 c 0
 1166 1406 1238 1323 1254 1249 c 9
 1362 1300 l 1
 1431 1156 l 1
 1260 1074 l 25
 1260 0 l 1
 1055 0 l 1
 791 826 l 1
 521 0 l 1
 328 0 l 1
 328 807 l 1
 327 805 309 804 274 804 c 0
 160 804 70 895 70 1008 c 0
 70 1122 161 1212 274 1212 c 0xdec0
1055 1274 m 0
 1012 1274 983 1240 983 1202 c 0
 983 1159 1017 1130 1055 1130 c 0
 1098 1130 1127 1164 1127 1202 c 0
 1127 1245 1093 1274 1055 1274 c 0
274 1080 m 0xddc0
 231 1080 202 1046 202 1008 c 0
 202 965 236 936 274 936 c 0
 317 936 346 970 346 1008 c 0
 346 1051 312 1080 274 1080 c 0xddc0
EndSplineSet
EndChar
StartChar: uni0E2D
Encoding: 268 3629 168
Width: 1220
Flags: W
HStem: 0 154<369 861> 449 132<372.67 488.177> 725 132<356.446 488.364> 1066 156<290.42 740.201>
VStem: 182 187<154 452> 182 168<586.203 714.965> 494 132<586.636 719.177> 861 186<154 950.77>
Fore
422 581 m 0xf7
 465 581 494 615 494 653 c 0
 494 696 460 725 422 725 c 0
 379 725 350 691 350 653 c 0
 350 610 384 581 422 581 c 0xf7
626 653 m 0
 626 539 535 449 422 449 c 0
 388 449 370 450 369 452 c 1
 369 154 l 1xfb
 861 154 l 1
 861 795 l 2
 861 979 738 1066 545 1066 c 0
 436 1066 310 1043 183 974 c 1
 183 1144 l 1
 272 1178 412 1222 564 1222 c 0
 950 1222 1047 983 1047 714 c 2
 1047 0 l 1
 182 0 l 1
 182 608 l 2
 182 731 257 857 422 857 c 0
 536 857 626 766 626 653 c 0
EndSplineSet
EndChar
StartChar: uni0E2E
Encoding: 269 3630 169
Width: 1220
Flags: W
HStem: 0 154<336 838> 319 132<339.67 455.177> 595 132<323.446 455.364> 781 147<340.776 717.87> 1092 141<329.14 694.147>
VStem: 141 172<963.901 1064.18> 149 187<154 322> 149 168<456.203 589.783> 461 132<456.636 589.177> 838 179<154 817.508>
Fore
141 1017 m 0xfcc0
 141 1162 341 1233 527 1233 c 0
 657 1233 796 1198 890 1105 c 9
 1017 1240 l 17
 1083 1067 l 1
 978 972 l 1
 1004 909 1017 837 1017 756 c 2
 1017 0 l 1
 149 0 l 1
 149 478 l 2xf9c0
 149 600 224 727 389 727 c 0
 503 727 593 636 593 523 c 0
 593 409 502 319 389 319 c 0
 355 319 337 320 336 322 c 9
 336 154 l 17xfac0
 838 154 l 1
 838 740 l 2
 838 784 832 829 820 876 c 1
 728 810 610 781 500 781 c 0
 256 781 141 910 141 1017 c 0xfcc0
493 1092 m 0
 408 1092 313 1064 313 1021 c 0xfcc0
 313 970 397 928 511 928 c 0
 608 928 731 963 758 1002 c 1
 685 1072 593 1092 493 1092 c 0
389 451 m 0
 432 451 461 485 461 523 c 0
 461 566 427 595 389 595 c 0
 346 595 317 561 317 523 c 0xf9c0
 317 480 351 451 389 451 c 0
EndSplineSet
EndChar
StartChar: uni0E2F
Encoding: 270 3631 170
Width: 1200
Flags: W
HStem: 0 21G<810 993> 736 190<239.154 514.09> 1070 132<238.823 371.364>
VStem: 101 132<933.017 1064.36> 377 132<941.7 1064.18> 810 183<0 909>
Fore
305 1202 m 0
 419 1202 509 1111 509 998 c 0
 509 957 498 921 477 889 c 1
 644 924 748 1055 816 1202 c 1
 993 1026 l 1
 993 0 l 1
 810 0 l 1
 810 909 l 17
 717 803 584 736 396 736 c 0
 184 736 101 893 101 998 c 0
 101 1112 192 1202 305 1202 c 0
305 1070 m 0
 262 1070 233 1036 233 998 c 0
 233 955 267 926 305 926 c 0
 348 926 377 960 377 998 c 0
 377 1041 343 1070 305 1070 c 0
EndSplineSet
EndChar
StartChar: uni0E30
Encoding: 271 3632 171
Width: 1040
Flags: W
HStem: 12 197<209.932 508.432> 352 113<202.426 341.194> 679 197<209.297 510.303> 1019 113<202.66 341.729>
VStem: 80 116<215.046 343.953 882.247 1012.15> 348 120<214.923 345.776 881.923 1011.91>
Fore
348 946 m 0
 348 982 323 1019 273 1019 c 0
 229 1019 196 986 196 946 c 0
 196 900 235 876 273 876 c 0
 324 876 348 911 348 946 c 0
888 894 m 1
 842 842 633 679 403 679 c 0
 314 679 247 696 203 728 c 0
 131 782 80 830 80 953 c 0
 80 1045 183 1132 280 1132 c 0
 385 1132 468 1045 468 941 c 0
 468 892 439 842 403 817 c 1
 518 827 721 936 830 1098 c 1
 888 894 l 1
348 279 m 0
 348 315 321 352 271 352 c 0
 227 352 195 319 195 278 c 0
 195 233 234 209 272 209 c 0
 323 209 348 244 348 279 c 0
278 465 m 0
 375 465 467 384 467 274 c 0
 467 225 438 175 402 150 c 1
 592 180 729 288 829 431 c 1
 887 227 l 1
 824 156 613 12 403 12 c 0
 313 12 246 28 202 62 c 0
 144 104 79 152 79 287 c 0
 79 381 175 465 278 465 c 0
EndSplineSet
EndChar
StartChar: uni0E31
Encoding: 272 3633 172
Width: 0
Flags: W
HStem: 1362 130<-502 -392.561> 1678 104<-699.391 -564.445>
VStem: -810 106<1550.54 1672.31> -560 108<1550.16 1673.39>
AnchorPoint: "AboveMark" -321.5 1958 basemark 0
AnchorPoint: "AboveBase" -252 1340 mark 0
Fore
-704 1612 m 0
 -704 1575 -674 1544 -634 1544 c 24
 -593 1544 -560 1572 -560 1609 c 0
 -560 1649 -593 1678 -630 1678 c 0
 -671 1678 -704 1650 -704 1612 c 0
-502 1492 m 1
 -371 1492 -184 1539 12 1794 c 1
 66 1592 l 1
 -176 1365 -416 1362 -492 1362 c 0
 -670 1362 -810 1439 -810 1603 c 0
 -810 1721 -713 1782 -624 1782 c 0
 -528 1782 -452 1710 -452 1606 c 0
 -452 1553 -468 1515 -502 1492 c 1
EndSplineSet
EndChar
StartChar: uni0E32
Encoding: 273 3634 173
Width: 1130
Flags: W
HStem: 0 21G<758 944> 1066 156<187.738 639.482>
VStem: 758 186<0 946.027>
Fore
442 1066 m 0
 298 1066 177 1027 80 974 c 1
 80 1144 l 1
 187 1185 318 1222 461 1222 c 0
 791 1222 944 1048 944 714 c 2
 944 0 l 25
 758 0 l 1
 758 796 l 2
 758 979 634 1066 442 1066 c 0
EndSplineSet
EndChar
StartChar: uni0E34
Encoding: 275 3636 175
Width: 0
Flags: W
HStem: 1441 131<-942.169 -586.375> 1707 126<-853.394 -527.676>
VStem: -1122 948<1508.21 1509 1542 1593>
AnchorPoint: "AboveMark" -275 1958 basemark 0
AnchorPoint: "AboveBase" -177 1340 mark 0
Fore
-333 1509 m 1
 -387 1588 -550 1707 -702 1707 c 0
 -816 1707 -897 1643 -945 1572 c 1
 -675 1572 l 2
 -618 1572 -553 1563 -503 1552 c 2
 -428 1534 l 2
 -356 1518 -337 1509 -333 1509 c 1
-1122 1593 m 1
 -1043 1740 -852 1833 -693 1833 c 0
 -462 1833 -280 1681 -174 1542 c 1
 -210 1344 l 1
 -328 1370 -479 1440 -684 1440 c 0
 -777 1440 -856 1441 -920 1441 c 0
 -1017 1441 -1083 1439 -1122 1432 c 1
 -1122 1593 l 1
EndSplineSet
EndChar
StartChar: uni0E35
Encoding: 276 3637 176
Width: 0
Flags: W
HStem: 1434.44 131.56<-955.835 -598.375> 1701 126<-865.394 -539.016>
VStem: -402 171<1733 1857>
AnchorPoint: "AboveBase" -189 1340 mark 0
AnchorPoint: "AboveMark" -316 1958 basemark 0
Fore
-345 1503 m 1
 -399 1582 -562 1701 -714 1701 c 0
 -828 1701 -909 1637 -957 1566 c 1
 -687 1566 l 2
 -630 1566 -565 1557 -515 1546 c 2
 -440 1528 l 2
 -368 1512 -349 1503 -345 1503 c 1
-1134 1587 m 1
 -1055 1734 -864 1827 -705 1827 c 0
 -605 1827 -504 1796 -402 1733 c 1
 -402 1857 l 1
 -231 1857 l 1
 -231 1590 l 1
 -215 1572 -200 1554 -186 1536 c 1
 -222 1338 l 1
 -340 1364 -491 1434 -696 1434 c 0
 -768.667 1434 -832.111 1434.44 -887.556 1434.44 c 0
 -998.444 1434.44 -1077.33 1432.67 -1134 1422 c 1
 -1134 1587 l 1
EndSplineSet
EndChar
StartChar: uni0E36
Encoding: 277 3638 177
Width: 0
Flags: W
HStem: 1429 131<-954.169 -598.375> 1695 126<-865.394 -538.578> 1790 113<-338.226 -208.195>
VStem: -200 112<1656.4 1781.47>
AnchorPoint: "AboveBase" -189 1340 mark 0
AnchorPoint: "AboveMark" -272 1958 basemark 0
Fore
-345 1497 m 1xd0
 -399 1576 -562 1695 -714 1695 c 0
 -828 1695 -909 1631 -957 1560 c 1
 -687 1560 l 2
 -630 1560 -565 1551 -515 1540 c 2
 -440 1522 l 2
 -368 1506 -349 1497 -345 1497 c 1xd0
-88 1724 m 0
 -88 1636 -136 1575 -202 1552 c 1
 -202 1551 -196 1544 -186 1530 c 1
 -222 1332 l 1
 -340 1358 -491 1428 -696 1428 c 0
 -789 1428 -868 1429 -932 1429 c 0
 -1029 1429 -1095 1427 -1134 1420 c 1
 -1134 1581 l 1
 -1055 1728 -864 1821 -705 1821 c 0xd0
 -621 1821 -533 1797 -443 1750 c 1
 -438 1780 -409 1903 -272 1903 c 0xb0
 -158 1903 -88 1823 -88 1724 c 0
-200 1720 m 0
 -200 1758 -230 1790 -271 1790 c 24xb0
 -313 1790 -344 1758 -344 1720 c 0
 -344 1682 -313 1651 -271 1651 c 0
 -230 1651 -200 1682 -200 1720 c 0
EndSplineSet
EndChar
StartChar: uni0E37
Encoding: 278 3639 178
Width: 0
Flags: W
HStem: 1427 129<-954.169 -598.375> 1693 126<-861.533 -629.184>
VStem: -615 156<1809 1888> -391 156<1717 1887>
AnchorPoint: "AboveBase" -189 1340 mark 0
AnchorPoint: "AboveMark" -425 1958 basemark 0
Fore
-345 1493 m 1
 -400 1574 -562 1693 -714 1693 c 0
 -828 1693 -909 1628 -957 1556 c 1
 -687 1556 l 2
 -630 1556 -565 1547 -515 1536 c 2
 -440 1518 l 2
 -368 1502 -349 1493 -345 1493 c 1
-1134 1579 m 1
 -1055 1726 -864 1819 -705 1819 c 0
 -680 1819 -650 1816 -615 1809 c 1
 -615 1888 l 1
 -459 1888 l 1
 -459 1759 l 17
 -449 1754 -393 1718 -391 1717 c 1
 -391 1887 l 1
 -235 1887 l 1
 -235 1585 l 1
 -211 1558 -195 1539 -186 1528 c 1
 -222 1330 l 1
 -340 1356 -491 1426 -696 1426 c 0
 -789 1426 -868 1427 -932 1427 c 0
 -1029 1427 -1095 1425 -1134 1418 c 1
 -1134 1579 l 1
EndSplineSet
EndChar
StartChar: uni0E38
Encoding: 279 3640 179
Width: 0
Flags: W
HStem: -424 92<-448.633 -349.848> -226 106<-448.576 -340.642>
VStem: -538 88<-329.184 -227.91> -346 155<-523 -416> -338 147<-331.13 -230.512>
AnchorPoint: "BelowBase" -191 -120 mark 0
Fore
-386 -120 m 0xf0
 -301 -120 -191 -159 -191 -319 c 2xe8
 -191 -523 l 1
 -346 -523 l 1
 -346 -416 l 1
 -355 -421 -371 -424 -394 -424 c 0
 -469 -424 -538 -360 -538 -276 c 0
 -538 -187 -470 -120 -386 -120 c 0xf0
-338 -278 m 0
 -338 -250 -361 -226 -392 -226 c 24
 -424 -226 -450 -248 -450 -278 c 0
 -450 -307 -425 -332 -392 -332 c 0
 -361 -332 -338 -307 -338 -278 c 0
EndSplineSet
Substitution2: "Thai Sara U Mai Ek Reordering" uni0E48.low
Substitution2: "Thai Sara U Mai Tho Reordering" uni0E49.low
Substitution2: "Thai Sara U Mai Tri Reordering" uni0E4A.low
Substitution2: "Thai Sara U Mai Chattawa Reordering" uni0E4B.low
Substitution2: "Thai Sara U Thanthakhat Reordering" uni0E4C.low
Substitution2: "Thai Sara U Nikhahit Reordering" uni0E4D
EndChar
StartChar: uni0E39
Encoding: 280 3641 180
Width: 0
Flags: W
HStem: -524 102<-516 -375> -424 92<-772.939 -673.941> -226 106<-773.146 -665.642>
VStem: -863 89<-329.184 -227.91> -662 146<-331.13 -230.512> -375 155<-422 -126>
AnchorPoint: "BelowBase" -191 -120 mark 0
Fore
-711 -120 m 0x7c
 -626 -120 -516 -159 -516 -319 c 2
 -516 -422 l 1
 -375 -422 l 1
 -375 -126 l 1
 -220 -126 l 1
 -220 -524 l 1
 -670 -524 l 1xbc
 -670 -416 l 1
 -679 -421 -696 -424 -719 -424 c 0
 -793 -424 -863 -360 -863 -276 c 0
 -863 -187 -794 -120 -711 -120 c 0x7c
-662 -278 m 0
 -662 -250 -685 -226 -717 -226 c 24
 -749 -226 -774 -248 -774 -278 c 0
 -774 -307 -750 -332 -717 -332 c 0x7c
 -685 -332 -662 -307 -662 -278 c 0
EndSplineSet
Substitution2: "Thai Sara UU Mai Ek Reordering" uni0E48.low
Substitution2: "Thai Sara UU Mai Tho Reordering" uni0E49.low
Substitution2: "Thai Sara UU Mai Tri Reordering" uni0E4A.low
Substitution2: "Thai Sara UU Mai Chattawa Reordering" uni0E4B.low
Substitution2: "Thai Sara UU Thanthakhat Reordering" uni0E4C.low
Substitution2: "Thai Sara UU Nikhahit Reordering" uni0E4D
EndChar
StartChar: uni0E3A
Encoding: 281 3642 181
Width: 0
Flags: W
HStem: -382 270<-399.359 -202.868>
VStem: -436 270<-344.043 -149.73>
AnchorPoint: "BelowBase" -191 -120 mark 0
Fore
-436 -246 m 0
 -436 -174 -377 -112 -302 -112 c 0
 -225 -112 -166 -179 -166 -246 c 0
 -166 -322 -230 -382 -302 -382 c 0
 -373 -382 -436 -320 -436 -246 c 0
EndSplineSet
Substitution2: "Thai Phinthu Maitaikhu Reordering" uni0E47
Substitution2: "Thai Phinthu Mai Ek Reordering" uni0E48.low
Substitution2: "Thai Phinthu Mai Tho Reordering" uni0E49.low
Substitution2: "Thai Phinthu Mai Tri Reordering" uni0E4A.low
Substitution2: "Thai Phinthu Mai Chattawa Reordering" uni0E4B.low
Substitution2: "Thai Phinthu Thanthakhat Reordering" uni0E4C.low
Substitution2: "Thai Phinthu Nikhahit Reordering" uni0E4D
EndChar
StartChar: uni0E3F
Encoding: 283 3647 182
Width: 1250
Flags: W
HStem: 0 174<348 541 653 823.037> 719 166<348 541 653 735.918> 1319 170<348 541 653 815.672>
VStem: 152 196<170 719 885 1321> 541 112<-133 0 174 717 887 1319 1489 1595> 885 207<984.884 1253.22> 954 207<295.423 622.551>
Fore
653 1489 m 1xfa
 876 1489 1092 1420 1092 1144 c 0xfc
 1092 1048 1033 924 940 865 c 2
 883 827 l 1
 1096 767 1161 605 1161 457 c 0
 1161 170 922 0 653 0 c 1
 653 -133 l 1
 541 -133 l 1
 541 0 l 1
 152 0 l 1
 152 1489 l 1
 541 1489 l 1
 541 1595 l 1
 653 1595 l 1
 653 1489 l 1xfa
541 885 m 1
 541 1321 l 1
 348 1321 l 1
 348 885 l 1
 541 885 l 1
653 887 m 1
 710 887 763 905 814 941 c 0
 861 976 885 1037 885 1124 c 0
 885 1280 775 1319 653 1319 c 1
 653 887 l 1
541 170 m 1
 541 719 l 1
 348 719 l 1
 348 170 l 1
 541 170 l 1
653 174 m 1
 770 174 954 229 954 449 c 0xfa
 954 594 915 638 827 683 c 0
 782 706 724 717 653 717 c 1
 653 174 l 1
EndSplineSet
EndChar
StartChar: uni0E40
Encoding: 284 3648 183
Width: 740
Flags: W
HStem: -10 132<354.823 487.364> 266 132<401.598 487.177> 1182 20G<217 401>
VStem: 217 184<397 1202> 217 132<128.442 260.797> 493 132<127.823 260.364>
Fore
625 194 m 0xf4
 625 81 535 -10 421 -10 c 0
 308 -10 217 81 217 194 c 2xec
 217 1202 l 1
 401 1202 l 1
 401 397 l 17
 407 398 414 398 421 398 c 0
 534 398 625 308 625 194 c 0xf4
421 122 m 0
 459 122 493 151 493 194 c 0
 493 232 464 266 421 266 c 0
 383 266 349 237 349 194 c 0
 349 156 378 122 421 122 c 0
EndSplineSet
EndChar
StartChar: uni0E41
Encoding: 285 3649 184
Width: 1290
Flags: W
HStem: -10 132<344.823 477.364 904.823 1037.36> 266 132<391.598 477.177 951.598 1037.18> 1182 20G<207 391 767 951>
VStem: 207 184<397 1202> 207 132<128.442 260.797> 483 132<127.823 260.364> 767 184<397 1202> 767 132<128.442 260.797> 1043 132<127.823 260.364>
Fore
1175 194 m 0xe680
 1175 81 1085 -10 971 -10 c 0
 858 -10 767 81 767 194 c 2xe580
 767 1202 l 1
 951 1202 l 1
 951 397 l 17
 957 398 964 398 971 398 c 0
 1084 398 1175 308 1175 194 c 0xe680
971 122 m 0
 1009 122 1043 151 1043 194 c 0
 1043 232 1014 266 971 266 c 0
 933 266 899 237 899 194 c 0
 899 156 928 122 971 122 c 0
615 194 m 0
 615 81 525 -10 411 -10 c 0
 298 -10 207 81 207 194 c 2xec80
 207 1202 l 1
 391 1202 l 1
 391 397 l 17xf480
 397 398 404 398 411 398 c 0
 524 398 615 308 615 194 c 0
411 122 m 0
 449 122 483 151 483 194 c 0
 483 232 454 266 411 266 c 0
 373 266 339 237 339 194 c 0
 339 156 368 122 411 122 c 0
EndSplineSet
EndChar
StartChar: uni0E42
Encoding: 286 3650 185
Width: 930
Flags: W
HStem: -10 132<551.136 683.677> 266 132<600.944 683.864> 1780 160<245.008 648.537>
VStem: 414 131<128.442 260.783> 414 186<397 1363.94> 689 133<127.636 260.177>
Fore
-52 1764 m 17xec
 -6 1801 159 1940 476 1940 c 0
 737 1940 867 1802 911 1717 c 9
 759 1605 l 17
 756 1616 714 1780 465 1780 c 0
 322 1780 190 1723 105 1658 c 9
 336 1576 l 18
 512 1513 600 1423 600 1306 c 2
 600 397 l 17xec
 607 398 612 398 618 398 c 0
 732 398 822 307 822 194 c 0
 822 80 731 -10 618 -10 c 0
 504 -10 414 81 414 194 c 2xf4
 414 1264 l 2
 414 1337 365 1389 266 1420 c 10
 -52 1520 l 17
 -52 1764 l 17xec
617 266 m 0
 574 266 545 232 545 194 c 0xf4
 545 151 579 122 617 122 c 0
 660 122 689 156 689 194 c 0
 689 237 655 266 617 266 c 0
EndSplineSet
EndChar
StartChar: uni0E43
Encoding: 287 3651 186
Width: 830
Flags: W
HStem: -10 132<440.136 570.292> 266 132<488.944 570.471> 1362 144<101.797 262.175> 1776 134<326 428.065>
VStem: -67 154<1520.81 1681.59> 279 144<1521.15 1683.33> 304 129<128.442 260.783> 304 184<397 1275.3> 484 182<1544.99 1724.89> 577 135<127.636 260.177>
Back
204 1706.5 m 24
 182.413 1706.5 163.683 1699.51 147.81 1685.52 c 128
 131.937 1671.53 124 1654.19 124 1633.5 c 0
 124 1612.5 131.333 1594.33 146 1579 c 128
 160.667 1563.67 178.333 1556 199 1556 c 128
 219.667 1556 237.667 1563.33 253 1578 c 128
 268.333 1592.67 276 1610.17 276 1630.5 c 0
 276 1651.17 269.041 1669.01 255.123 1684 c 128
 241.206 1699 224.165 1706.5 204 1706.5 c 24
284.5 1142.5 m 18
 284.5 1182.73 290.663 1220.68 302.988 1256.35 c 128
 315.314 1292.02 330.272 1322.96 347.863 1349.16 c 128
 374.25 1388.45 374.25 1388.45 400.637 1425.43 c 128
 418.228 1450.08 433.186 1476.89 445.512 1505.87 c 128
 457.837 1534.84 464 1564.55 464 1595 c 0
 464 1623.29 458.792 1650.71 448.375 1677.25 c 128
 437.958 1703.79 420.7 1726.8 396.599 1746.28 c 128
 372.498 1765.76 343.965 1775.5 311 1775.5 c 1
 325.271 1766.25 335.689 1758.94 342.255 1753.56 c 128
 348.821 1748.17 356.297 1739.95 364.682 1728.89 c 128
 373.067 1717.82 378.883 1704.23 382.13 1688.12 c 128
 385.377 1672.01 387 1652.14 387 1628.5 c 0
 387 1585.92 367.85 1545.7 329.55 1507.84 c 128
 291.25 1469.99 249.379 1451.06 203.938 1451.06 c 0
 147.796 1451.06 101.354 1468.75 64.6124 1504.12 c 128
 27.8708 1539.49 9.5 1584.29 9.5 1638.5 c 0
 9.5 1714.05 38.1494 1778.18 95.4482 1830.91 c 128
 152.747 1883.64 223.097 1910 306.5 1910 c 0
 360.764 1910 410.127 1900.7 454.589 1882.09 c 128
 499.052 1863.49 534.865 1839.13 562.028 1809.02 c 128
 589.191 1778.91 610.061 1746 624.636 1710.29 c 128
 639.212 1674.59 646.5 1638.49 646.5 1602 c 0
 646.5 1569.48 640.372 1536.18 628.115 1502.1 c 128
 615.858 1468.03 600.983 1435.83 583.49 1405.51 c 128
 557.25 1360.03 557.25 1360.03 531.01 1313.02 c 128
 513.517 1281.69 498.642 1246.78 486.385 1208.31 c 128
 474.128 1169.84 468 1131.13 468 1092.18 c 2
 468 398 l 1
 484 406 507.333 410 538 410 c 0
 592 410 639 392.5 679 357.5 c 128
 719 322.5 739 275.333 739 216 c 0
 739 147.333 717.667 94.1667 675 56.5 c 128
 632.333 18.8333 577 -1.90735e-06 509 0 c 0
 442.029 0 387.874 26.0335 346.536 78.1004 c 128
 305.198 130.167 284.529 205.45 284.529 303.947 c 2
 284.5 1142.5 l 18
531 281 m 152
 510.333 281 492.333 274 477 260 c 128
 461.667 246 454 228.667 454 208 c 128
 454 187.333 461.5 169.5 476.5 154.5 c 128
 491.5 139.5 509.333 132 530 132 c 128
 550.667 132 568.5 139.5 583.5 154.5 c 128
 598.5 169.5 606 187.333 606 208 c 0
 606 228 598.667 245.167 584 259.5 c 128
 569.333 273.833 551.667 281 531 281 c 152
EndSplineSet
Fore
326 1910 m 0xfc80
 565 1910 666 1731 666 1602 c 0xfc80
 666 1578 664 1510 603 1406 c 2
 551 1313 l 2
 524 1264 488 1180 488 1092 c 2
 488 397 l 17xf9
 495 398 501 398 508 398 c 0
 622 398 712 307 712 194 c 0
 712 80 621 -10 508 -10 c 0
 394 -10 304 81 304 194 c 2xfa40
 304 1142 l 2xf9
 304 1225 336 1302 368 1349 c 2
 421 1425 l 2
 482 1511 484 1572 484 1595 c 0
 484 1694 422 1776 331 1776 c 1
 395 1735 423 1671 423 1605 c 0
 423 1486 330 1362 183 1362 c 0
 44 1362 -67 1487 -67 1602 c 0
 -67 1797 117 1910 326 1910 c 0xfc80
505 266 m 0
 462 266 433 232 433 194 c 0
 433 151 467 122 505 122 c 0
 548 122 577 156 577 194 c 0xfa40
 577 237 543 266 505 266 c 0
183 1698 m 0
 127 1698 87 1654 87 1602 c 0
 87 1546 131 1506 183 1506 c 0
 239 1506 279 1550 279 1602 c 0xfc
 279 1658 235 1698 183 1698 c 0
EndSplineSet
EndChar
StartChar: uni0E44
Encoding: 288 3652 187
Width: 910
Flags: W
HStem: -10 132<532.136 664.677> 266 132<580.03 664.864>
VStem: 395 184<397 1654> 395 131<128.442 260.783> 670 133<127.636 260.177>
Fore
599 -10 m 0xe8
 485 -10 395 81 395 194 c 2xd8
 395 1654 l 17
 359 1650 312 1623 246 1356 c 1
 138 1356 l 1
 107 1508 -24 1761 -120 1854 c 1
 -74 1996 l 1
 18 1912 150 1742 192 1606 c 1
 240 1760 328 1905 420 1905 c 2
 579 1905 l 9
 579 397 l 17
 586 398 592 398 599 398 c 0
 713 398 803 307 803 194 c 0
 803 80 712 -10 599 -10 c 0xe8
598 266 m 0
 555 266 526 232 526 194 c 0
 526 151 560 122 598 122 c 0
 641 122 670 156 670 194 c 0
 670 237 636 266 598 266 c 0
EndSplineSet
EndChar
StartChar: uni0E45
Encoding: 289 3653 188
Width: 970
Flags: W
HStem: 1066 156<17.738 469.482>
VStem: 588 186<-410 946.027>
Fore
272 1066 m 0
 128 1066 7 1027 -90 974 c 1
 -90 1144 l 1
 17 1185 148 1222 291 1222 c 0
 621 1222 774 1048 774 714 c 2
 774 -410 l 25
 588 -410 l 1
 588 796 l 2
 588 979 464 1066 272 1066 c 0
EndSplineSet
EndChar
StartChar: uni0E46
Encoding: 290 3654 189
Width: 1200
Flags: W
HStem: 586 121<247.935 393.12> 860 114<277.542 391.854> 1204 20G<263.5 376 658.926 721>
VStem: 104 136<716.197 848.628> 401 122<715.63 851.615> 772 183<-408 1019.92>
Fore
322 974 m 0
 488 974 523 862 523 784 c 0
 523 664 433 586 323 586 c 0
 204 586 104 672 104 825 c 0
 104 971 151 1123 376 1224 c 1
 376 1221 428 1185 531 1116 c 1
 688 1224 l 1
 754 1213 815 1179 871 1123 c 0
 927 1067 955 980 955 863 c 2
 955 -408 l 1
 772 -408 l 1
 772 847 l 2
 772 982 736 1033 688 1044 c 1
 530 946 l 1
 363 1057 l 1
 300 1030 287 997 277 968 c 1
 284 972 297 974 322 974 c 0
240 784 m 0
 240 738 278 707 319 707 c 24
 365 707 401 739 401 781 c 0
 401 827 365 860 323 860 c 0
 276 860 240 826 240 784 c 0
EndSplineSet
EndChar
StartChar: uni0E47
Encoding: 291 3655 190
Width: 0
Flags: W
HStem: 1368.75 132.75<-545.227 -393.306> 1468.88 136.12<-758.828 -651.914> 1614 73.12<-502.061 -393.24> 1742.25 111.37<-722.496 -501.823>
VStem: -1024.5 123.75<1495.66 1677.88> -585.147 81.522<1510.3 1612.83> -391.125 77.625<1503.92 1612.42>
AnchorPoint: "AboveBase" -225.75 1351.88 mark 0
Fore
-447.375 1614 m 0xbe
 -481.125 1614 -503.625 1588.12 -503.625 1557.75 c 0
 -503.625 1524 -477.75 1501.5 -447.375 1501.5 c 0
 -413.625 1501.5 -391.125 1527.38 -391.125 1557.75 c 0
 -391.125 1591.5 -417 1614 -447.375 1614 c 0xbe
-562.125 1853.62 m 0
 -426 1853.62 -291 1894.12 -246 1987.5 c 1
 -214.5 1875 l 1
 -300 1747.88 -530.625 1743.38 -637.5 1742.25 c 0
 -747.75 1741.12 -900.75 1710.75 -900.75 1584.75 c 0
 -900.75 1536.38 -879.375 1503.75 -837.75 1485.75 c 1
 -835.5 1515 l 2
 -833.25 1531.88 -813 1605 -725.25 1605 c 0x7e
 -676.875 1605 -618.375 1513.88 -570 1494.75 c 1
 -580.416 1519.94 -585.147 1543.21 -585.147 1564.2 c 0
 -585.147 1640.71 -522.323 1687.12 -442.875 1687.12 c 0
 -375.375 1687.12 -313.5 1635.38 -313.5 1561.12 c 0
 -313.5 1490.25 -363 1368.75 -507 1368.75 c 0xbe
 -588 1368.75 -682.5 1468.88 -721.875 1468.88 c 0x7e
 -769.125 1468.88 -760.125 1380 -768 1369.88 c 1
 -898.5 1369.88 -937.875 1403.62 -961.5 1429.5 c 0
 -1009.88 1481.25 -1024.5 1521.75 -1024.5 1611.75 c 0
 -1024.5 1799.62 -778.125 1840.12 -728.625 1845.75 c 0
 -685.875 1851.38 -625.125 1853.62 -562.125 1853.62 c 0
EndSplineSet
Substitution2: "Thai Mark High Variant" uni0E47.high
Substitution2: "Thai Phinthu Maitaikhu Reordering" uni0E3A
EndChar
StartChar: uni0E48
Encoding: 292 3656 191
Width: 0
Flags: W
VStem: -344 152<2043 2411>
AnchorPoint: "AboveMark" -268 1958 mark 0
Fore
-344 2411 m 25
 -192 2411 l 1
 -192 2043 l 1
 -344 2043 l 1
 -344 2411 l 25
EndSplineSet
MultipleSubs2: "Thai Tone Nikhahit Attachment" uni0E4D uni0E48
Substitution2: "Thai Tone Low Variant" uni0E48.low
Substitution2: "Thai Sara U Mai Ek Reordering" uni0E38
Substitution2: "Thai Sara UU Mai Ek Reordering" uni0E39
Substitution2: "Thai Phinthu Mai Ek Reordering" uni0E3A
EndChar
StartChar: uni0E49
Encoding: 293 3657 192
Width: 0
Flags: W
HStem: 2013.93 77.0699<-609 -507.433> 2169 65<-580.205 -483.326> 2364 72<-579.966 -449.375>
VStem: -658 74<2238.15 2359.07> -445 86<2239.01 2359.35>
AnchorPoint: "AboveMark" -274 1958 mark 0
Fore
-402 2136 m 1
 -281 2156 -148 2188 -2 2430 c 1
 46 2302 l 1
 -162.333 2024.22 -410.104 2013.93 -571.887 2013.93 c 0
 -584.83 2013.93 -597.222 2014 -609 2014 c 1
 -609 2091 l 1
 -527 2091 -492 2153 -476 2175 c 1
 -485 2171 -504 2169 -531 2169 c 0
 -601 2169 -658 2226 -658 2304 c 0
 -658 2377 -597 2436 -517 2436 c 0
 -389 2436 -359 2351 -359 2296 c 0
 -359 2228 -373 2175 -402 2136 c 1
-584 2300 m 0
 -584 2265 -555 2234 -516 2234 c 24
 -476 2234 -445 2264 -445 2300 c 0
 -445 2339 -477 2364 -513 2364 c 0
 -553 2364 -584 2337 -584 2300 c 0
EndSplineSet
MultipleSubs2: "Thai Tone Nikhahit Attachment" uni0E4D uni0E49
Substitution2: "Thai Tone Low Variant" uni0E49.low
Substitution2: "Thai Sara U Mai Tho Reordering" uni0E38
Substitution2: "Thai Sara UU Mai Tho Reordering" uni0E39
Substitution2: "Thai Phinthu Mai Tho Reordering" uni0E3A
EndChar
StartChar: uni0E4A
Encoding: 294 3658 193
Width: 0
Flags: W
HStem: 2004 75<-676.097 -555.579> 2191 68<-673.99 -557.737>
VStem: -820 90<2140 2295.49> -555 72<2081.9 2188.02> -304 105<2161.84 2317.9>
AnchorPoint: "AboveMark" -458 1958 mark 0
Fore
-618 2079 m 0
 -583 2079 -555 2100 -555 2131 c 24
 -555 2167 -583 2191 -615 2191 c 0
 -651 2191 -677 2161 -677 2129 c 0
 -677 2099 -650 2079 -618 2079 c 0
-246 2122 m 1
 -153 2155 -78 2343 -53 2461 c 1
 25 2373 l 1
 -1 2235 -125 2014 -320 2014 c 1
 -380 2087 l 1
 -350 2126 l 2
 -313 2177 -304 2201 -304 2233 c 0
 -304 2297 -344 2315 -375 2336 c 1
 -501 2258 l 1
 -629 2334 l 1
 -683 2312 -730 2259 -730 2192 c 1
 -728 2202 -688 2259 -615 2259 c 0
 -530 2259 -483 2198 -483 2137 c 0
 -483 2050 -555 2004 -651 2004 c 0
 -739 2004 -820 2086 -820 2194 c 0
 -820 2309 -756 2389 -629 2435 c 1
 -494 2352 l 1
 -371 2442 l 1
 -305 2422 -199 2367 -199 2258 c 0
 -199 2191 -209 2166 -246 2122 c 1
EndSplineSet
MultipleSubs2: "Thai Tone Nikhahit Attachment" uni0E4D uni0E4A
Substitution2: "Thai Tone Low Variant" uni0E4A.low
Substitution2: "Thai Sara U Mai Tri Reordering" uni0E38
Substitution2: "Thai Sara UU Mai Tri Reordering" uni0E39
Substitution2: "Thai Phinthu Mai Tri Reordering" uni0E3A
EndChar
StartChar: uni0E4B
Encoding: 295 3659 194
Width: 0
VWidth: 2104
Flags: W
HStem: 2151 152<-590 -453 -301 -164>
VStem: -453 152<2014 2151 2303 2440>
AnchorPoint: "AboveMark" -377 1958 mark 0
Fore
-164 2151 m 1
 -301 2151 l 1
 -301 2014 l 1
 -453 2014 l 1
 -453 2151 l 1
 -590 2151 l 1
 -590 2303 l 1
 -453 2303 l 1
 -453 2440 l 1
 -301 2440 l 1
 -301 2303 l 1
 -164 2303 l 1
 -164 2151 l 1
EndSplineSet
MultipleSubs2: "Thai Tone Nikhahit Attachment" uni0E4D uni0E4B
Substitution2: "Thai Tone Low Variant" uni0E4B.low
Substitution2: "Thai Sara U Mai Chattawa Reordering" uni0E38
Substitution2: "Thai Sara UU Mai Chattawa Reordering" uni0E39
Substitution2: "Thai Phinthu Mai Chattawa Reordering" uni0E3A
EndChar
StartChar: uni0E4C
Encoding: 296 3660 195
Width: 0
VWidth: 2104
Flags: W
HStem: 2014 103<-568.569 -392.679> 2315 120<-566.423 -402.154> 2338 96<-360 -205.717>
VStem: -695 112<2133.05 2297.57> -379 116<2133.07 2289.5>
AnchorPoint: "AboveMark" -455 1958 mark 0
Fore
-459 2435 m 0xd8
 -435 2435 -400 2434 -360 2434 c 0
 -245 2434 -84 2441 -6 2490 c 1
 28 2364 l 1
 -19 2337 -62 2329 -104 2329 c 0
 -151 2329 -197 2338 -246 2338 c 0xb8
 -267 2338 -288 2337 -311 2332 c 1
 -293 2314 l 2
 -268 2289 -263 2267 -263 2206 c 0
 -263 2127 -335 2014 -476 2014 c 0
 -652 2014 -695 2140 -695 2213 c 0
 -695 2294 -624 2435 -459 2435 c 0xd8
-480 2117 m 0
 -428 2117 -379 2149 -379 2212 c 0
 -379 2281 -411 2315 -476 2315 c 0xd8
 -540 2315 -583 2277 -583 2209 c 0
 -583 2154 -538 2117 -480 2117 c 0
EndSplineSet
MultipleSubs2: "Thai Tone Nikhahit Attachment" uni0E4D uni0E4C
Substitution2: "Thai Tone Low Variant" uni0E4C.low
Substitution2: "Thai Sara U Thanthakhat Reordering" uni0E38
Substitution2: "Thai Sara UU Thanthakhat Reordering" uni0E39
Substitution2: "Thai Phinthu Thanthakhat Reordering" uni0E3A
EndChar
StartChar: uni0E4D
Encoding: 297 3661 196
Width: 0
Flags: W
HStem: 1316 136<-564.499 -394.276> 1659 137<-566.731 -394.218>
VStem: -719 133<1472.25 1639.35> -373 133<1475.89 1639.03>
AnchorPoint: "AboveMark" -478 1958 basemark 0
AnchorPoint: "AboveBase" -242.845 1318.67 mark 0
Fore
-719 1554 m 0
 -719 1690 -611 1796 -478 1796 c 24
 -347 1796 -240 1690 -240 1554 c 0
 -240 1424 -344 1316 -478 1316 c 0
 -615 1316 -719 1424 -719 1554 c 0
-586 1554 m 0
 -586 1501 -539 1452 -480 1452 c 0
 -429 1452 -373 1497 -373 1554 c 0
 -373 1618 -424 1659 -480 1659 c 0
 -546 1659 -586 1610 -586 1554 c 0
EndSplineSet
Substitution2: "Thai Mark High Variant" uni0E4D.high
Substitution2: "Thai Sara U Nikhahit Reordering" uni0E38
Substitution2: "Thai Sara UU Nikhahit Reordering" uni0E39
Substitution2: "Thai Phinthu Nikhahit Reordering" uni0E3A
EndChar
StartChar: uni0E4E
Encoding: 298 3662 197
Width: 0
Flags: W
HStem: 1296 110<-402.336 -216 -216 -132> 1538 112<-386.236 -165> 1777 111<-390.971 -189.375>
VStem: -540 123<1432.09 1522.08> -517 123<1665.42 1767.07>
AnchorPoint: "AboveBase" -140 1227 mark 0
Fore
-517 1724 m 0xe8
 -517 1799 -458 1888 -276 1888 c 0
 -221 1888 -162 1880 -99 1865 c 1
 -99 1753 l 1
 -162 1769 -218 1777 -267 1777 c 0
 -352 1777 -394 1757 -394 1718 c 0xe8
 -394 1673 -341 1650 -235 1650 c 2
 -165 1650 l 1
 -165 1538 l 1
 -230 1538 l 2
 -355 1538 -417 1518 -417 1478 c 0
 -417 1435 -329 1406 -210 1406 c 2
 -132 1406 l 1
 -132 1296 l 1
 -216 1296 l 2
 -316 1296 -395 1313 -453 1347 c 0
 -511 1381 -540 1421 -540 1468 c 0xf0
 -540 1530 -489 1581 -431 1595 c 1
 -488 1624 -517 1667 -517 1724 c 0xe8
EndSplineSet
EndChar
StartChar: uni0E4F
Encoding: 299 3663 198
Width: 1250
Flags: W
HStem: -21 121<433.345 800.805> 258 103<504.818 728.269> 658 105<505.067 728.021> 917 123<434.427 799.603>
VStem: 97 109<328.014 689.709> 363 101<402.65 617.277> 770 100<402.435 617.277> 1029 108<324.068 694.702>
Fore
1029 508 m 0
 1029 736 845 917 617 917 c 0
 389 917 206 737 206 508 c 0
 206 275 395 100 617 100 c 0
 845 100 1029 280 1029 508 c 0
464 509 m 0
 464 424 526 361 617 361 c 0
 708 361 770 424 770 509 c 0
 770 595 709 658 617 658 c 0
 525 658 464 595 464 509 c 0
97 509 m 0
 97 814 334 1040 616 1040 c 0
 902 1040 1137 809 1137 509 c 0
 1137 217 908 -21 616 -21 c 0
 322 -21 97 220 97 509 c 0
870 511 m 0
 870 365 770 258 616 258 c 0
 462 258 363 366 363 511 c 0
 363 654 464 763 616 763 c 0
 768 763 870 654 870 511 c 0
EndSplineSet
EndChar
StartChar: uni0E50
Encoding: 300 3664 199
Width: 1260
Flags: W
HStem: -10 173<467.264 786.379> 751 173<466.151 789.911>
VStem: 150 172<300.774 606.468> 939 173<306.899 607.188>
Fore
322 457 m 0
 322 269 476 163 625 163 c 0
 805 163 939 299 939 457 c 0
 939 633 787 751 625 751 c 0
 452 751 322 617 322 457 c 0
622 -10 m 0
 362 -10 150 185 150 458 c 0
 150 769 405 924 622 924 c 0
 893 924 1112 738 1112 458 c 0
 1112 198 900 -10 622 -10 c 0
EndSplineSet
EndChar
StartChar: uni0E51
Encoding: 301 3665 200
Width: 1200
Flags: W
HStem: 129 198<401.061 644.974> 469 132<509.69 644.776> 758 168<412.868 774.881>
VStem: 113 181<362.488 642.517> 374 131<343.527 463.099> 650 131<333.537 463.432> 918 168<278.787 621.51>
Back
336.827 1807.14 m 5
 332.836 1817.41 330.894 1827.87 331 1838.5 c 4
 330.409 1893.73 349.704 1942.36 388.884 1984.39 c 132
 428.064 2026.42 483.103 2047.13 554 2046.5 c 4
 654.121 2046.5 732.277 2017.92 788.466 1960.76 c 132
 844.655 1903.6 873.5 1827.18 875 1731.5 c 4
 876.615 1639.39 846.019 1567.2 783.211 1514.92 c 132
 720.404 1462.64 638.667 1436.5 538 1436.5 c 4
 474 1436.5 411.667 1444.17 351 1459.5 c 132
 290.333 1474.83 232 1497.83 176 1528.5 c 5
 176 1358.5 l 5
 243.333 1332.5 308.667 1313 372 1300 c 132
 435.333 1287 497 1280.5 557 1280.5 c 4
 719 1280.5 841.667 1322.5 925 1406.5 c 132
 1008.33 1490.5 1050 1617.83 1050 1788.5 c 20
 1049.84 1877.67 1007.53 1969.1 923.06 2062.78 c 132
 838.594 2156.46 721.907 2204.37 573 2206.5 c 4
 438.674 2208.43 333.695 2169.21 258.062 2088.85 c 132
 182.429 2008.5 144.408 1925.38 144 1839.5 c 4
 143.484 1741.48 176.262 1663.11 242.335 1604.4 c 132
 308.408 1545.69 394.629 1515.72 501 1514.5 c 4
 569.355 1513.7 623.777 1533.5 664.266 1573.9 c 132
 704.755 1614.3 725 1662.5 725 1718.5 c 132
 725 1774.5 705 1822.5 665 1862.5 c 132
 625 1902.5 577 1922.5 521 1922.5 c 132
 465 1922.5 417 1902.5 377 1862.5 c 4
 359.994 1845.49 346.603 1827.04 336.827 1807.14 c 5
449 1718.5 m 132
 449 1738.5 456 1755.5 470 1769.5 c 132
 484 1783.5 501 1790.5 521 1790.5 c 132
 541 1790.5 558 1783.5 572 1769.5 c 132
 586 1755.5 593 1738.5 593 1718.5 c 132
 593 1698.5 586 1681.5 572 1667.5 c 132
 558 1653.5 541 1646.5 521 1646.5 c 132
 501 1646.5 484 1653.5 470 1667.5 c 132
 456 1681.5 449 1698.5 449 1718.5 c 132
180 84 m 1
 195 243 l 1
 269.667 179.667 377.667 147.333 519 146 c 0
 655.381 150.353 748.643 186.941 798.786 255.764 c 128
 848.929 324.588 873.333 389.667 872 451 c 0
 869.333 559 842.667 638 792 688 c 128
 741.333 738 664.333 764 561 766 c 0
 495.667 766 440.667 745.333 396 704 c 128
 351.333 662.667 328.667 608.667 328 542 c 0
 328 447.177 368.333 384.011 449 352.5 c 0
 495.025 334.521 535.025 339.688 569 368 c 1
 526.333 366.667 490.833 379.167 462.5 405.5 c 128
 434.167 431.833 420 466.167 420 508.5 c 128
 420 550.833 434.5 586.333 463.5 615 c 128
 492.5 643.667 534.5 658 589.5 658 c 128
 644.5 658 688.333 638.333 721 599 c 128
 753.667 559.667 769.333 510.667 768 452 c 128
 766.667 393.333 742.167 339.667 694.5 291 c 128
 646.833 242.333 588 218 518 218 c 128
 448 218 386.333 230.167 333 254.5 c 128
 279.667 278.833 235.833 316.833 201.5 368.5 c 128
 167.167 420.167 150 481.833 150 553.5 c 128
 150 625.167 169.667 689.667 209 747 c 128
 248.333 804.333 299.667 848.333 363 879 c 128
 426.333 909.667 487.167 925 545.5 925 c 128
 603.833 925 654.667 920.167 698 910.5 c 128
 741.333 900.833 784.667 884.167 828 860.5 c 128
 871.333 836.833 918.988 796.575 970.965 739.726 c 128
 1022.94 682.876 1047.62 587.634 1045 454 c 0
 1043.67 387.333 1030.5 326.833 1005.5 272.5 c 128
 980.5 218.167 949.333 174 912 140 c 128
 874.667 106 822.867 72.6667 756.6 40 c 128
 690.333 7.33334 603.177 -8.99999 495.131 -9 c 128
 387.085 -9 282.041 22 180 84 c 1
526.5 553 m 128
 514.833 541.667 509 527.667 509 511 c 128
 509 494.333 514.833 480.333 526.5 469 c 128
 538.167 457.667 552.667 452 570 452 c 128
 587.333 452 602.167 457.833 614.5 469.5 c 128
 626.833 481.167 633 495.833 633 513.5 c 128
 633 531.167 627.167 545 615.5 555 c 128
 603.833 565 589 570 571 570 c 128
 553 570 538.167 564.333 526.5 553 c 128
EndSplineSet
Fore
579 601 m 0
 692 601 781 511 781 397 c 0
 781 264 669 129 473 129 c 0
 224 129 113 307 113 490 c 0
 113 664.4 246.855 926 606 926 c 0
 880 926 1086 749 1086 483 c 0
 1086 386 1066 259 989 159 c 0
 889 28 770 -61 600 -100 c 1
 477 17 l 1
 631 54 747 121 842 232 c 0
 899 299 918 379 918 458 c 0
 918 639 796 758 580 758 c 0
 335 758 294 575 294 483 c 0
 294 404 345 334 387 326 c 1
 379 347 374 371 374 401 c 0
 374 504 456 601 579 601 c 0
577 327 m 0
 613 327 650 351 650 397 c 0
 650 445 614 469 578 469 c 0
 542 469 505 445 505 398 c 0
 505 350 541 327 577 327 c 0
EndSplineSet
EndChar
StartChar: uni0E52
Encoding: 302 3666 201
Width: 1320
Flags: W
HStem: 0 154<292 925.746> 246 132<546.062 677.177> 522 132<554.872 677.364> 1182 20G<124.974 190.5>
VStem: 139 161<255.987 960.285> 380 159<385.617 643.825> 683 132<383.636 516.177> 991 175<227.35 723.968>
Fore
138 1202 m 1
 243 1142 300 910 300 467 c 0
 300 372 297 267 292 154 c 1
 832 154 l 2
 938 154 991 264 991 483 c 0
 991 639 962 731 908 766 c 1
 762 669 l 1
 605 770 l 1
 566 746 544 703 540 640 c 1
 562 649 586 654 611 654 c 0
 725 654 815 563 815 450 c 0
 815 336 724 246 611 246 c 0
 547 246 380 277 380 534 c 8
 380 748 461 879 623 926 c 1
 771 813 l 1
 908 926 l 1
 1079 898 1166 751 1166 483 c 0
 1166 161 1058 0 841 0 c 2
 112 0 l 1
 135 274 139 440 139 550 c 0
 139 837 106 1004 39 1050 c 1
 138 1202 l 1
611 522 m 0
 568 522 539 488 539 450 c 0
 539 407 573 378 611 378 c 0
 654 378 683 412 683 450 c 0
 683 493 649 522 611 522 c 0
EndSplineSet
EndChar
StartChar: uni0E53
Encoding: 303 3667 202
Width: 1400
Flags: W
HStem: -10 132<367.926 497.364> 266 132<364.307 497.177> 737 189<382.207 595.641 852.109 1049.65>
VStem: 110 177<340.179 518.81> 503 132<127.823 260.364> 636 179<440 698.473> 1115 176<140.612 662.562>
Fore
110 394 m 0
 110 517 122 682 220 797 c 0
 294 883 379 926 474 926 c 8
 585.407 926 678 879 723 786 c 1
 768 879 856.627 926 966 926 c 16
 1046 926 1119 888 1188 811 c 0
 1257 734 1291 611 1291 441 c 0
 1291 287 1272 162 1203 0 c 1
 1013 0 l 1
 1079 140 1115 253 1115 422 c 0
 1115 648 1049 737 953 737 c 0
 860 737 815 674 815 551 c 2
 815 440 l 9
 636 440 l 17
 636 551 l 2
 636 675 587 737 490 737 c 0
 438 737 392 712 351 661 c 0
 308 607 287 518 287 392 c 10
 287 338 l 17
 327 378 375 398 431 398 c 0
 544 398 635 308 635 194 c 0
 635 81 545 -10 431 -10 c 0
 244 -10 110 159 110 394 c 0
431 122 m 0
 469 122 503 151 503 194 c 0
 503 232 474 266 431 266 c 0
 393 266 359 237 359 194 c 0
 359 156 388 122 431 122 c 0
EndSplineSet
EndChar
StartChar: uni0E54
Encoding: 304 3668 203
Width: 1480
Flags: W
HStem: 0 170<959.473 1230> 0 156<423.093 694.87> 534 132<671.823 804.364>
VStem: 104 183<284.461 598.591> 534 132<396.085 528.364> 810 132<395.143 528.177>
Fore
597 0 m 0x7c
 284 0 104 175 104 478 c 0
 104 605 155 711 257 797 c 0
 527 1025 1158 833 1443 1058 c 1
 1443 888 l 1
 1035 685 558 852 384 671 c 0
 322 607 287 518 287 432 c 0
 287 290 384 156 616 156 c 0x7c
 644 156 671 157 696 160 c 1
 588 242 534 343 534 462 c 24
 534 576 625 666 738 666 c 0
 852 666 942 575 942 462 c 0
 942 348 857 290 816 273 c 1
 903 208 1041 173 1230 170 c 1
 1230 0 l 1xbc
 1109 11 1004 29 915 56 c 1
 764 5 661 0 597 0 c 0x7c
738 534 m 0
 695 534 666 500 666 462 c 0
 666 419 700 390 738 390 c 0
 781 390 810 424 810 462 c 0
 810 505 776 534 738 534 c 0
EndSplineSet
EndChar
StartChar: uni0E55
Encoding: 305 3669 204
Width: 1480
Flags: W
HStem: 0 170<959.473 1230> 0 156<423.093 694.87> 534 132<671.823 804.364> 1091 132<571.823 704.364>
VStem: 104 183<284.461 599.056> 434 132<952.352 1085.36> 534 132<396.085 528.364> 710 132<962.917 1085.18> 810 132<395.143 528.177>
Fore
638 1223 m 0x7c80
 752 1223 842 1132 842 1019 c 0
 842 985 835 955 820 927 c 1
 1179 928 1354 987 1443 1058 c 1
 1443 888 l 1
 1035 685 558 852 384 671 c 0
 322 607 287 518 287 432 c 0
 287 290 384 156 616 156 c 0x7d
 644 156 671 157 696 160 c 1
 588 242 534 343 534 462 c 24
 534 576 625 666 738 666 c 0
 852 666 942 575 942 462 c 0
 942 348 857 290 816 273 c 1
 903 208 1041 173 1230 170 c 1
 1230 0 l 1xba80
 1109 11 1004 29 915 56 c 1
 764 5 661 0 597 0 c 0
 284 0 104 175 104 478 c 0
 104 549 121 814 476 895 c 1
 448 930 434 972 434 1019 c 0
 434 1133 525 1223 638 1223 c 0x7c80
638 1091 m 0
 595 1091 566 1057 566 1019 c 0
 566 976 600 947 638 947 c 0
 681 947 710 981 710 1019 c 0
 710 1062 676 1091 638 1091 c 0
738 534 m 0
 695 534 666 500 666 462 c 0
 666 419 700 390 738 390 c 0
 781 390 810 424 810 462 c 0x3a80
 810 505 776 534 738 534 c 0
EndSplineSet
EndChar
StartChar: uni0E56
Encoding: 306 3670 205
Width: 1220
Flags: W
HStem: -16 178<420.554 727.179> 306 132<419.823 552.364> 760 168<398.016 770.906>
VStem: 282 132<167.819 300.364> 558 132<178.116 300.177> 940 176<271.939 603.385>
Fore
1116 436 m 0
 1116 165 921 -16 619 -16 c 0
 505 -16 420 12 365 67 c 24
 310 122 282 178 282 234 c 0
 282 348 373 438 486 438 c 0
 600 438 690 347 690 234 c 0
 690 201 683 170 669 142 c 1
 748 151 940 201 940 436 c 0
 940 630 799 760 573 760 c 0
 460 760 358 741 268 702 c 1
 213 893 136 1017 36 1076 c 1
 68 1256 l 1
 200 1173 291 1050 342 885 c 1
 417 914 494 928 573 928 c 0
 894 928 1116 731 1116 436 c 0
486 306 m 0
 443 306 414 272 414 234 c 0
 414 191 448 162 486 162 c 0
 529 162 558 196 558 234 c 0
 558 277 524 306 486 306 c 0
EndSplineSet
EndChar
StartChar: uni0E57
Encoding: 307 3671 206
Width: 1540
Flags: W
HStem: -10 132<365.112 497.177> 266 132<364.3 497.364> 737 189<380.794 559.895 810.808 988.055> 1196 20G<1332.5 1357.29>
VStem: 110 177<339.953 629.388> 503 132<127.636 260.177> 596 179<440 702.308> 1055 176<255.438 659.486> 1328 164<951.391 1104> 1346 149<562.708 1072.55>
Fore
1208 200 m 1xfd
 1317 328 1346 587 1346 835 c 0xfd40
 1346 974 1337 1109 1328 1216 c 9
 1492 1104 l 17xf980
 1494 1052 1495 1000 1495 949 c 0
 1495 747 1481 550 1452 359 c 0
 1415 120 1312 0 1143 0 c 2
 953 0 l 1
 1019 140 1055 253 1055 422 c 0
 1055 682 962 737 902 737 c 0
 826 737 775 686 775 551 c 2
 775 440 l 9
 596 440 l 17
 596 558 l 2xfb40
 596 676 549 737 460 737 c 0
 428 737 391 711 349 659 c 0
 307 607 287 518 287 392 c 10
 287 338 l 17
 327 378 375 398 431 398 c 0
 545 398 635 307 635 194 c 0
 635 80 544 -10 431 -10 c 0
 321 -10 227 44 156 175 c 0
 125 232 110 311 110 411 c 0
 110 540 125 686 220 797 c 0
 294 883 372 926 454 926 c 8
 558.678 926 638 879 683 786 c 1
 728 879 809.988 926 916 926 c 16
 989 926 1059 888 1128 811 c 0
 1197 734 1231 611 1231 441 c 0
 1231 348 1223 267 1208 200 c 1xfd
431 266 m 0
 388 266 359 232 359 194 c 0
 359 151 393 122 431 122 c 0
 474 122 503 156 503 194 c 0
 503 237 469 266 431 266 c 0
EndSplineSet
EndChar
StartChar: uni0E58
Encoding: 308 3672 207
Width: 1500
Flags: W
HStem: 0 158<821.629 929> 368 132<1001.82 1132.53>
VStem: 124 183<276.963 601.24> 864 132<229.895 362.364> 1140 132<231.788 362.705>
Fore
552 0 m 17
 387 0 124 96 124 478 c 0
 124 605 175 711 277 797 c 0
 553 1030 1174 830 1463 1058 c 1
 1463 888 l 1
 1051 683 582 857 404 671 c 0
 336 600 307 515 307 435 c 0
 307 330 358 234 436 195 c 1
 518 497 l 9
 687 470 l 17
 750 284 820 158 897 158 c 0
 908 158 918 154 929 154 c 1
 886 194 864 241 864 296 c 0
 864 410 955 500 1068 500 c 0
 1185 500 1272 407 1272 290 c 0
 1272 197 1202 0 960 0 c 0
 807 0 692 79 614 236 c 9
 552 0 l 17
1068 368 m 0
 1025 368 996 334 996 296 c 0
 996 253 1030 224 1068 224 c 0
 1111 224 1140 258 1140 296 c 0
 1140 339 1106 368 1068 368 c 0
EndSplineSet
EndChar
StartChar: uni0E59
Encoding: 309 3673 208
Width: 1480
Flags: W
HStem: 0 161<365.5 651.803> 305 132<522.114 653.364> 771 155<371.585 614.21 926.936 1078.22>
VStem: 99 165<282.339 652.888> 387 128<191.425 299.545> 659 132<168.271 299.177>
Fore
99 480 m 0
 99 746.298 252.31 926 506 926 c 0
 587 926 671 878 757 786 c 1
 816 888 886 926 972 926 c 256
 1112 926 1174 860 1205 807 c 1
 1307 873 1364 982 1396 1072 c 1
 1476 944 l 1
 1413 783 1301 672 1142 608 c 1
 1107 749 1025 765 983 765 c 0
 956 765 911 755 852 667 c 1
 937 546 1051 346 1190 0 c 9
 1026 0 l 17
 948 188 863 363 770 526 c 0
 641.67 751.635 551.6 771 497 771 c 0
 352 771 264 631 264 472 c 0
 264 372 307 224 398 177 c 1
 391 199 387 220 387 240 c 0
 387 364 491 437 587 437 c 0
 701 437 791 346 791 233 c 0
 791 91 657 0 502 0 c 0
 229 0 99 246 99 480 c 0
587 305 m 0
 544 305 515 271 515 233 c 0
 515 190 549 161 587 161 c 0
 630 161 659 195 659 233 c 0
 659 276 625 305 587 305 c 0
EndSplineSet
EndChar
StartChar: uni0E5A
Encoding: 310 3674 209
Width: 1400
Flags: W
HStem: 0 21G<810 992 1075 1256> 736 190<239.154 514.09> 1070 132<238.823 371.364>
VStem: 101 132<933.017 1064.36> 377 132<941.7 1064.18> 810 182<0 909> 1075 181<0 895>
Fore
305 1202 m 0
 419 1202 509 1111 509 998 c 0
 509 957 498 921 477 889 c 1
 644 924 748 1055 816 1202 c 1
 992 1026 l 1
 992 0 l 1
 810 0 l 1
 810 909 l 17
 717 803 584 736 396 736 c 0
 184 736 101 893 101 998 c 0
 101 1112 192 1202 305 1202 c 0
305 1070 m 0
 262 1070 233 1036 233 998 c 0
 233 955 267 926 305 926 c 0
 348 926 377 960 377 998 c 0
 377 1041 343 1070 305 1070 c 0
1256 0 m 1
 1075 0 l 1
 1075 1076 l 1
 1256 895 l 1
 1256 0 l 1
EndSplineSet
EndChar
StartChar: uni0E5B
Encoding: 311 3675 210
Width: 2370
Flags: W
HStem: 0 176<359.065 731.828> 180 176<1226 1295.91 1594 1656.24> 248 138<2042.17 2328> 301 131<528.883 657.262> 577 131<527.78 649.552> 789 180<350.502 620.881>
VStem: 63 168<311.343 669.676> 389 133<436.683 571.14> 664 198<437.571 729>
Back
1776 340 m 0
 1765.33 340 1751.33 318.333 1734 275 c 0
 1707.33 208.333 1688.33 165.667 1677 147 c 0
 1653.67 111.667 1628 94 1600 94 c 128
 1572 94 1548.67 117.667 1530 165 c 0
 1523.33 183 1515.83 206 1507.5 234 c 128
 1499.17 262 1492.67 283 1488 297 c 0
 1484 309.667 1478 321.833 1470 333.5 c 128
 1462 345.167 1455.33 351 1450 351 c 0
 1440 351 1429 332.333 1417 295 c 0
 1404 258 1404 258 1390.5 218.5 c 128
 1381.5 192.167 1376 176.333 1374 171 c 0
 1354 115.667 1326.67 88 1292 88 c 0
 1268 88 1249 94.5 1235 107.5 c 128
 1221 120.5 1208 141.333 1196 170 c 0
 1192.67 178 1180 226.333 1158 315 c 0
 1157.33 317 1155.67 327.5 1153 346.5 c 128
 1150.33 365.5 1147.67 375 1145 375 c 0
 1139 375 1134 371.667 1130 365 c 128
 1126 358.333 1119.67 344 1111 322 c 0
 1093.67 278.667 1077.5 244.5 1062.5 219.5 c 128
 1047.5 194.5 1028 167.333 1004 138 c 0
 961.333 86 907.833 48.3333 843.5 25 c 128
 779.167 1.66667 699.333 -10 604 -10 c 0
 482 -10 374 36.6667 280 130 c 0
 230.667 178.667 193.833 229.667 169.5 283 c 128
 145.167 336.333 133 403 133 483 c 0
 133 602.333 160 703.667 214 787 c 0
 254.667 845.667 307.5 893.5 372.5 930.5 c 128
 437.5 967.5 506 986 578 986 c 0
 722 986 826.667 940 892 848 c 0
 938 782.667 961 703.667 961 611 c 0
 961 569 952.167 526.5 934.5 483.5 c 128
 916.833 440.5 897 408.667 875 388 c 0
 794.333 310.667 706.667 272 612 272 c 0
 538 272 478.667 297.333 434 348 c 0
 416 368.667 402.5 389.833 393.5 411.5 c 128
 384.5 433.167 380 462.667 380 500 c 0
 380 559.333 399.333 614.667 438 666 c 0
 452 685.333 470.333 701.333 493 714 c 128
 515.667 726.667 538.333 733 561 733 c 0
 607.667 733 645.167 720.167 673.5 694.5 c 128
 701.833 668.833 716 637.333 716 600 c 0
 716 556 701.833 522 673.5 498 c 128
 645.167 474 615.333 462 584 462 c 0
 576.667 462 567.5 463.5 556.5 466.5 c 2
 540 471 l 1
 550 443.667 583.333 430 640 430 c 0
 663.333 430 684.167 434.667 702.5 444 c 128
 720.833 453.333 733 461.667 739 469 c 128
 745 476.333 753.333 487.333 764 502 c 0
 774 516 781.833 535.5 787.5 560.5 c 128
 793.167 585.5 796 607.333 796 626 c 0
 796 674.667 777.333 718.333 740 757 c 0
 724.667 772.333 699.833 785.333 665.5 796 c 128
 631.167 806.667 600 812 572 812 c 0
 533.333 812 496.5 804.333 461.5 789 c 128
 426.5 773.667 398 754 376 730 c 0
 316.667 666.667 287 584.333 287 483 c 0
 287 387 314.667 310.667 370 254 c 0
 400.667 222 436.833 196.333 478.5 177 c 128
 520.167 157.667 563.333 148 608 148 c 0
 672 148 733.667 160.5 793 185.5 c 128
 852.333 210.5 896.333 242.667 925 282 c 0
 945 309.333 960.667 332.333 972 351 c 128
 983.333 369.667 993.5 389 1002.5 409 c 128
 1016 439 1016 439 1039 489 c 0
 1049.67 511 1059 531.333 1067 550 c 128
 1075 568.667 1086.17 584.167 1100.5 596.5 c 128
 1114.83 608.833 1131.67 615 1151 615 c 0
 1176.33 615 1196.83 606.167 1212.5 588.5 c 128
 1228.17 570.833 1241 544 1251 508 c 0
 1254.33 495.333 1257.67 475 1261 447 c 128
 1264.33 419 1268.17 397 1272.5 381 c 128
 1276.83 365 1283.33 357 1292 357 c 0
 1308.67 357 1322.67 376.667 1334 416 c 0
 1338.67 431.333 1342.83 450.333 1346.5 473 c 128
 1350.17 495.667 1353 510.667 1355 518 c 0
 1369 582.667 1403 615 1457 615 c 0
 1476.33 615 1494 606.833 1510 590.5 c 128
 1526 574.167 1537.33 552 1544 524 c 0
 1548 506 1548 506 1554 478.5 c 128
 1558 460.167 1561.83 444.333 1565.5 431 c 128
 1569.17 417.667 1573.33 404 1578 390 c 0
 1582 378.667 1587.5 368.833 1594.5 360.5 c 128
 1601.5 352.167 1608.67 348 1616 348 c 0
 1631.33 348 1645 362.667 1657 392 c 0
 1672.33 432.667 1683 456.333 1689 463 c 0
 1701.67 479.667 1713 491.167 1723 497.5 c 128
 1733 503.833 1745.33 507 1760 507 c 0
 1771.33 507 1783.17 502.167 1795.5 492.5 c 128
 1807.83 482.833 1818 471 1826 457 c 0
 1828.67 452.333 1832.33 445.333 1837 436 c 128
 1841.67 426.667 1846.33 418.333 1851 411 c 128
 1855.67 403.667 1861 396.333 1867 389 c 0
 1902.33 347 1939.67 326 1979 326 c 2
 2358 326 l 1
 2358 218 l 1
 1973 218 l 2
 1940.33 218 1911 225 1885 239 c 128
 1859 253 1832 276.667 1804 310 c 0
 1787.33 330 1778 340 1776 340 c 0
632 605 m 0
 632 620.333 627.167 633 617.5 643 c 128
 607.833 653 594.667 658 578 658 c 0
 562.667 658 549.833 652.833 539.5 642.5 c 128
 529.167 632.167 524 618.667 524 602 c 0
 524 586.667 529.167 574.167 539.5 564.5 c 128
 549.833 554.833 563.333 550 580 550 c 0
 595.333 550 607.833 555 617.5 565 c 128
 627.167 575 632 588.333 632 605 c 0
EndSplineSet
Fore
488 789 m 0x9f80
 402 789 231 731 231 497 c 0
 231 404 261 310 311 258 c 0
 374 193 467 176 552 176 c 0
 792 176 949 330 1024 635 c 1
 1175 564 l 1
 1223 356 l 1
 1226 356 l 0
 1290 356 1344 449 1389 635 c 9
 1540 564 l 9
 1591 356 l 1
 1594 356 l 0xcf80
 1651 356 1702 449 1747 635 c 9
 1898 564 l 1
 1938 446 2081 387 2328 386 c 1
 2328 248 l 1xaf80
 2306 248 2284 249 2263 249 c 0
 1984 249 1834 304 1814 393 c 1
 1760 251 1653 180 1493 180 c 1
 1456 393 l 17
 1412 253 1302 182 1125 180 c 1xcf80
 1091 393 l 17
 937 129 745 0 514 0 c 0
 207 0 63 242 63 480 c 0
 63 807 304 969 510 969 c 0
 695 969 862 842 862 616 c 0
 862 411 724 301 595 301 c 0
 473 301 389 399 389 503 c 0
 389 608 470 708 593 708 c 0
 622 708 645 703 665 696 c 1
 648 737 577 789 488 789 c 0x9f80
522 504 m 0
 522 468 546 432 594 432 c 0x9f80
 640 432 664 469 664 505 c 0
 664 541 641 577 593 577 c 0
 546 577 522 540 522 504 c 0
EndSplineSet
EndChar
StartChar: afii301
Encoding: 316 8205 212
Width: 0
Flags: W
VStem: -36 72<-275 1114>
Fore
36 -275 m 1
 -36 -275 l 1
 -36 1114 l 1
 -170 978 l 1
 -219 1027 l 1
 -48 1196 l 1
 -219 1364 l 1
 -170 1413 l 1
 0 1242 l 1
 170 1413 l 1
 219 1364 l 1
 48 1196 l 1
 219 1027 l 1
 170 978 l 1
 36 1114 l 1
 36 -275 l 1
EndSplineSet
EndChar
StartChar: afii299
Encoding: 317 8206 213
Width: 0
Flags: W
HStem: 1163 71<35 301>
VStem: -36 71<-275 1163>
Fore
430 1198 m 1
 213 984 l 1
 164 1033 l 1
 301 1163 l 1
 35 1163 l 1
 35 -275 l 1
 -36 -275 l 1
 -36 1234 l 1
 301 1234 l 1
 164 1364 l 1
 213 1413 l 1
 430 1198 l 1
EndSplineSet
EndChar
StartChar: afii300
Encoding: 318 8207 214
Width: 0
Flags: W
HStem: 1163 71<-302 -36>
VStem: -36 71<-275 1163>
Fore
35 -275 m 1
 -36 -275 l 1
 -36 1163 l 1
 -302 1163 l 1
 -165 1033 l 1
 -214 984 l 1
 -431 1198 l 1
 -214 1413 l 1
 -165 1364 l 1
 -302 1234 l 1
 35 1234 l 1
 35 -275 l 1
EndSplineSet
EndChar
StartChar: uni2010
Encoding: 319 8208 215
Width: 973
Flags: W
HStem: 580 165<190 815>
Fore
190 745 m 1
 815 745 l 1
 815 580 l 1
 190 580 l 1
 190 745 l 1
EndSplineSet
EndChar
StartChar: endash
Encoding: 320 8211 216
Width: 1024
Flags: W
HStem: 489 144<0 1024>
Fore
0 633 m 1
 1024 633 l 1
 1024 489 l 1
 0 489 l 1
 0 633 l 1
EndSplineSet
EndChar
StartChar: emdash
Encoding: 321 8212 217
Width: 2048
Flags: W
HStem: 489 144<0 2048>
Fore
0 633 m 1
 2048 633 l 1
 2048 489 l 1
 0 489 l 1
 0 633 l 1
EndSplineSet
EndChar
StartChar: afii00208
Encoding: 322 8213 218
Width: 1862
Flags: W
HStem: 572 160<110 1752>
Fore
1752 572 m 1
 110 572 l 1
 110 732 l 1
 1752 732 l 1
 1752 572 l 1
EndSplineSet
EndChar
StartChar: underscoredbl
Encoding: 323 8215 219
Width: 1118
Flags: W
HStem: -423 130<-16 1134> -212 130<-16 1134>
Fore
1134 -212 m 1
 -16 -212 l 1
 -16 -82 l 1
 1134 -82 l 1
 1134 -212 l 1
1134 -423 m 1
 -16 -423 l 1
 -16 -293 l 1
 1134 -293 l 1
 1134 -423 l 1
EndSplineSet
EndChar
StartChar: quoteleft
Encoding: 324 8216 220
Width: 651
Flags: W
HStem: 1473 20G<327.718 467>
VStem: 174 211<1001 1174>
Fore
385 1001 m 1
 174 1001 l 1
 174 1174 l 1
 338 1493 l 1
 467 1493 l 1
 385 1174 l 1
 385 1001 l 1
EndSplineSet
EndChar
StartChar: quoteright
Encoding: 325 8217 221
Width: 651
Flags: W
HStem: 1473 20G<260 471>
VStem: 260 211<1341 1493>
Fore
260 1493 m 1
 471 1493 l 1
 471 1341 l 1
 307 1022 l 1
 178 1022 l 1
 260 1341 l 1
 260 1493 l 1
EndSplineSet
EndChar
StartChar: quotesinglbase
Encoding: 326 8218 222
Width: 651
Flags: W
VStem: 256 211<82 254>
Fore
256 254 m 1
 467 254 l 1
 467 82 l 1
 303 -238 l 1
 174 -238 l 1
 256 82 l 1
 256 254 l 1
EndSplineSet
EndChar
StartChar: quotereversed
Encoding: 327 8219 223
Width: 432
Flags: W
HStem: 997 559<178 335>
VStem: -64 399<997 1556>
Fore
335 1556 m 1
 178 997 l 1
 -64 997 l 1
 197 1556 l 1
 335 1556 l 1
EndSplineSet
EndChar
StartChar: quotedblleft
Encoding: 328 8220 224
Width: 1061
Flags: W
HStem: 1473 20G<327.718 467 737.718 877>
VStem: 174 211<1001 1174> 584 211<1001 1174>
Fore
385 1001 m 1
 174 1001 l 1
 174 1174 l 1
 338 1493 l 1
 467 1493 l 1
 385 1174 l 1
 385 1001 l 1
795 1001 m 1
 584 1001 l 1
 584 1174 l 1
 748 1493 l 1
 877 1493 l 1
 795 1174 l 1
 795 1001 l 1
EndSplineSet
EndChar
StartChar: quotedblright
Encoding: 329 8221 225
Width: 1061
Flags: W
HStem: 1473 20G<256 467 666 877>
VStem: 256 211<1321 1493> 666 211<1321 1493>
Fore
256 1493 m 1
 467 1493 l 1
 467 1321 l 1
 303 1001 l 1
 174 1001 l 1
 256 1321 l 1
 256 1493 l 1
666 1493 m 1
 877 1493 l 1
 877 1321 l 1
 713 1001 l 1
 584 1001 l 1
 666 1321 l 1
 666 1493 l 1
EndSplineSet
EndChar
StartChar: quotedblbase
Encoding: 330 8222 226
Width: 1061
Flags: W
VStem: 256 211<82 254> 666 211<82 254>
Fore
666 254 m 1
 877 254 l 1
 877 82 l 1
 713 -238 l 1
 584 -238 l 1
 666 82 l 1
 666 254 l 1
256 254 m 1
 467 254 l 1
 467 82 l 1
 303 -238 l 1
 174 -238 l 1
 256 82 l 1
 256 254 l 1
EndSplineSet
EndChar
StartChar: dagger
Encoding: 331 8224 227
Width: 1024
Flags: W
HStem: 920 153<57 424 600 967> 1473 20G<424 600>
VStem: 424 176<-197 920 1073 1493>
Fore
424 1493 m 1
 600 1493 l 1
 600 1073 l 1
 967 1073 l 1
 967 920 l 1
 600 920 l 1
 600 -197 l 1
 424 -197 l 1
 424 920 l 1
 57 920 l 1
 57 1073 l 1
 424 1073 l 1
 424 1493 l 1
EndSplineSet
EndChar
StartChar: daggerdbl
Encoding: 332 8225 228
Width: 1024
Flags: W
HStem: 223 154<57 424 600 967> 920 153<57 424 600 967> 1473 20G<424 600>
VStem: 424 176<-197 223 377 920 1073 1493>
Fore
967 223 m 1
 600 223 l 1
 600 -197 l 1
 424 -197 l 1
 424 223 l 1
 57 223 l 1
 57 377 l 1
 424 377 l 1
 424 920 l 1
 57 920 l 1
 57 1073 l 1
 424 1073 l 1
 424 1493 l 1
 600 1493 l 1
 600 1073 l 1
 967 1073 l 1
 967 920 l 1
 600 920 l 1
 600 377 l 1
 967 377 l 1
 967 223 l 1
EndSplineSet
EndChar
StartChar: bullet
Encoding: 333 8226 229
Width: 1208
Flags: W
Fore
604 465 m 256
 430 465 307 600 307 762 c 0
 307 924 432 1057 606 1057 c 0
 779 1057 901 923 901 762 c 0
 901 588 766 465 604 465 c 256
EndSplineSet
EndChar
StartChar: ellipsis
Encoding: 334 8230 230
Width: 2048
Flags: W
HStem: 0 254<236 449 918 1130 1599 1812>
VStem: 236 213<0 254> 918 212<0 254> 1599 213<0 254>
CounterMasks: 1 70
Fore
918 254 m 1
 1130 254 l 1
 1130 0 l 1
 918 0 l 1
 918 254 l 1
1599 254 m 1
 1812 254 l 1
 1812 0 l 1
 1599 0 l 1
 1599 254 l 1
236 254 m 1
 449 254 l 1
 449 0 l 1
 236 0 l 1
 236 254 l 1
EndSplineSet
EndChar
StartChar: perthousand
Encoding: 335 8240 231
Width: 2748
Flags: W
HStem: -29 127<1379.75 1597.26 2182.6 2400.26> 657 127<1379.35 1595.4 2182.2 2398.4> 707 127<347.576 566.827> 1393 127<349.7 564.128>
VStem: 113 159<919.473 1306.86> 643 160<919.065 1307.72> 1143 160<182.576 571.715> 1673 160<185.223 568.989> 1946 159<183.902 569.429> 2476 160<185.223 568.989>
Fore
2476 377 m 0xdfc0
 2476 527 2422 657 2292 657 c 0
 2159 657 2105 529 2105 377 c 0
 2105 227 2160 98 2292 98 c 0
 2422 98 2476 227 2476 377 c 0xdfc0
1946 377 m 0
 1946 618 2070 784 2292 784 c 0
 2512 784 2636 617 2636 377 c 256
 2636 137 2512 -29 2292 -29 c 0
 2071 -29 1946 134 1946 377 c 0
113 1114 m 0
 113 1353 237 1520 457 1520 c 256
 676 1520 803 1356 803 1114 c 0
 803 872 680 707 457 707 c 256xbfc0
 235 707 113 873 113 1114 c 0
1360 1520 m 1
 1520 1520 l 1
 586 -29 l 1
 426 -29 l 1
 1360 1520 l 1
643 1114 m 0
 643 1274 581 1393 457 1393 c 256
 332 1393 272 1273 272 1114 c 0
 272 963 324 834 457 834 c 256
 590 834 643 962 643 1114 c 0
1143 377 m 0
 1143 618 1267 784 1489 784 c 0xdfc0
 1709 784 1833 617 1833 377 c 256
 1833 137 1709 -29 1489 -29 c 0
 1268 -29 1143 134 1143 377 c 0
1673 377 m 0
 1673 527 1619 657 1489 657 c 0
 1356 657 1303 529 1303 377 c 0
 1303 227 1357 98 1489 98 c 0
 1619 98 1673 227 1673 377 c 0
EndSplineSet
EndChar
StartChar: minute
Encoding: 336 8242 232
Width: 602
Flags: W
HStem: 870 619<273 571>
VStem: 137 434<870 1489>
Fore
571 1489 m 1
 273 870 l 1
 137 870 l 1
 331 1489 l 1
 571 1489 l 1
EndSplineSet
EndChar
StartChar: second
Encoding: 337 8243 233
Width: 972
Flags: W
HStem: 870 619<269 567>
VStem: 137 824<870 1489>
Fore
567 1489 m 1
 269 870 l 1
 137 870 l 1
 331 1489 l 1
 567 1489 l 1
961 1489 m 1
 663 870 l 1
 531 870 l 1
 725 1489 l 1
 961 1489 l 1
EndSplineSet
EndChar
StartChar: guilsinglleft
Encoding: 338 8249 234
Width: 819
Flags: W
HStem: 141 918<627 627>
VStem: 158 469<559 1059>
Fore
627 1059 m 1
 627 868 l 1
 326 600 l 1
 627 332 l 1
 627 141 l 1
 158 559 l 1
 158 641 l 1
 627 1059 l 1
EndSplineSet
EndChar
StartChar: guilsinglright
Encoding: 339 8250 235
Width: 819
Flags: W
HStem: 141 918<193 193>
VStem: 193 469<641 1059>
Fore
193 1059 m 1
 662 641 l 1
 662 559 l 1
 193 141 l 1
 193 332 l 1
 494 600 l 1
 193 868 l 1
 193 1059 l 1
EndSplineSet
EndChar
StartChar: uni203E
Encoding: 341 8254 237
Width: 1118
Flags: W
HStem: 1658 131<-48 1118>
Fore
1118 1658 m 1
 -48 1658 l 1
 -48 1789 l 1
 1118 1789 l 1
 1118 1658 l 1
EndSplineSet
EndChar
StartChar: fraction
Encoding: 342 8260 238
Width: 886
Flags: W
HStem: 0 21G<-29 146.477>
VStem: -29 945<0 1489>
Fore
916 1489 m 1
 136 0 l 1
 -29 0 l 1
 751 1489 l 1
 916 1489 l 1
EndSplineSet
EndChar
StartChar: uni207F
Encoding: 343 8319 239
Width: 1010
Flags: W
HStem: 1368 151<503.388 671.724>
VStem: 125 171<566 1254 1388 1488> 718 172<566 1321.89>
Fore
586 1519 m 0
 689 1519 890 1482 890 1163 c 2
 890 566 l 1
 718 566 l 1
 718 1088 l 2
 718 1275 706 1368 541 1368 c 0
 492 1368 423 1357 296 1254 c 1
 296 566 l 1
 125 566 l 1
 125 1488 l 1
 296 1488 l 1
 296 1388 l 1
 442 1513 528 1519 586 1519 c 0
EndSplineSet
EndChar
StartChar: dottedcircle
Encoding: 361 9676 240
Width: 1255
Flags: W
HStem: 7 121<553.105 669.65> 68 121<847.105 963.815> 98 121<288.105 404.943> 234 121<1013.1 1129.82> 249 121<145.105 261.65> 438 121<1088.1 1204.94> 445 121<24.2492 141.071> 679 121<39.1052 155.65 1074.25 1191.07> 868 121<145.105 261.815> 891 121<967.105 1083.65> 1011 121<334.249 451.071> 1034 121<779.105 895.815> 1079 121<560.249 677.071>
VStem: 22 121<447.216 563.818> 37 121<681.216 797.653> 143 121<251.216 367.653 870.247 987.071> 286 121<100.216 216.727> 332 121<1013.22 1129.82> 551 121<9.21644 125.653> 558 121<1081.22 1197.82> 777 121<1036.25 1153.07> 845 121<70.247 187.071> 965 121<893.216 1009.65> 1011 121<236.247 353.071> 1072 121<681.216 797.818> 1086 121<440.216 556.727>
Fore
203 868 m 0x0181
 167.535 868 143 894.049 143 928 c 0
 143 961.6 167 989 203 989 c 0
 239.6 989 264 961.55 264 928 c 0
 264 894.466 238.453 868 203 868 c 0x0181
392 1011 m 0x012040
 356.535 1011 332 1037.05 332 1071 c 0
 332 1106.5 358.497 1132 392 1132 c 0
 425.55 1132 453 1107.6 453 1071 c 0
 453 1035 425.6 1011 392 1011 c 0x012040
618 1079 m 0x010810
 582.535 1079 558 1105.05 558 1139 c 0
 558 1174.5 584.496 1200 618 1200 c 0
 651.55 1200 679 1175.6 679 1139 c 0
 679 1103 651.6 1079 618 1079 c 0x010810
82 445 m 0x0304
 46.5346 445 22 471.049 22 505 c 0
 22 540.495 48.4965 566 82 566 c 0
 115.55 566 143 541.6 143 505 c 0
 143 469 115.6 445 82 445 c 0x0304
203 249 m 0x0901
 167.535 249 143 275.049 143 309 c 0
 143 342.246 166.819 370 203 370 c 0
 237.771 370 264 343.46 264 309 c 0
 264 272.751 236.203 249 203 249 c 0x0901
346 98 m 0x210080
 310.535 98 286 124.049 286 158 c 0
 286 191.6 310 219 346 219 c 0
 377.483 219 407 197.172 407 158 c 0
 407 122 379.6 98 346 98 c 0x210080
611 7 m 0x810020
 575.535 7 551 33.0495 551 67 c 0
 551 100.246 574.819 128 611 128 c 0
 645.771 128 672 101.46 672 67 c 0
 672 30.7508 644.203 7 611 7 c 0x810020
905 68 m 0x410004
 869.535 68 845 94.0495 845 128 c 0x810004
 845 161.6 869 189 905 189 c 0x410004
 941.6 189 966 161.55 966 128 c 0x810004
 966 94.4656 940.453 68 905 68 c 0x410004
1071 234 m 0x110001
 1035.53 234 1011 260.049 1011 294 c 0
 1011 327.6 1035 355 1071 355 c 0
 1107.6 355 1132 327.55 1132 294 c 0
 1132 260.466 1106.45 234 1071 234 c 0x110001
1146 438 m 0x05000040
 1110.53 438 1086 464.049 1086 498 c 0
 1086 531.6 1110 559 1146 559 c 0
 1177.48 559 1207 537.172 1207 498 c 0
 1207 462 1179.6 438 1146 438 c 0x05000040
1132 679 m 0x010001
 1096.53 679 1072 705.049 1072 739 c 0x01000080
 1072 774.495 1098.5 800 1132 800 c 0x010001
 1165.55 800 1193 775.6 1193 739 c 0x01000080
 1193 703 1165.6 679 1132 679 c 0x010001
1025 891 m 0x014002
 989.535 891 965 917.049 965 951 c 0
 965 984.245 988.819 1012 1025 1012 c 0
 1059.77 1012 1086 985.46 1086 951 c 0
 1086 914.751 1058.2 891 1025 891 c 0x014002
837 1034 m 0x011008
 801.535 1034 777 1060.05 777 1094 c 0
 777 1127.6 801 1155 837 1155 c 0
 873.6 1155 898 1127.55 898 1094 c 0
 898 1060.47 872.453 1034 837 1034 c 0x011008
97 679 m 0
 61.5346 679 37 705.049 37 739 c 0
 37 772.245 60.819 800 97 800 c 0
 131.771 800 158 773.46 158 739 c 0x0102
 158 702.751 130.203 679 97 679 c 0
EndSplineSet
EndChar
StartChar: uni0E10.descless
Encoding: 362 63232 241
Width: 1170
Flags: W
HStem: 0 21G<679.5 872.52> 270 125<323.77 462.024> 544 125<324.577 460.508> 1064 158<439.386 834.178>
VStem: 190 126<402.331 535.588> 792 188<587.632 681.372>
Back
949.922 658.918 m 10
 949.922 0 l 1
 764 0 l 1
 747.273 40.8519 728.542 79.8772 707.805 117.076 c 128
 687.068 154.275 668.583 185.034 652.35 209.353 c 128
 628 245.833 628 245.833 559.5 344.635 c 1
 549.239 322.296 528.307 303.711 496.705 288.88 c 128
 465.104 274.05 432.369 266.635 398.5 266.635 c 0
 347.445 266.635 302.015 285.189 262.209 322.296 c 128
 222.403 359.404 202.5 406.517 202.5 463.635 c 0
 202.5 522.689 221.983 571.286 260.95 609.426 c 128
 299.917 647.565 351.433 666.635 415.5 666.635 c 0
 440.817 666.635 465.582 662.775 489.797 655.054 c 128
 514.012 647.333 535.725 637.602 554.938 625.86 c 128
 574.151 614.118 593.303 599.042 612.392 580.631 c 128
 631.481 562.22 647.814 544.651 661.389 527.923 c 128
 674.964 511.196 689.017 491.505 703.546 468.85 c 128
 718.075 446.195 729.591 427.233 738.094 411.966 c 128
 750.847 389.064 750.847 389.064 766.5 358.85 c 1
 766.5 594.917 l 2
 766.5 625.1 754.897 652.519 731.692 677.176 c 128
 708.487 701.833 677.768 722.009 639.537 737.704 c 128
 601.306 753.399 557.606 767.697 508.438 780.597 c 128
 459.269 793.496 408.722 803.281 356.796 809.95 c 128
 278.907 819.953 278.907 819.953 203.016 829.858 c 128
 152.422 836.461 106.583 841.314 65.5 844.417 c 1
 65.5 1047.42 l 1
 128.094 1091.74 182.21 1125.6 227.848 1149 c 128
 273.486 1172.39 326.032 1190.73 385.485 1204.01 c 128
 444.938 1217.28 513.943 1223.92 592.5 1223.92 c 0
 683.248 1223.92 762.748 1208.64 831 1178.08 c 0
 873.221 1165.22 873.221 1165.22 891.783 1159.49 c 128
 904.158 1155.67 918.268 1152.21 934.113 1149.1 c 128
 949.958 1145.99 959.955 1144.2 964.104 1143.74 c 128
 968.253 1143.28 975.978 1144.04 987.279 1146.01 c 128
 998.58 1147.98 1006.08 1150.09 1009.79 1152.36 c 128
 1013.5 1154.63 1022.62 1158.97 1037.16 1165.38 c 128
 1058.97 1175.01 1058.97 1175.01 1075.5 1181.92 c 1
 1075.5 997.917 l 1
 980.16 964.558 876.917 973.225 765.77 1023.92 c 0
 717.515 1050.59 659.759 1063.92 592.5 1063.92 c 0
 537.487 1063.92 482.167 1056.22 426.54 1040.83 c 128
 370.913 1025.43 320.567 1004.56 275.5 978.207 c 1
 305 975.712 337.246 971.937 372.237 966.88 c 128
 407.228 961.823 443.296 956.918 480.441 952.163 c 128
 517.586 947.408 554.973 940.577 592.602 931.668 c 128
 630.231 922.759 666.434 913.205 701.211 903.006 c 128
 735.987 892.807 768.502 879.734 798.757 863.789 c 128
 829.012 847.843 855.336 830.456 877.731 811.628 c 128
 900.126 792.799 917.756 770.301 930.623 744.133 c 128
 943.489 717.966 949.922 689.561 949.922 658.918 c 10
403.5 392.635 m 24
 424.454 392.635 442.526 399.69 457.716 413.801 c 128
 472.905 427.912 480.5 445.19 480.5 465.635 c 0
 480.5 486.593 473.073 504.499 458.219 519.354 c 128
 443.365 534.208 425.459 541.635 404.5 541.635 c 128
 383.541 541.635 365.635 534.208 350.781 519.354 c 128
 335.927 504.499 328.5 486.593 328.5 465.635 c 0
 328.5 445.35 335.865 428.113 350.596 413.922 c 128
 365.327 399.731 382.961 392.635 403.5 392.635 c 24
EndSplineSet
Fore
316 468 m 0
 316 429 347 395 391 395 c 24
 435 395 468 428 468 468 c 0
 468 514 433 544 392 544 c 0
 344 544 316 506 316 468 c 0
408 669 m 0
 597 669 709 459 744 286 c 1
 790 566 l 2
 792 576 792 585 792 593 c 0
 792 663 742 706 642 722 c 10
 134 802 l 17
 134 1046 l 17
 180 1083 345 1222 662 1222 c 0
 923 1222 1053 1084 1097 999 c 9
 945 887 l 17
 924 980 810 1064 648 1064 c 0
 505 1064 365 997 291 940 c 9
 712 878 l 18
 891 851 980 778 980 657 c 0
 980 641 979 625 976 608 c 10
 869 0 l 1
 683 0 l 1
 676 45 631 222 558 348 c 1
 538 300 469 270 396 270 c 0
 294 270 190 327 190 470 c 0
 190 606 296 669 408 669 c 0
EndSplineSet
EndChar
StartChar: uni0E48.low
Encoding: 372 63242 251
Width: 0
Flags: W
VStem: -371 171<1450 1864>
AnchorPoint: "AboveBase" -193 1340 mark 0
Fore
-371 1864 m 25
 -200 1864 l 1
 -200 1450 l 1
 -371 1450 l 1
 -371 1864 l 25
EndSplineSet
EndChar
StartChar: uni0E49.low
Encoding: 373 63243 252
Width: 0
Flags: W
HStem: 1343.92 86.08<-792 -685.762> 1518 73<-756.936 -650.232> 1737 81<-758.22 -612.935>
VStem: -847 83<1598.42 1729> -607 96<1599.34 1729.4>
AnchorPoint: "AboveBase" -284 1340 mark 0
Fore
-559 1481 m 1
 -423 1503 -273 1539 -109 1812 c 1
 -55 1668 l 1
 -288.645 1355.86 -566.638 1343.92 -748.785 1343.92 c 0
 -763.875 1343.92 -778.306 1344 -792 1344 c 1
 -792 1430 l 1
 -700 1430 -660 1500 -642 1525 c 1
 -652 1520 -674 1518 -704 1518 c 0
 -783 1518 -847 1582 -847 1670 c 0
 -847 1752 -778 1818 -688 1818 c 0
 -544 1818 -511 1723 -511 1661 c 0
 -511 1584 -526 1525 -559 1481 c 1
-764 1665 m 0
 -764 1626 -731 1591 -687 1591 c 24
 -642 1591 -607 1625 -607 1665 c 0
 -607 1709 -643 1737 -684 1737 c 0
 -729 1737 -764 1707 -764 1665 c 0
EndSplineSet
EndChar
StartChar: uni0E4A.low
Encoding: 374 63244 253
Width: 0
Flags: W
HStem: 1332 85<-754.603 -622.154> 1543 76<-749.973 -622.708>
VStem: -917 101<1485.5 1653.2> -619 81<1420.7 1538.88> -336 118<1515.16 1681.29>
AnchorPoint: "AboveBase" -185 1340 mark 0
Fore
-690 1417 m 0
 -650 1417 -619 1440 -619 1475 c 24
 -619 1516 -650 1543 -686 1543 c 0
 -727 1543 -756 1509 -756 1473 c 0
 -756 1439 -726 1417 -690 1417 c 0
-271 1465 m 1
 -166 1502 -82 1714 -54 1847 c 1
 34 1748 l 1
 5 1592 -135 1344 -354 1344 c 1
 -422 1426 l 1
 -388 1470 l 2
 -346 1527 -336 1554 -336 1590 c 0
 -336 1662 -381 1682 -416 1706 c 1
 -558 1618 l 1
 -702 1704 l 1
 -763 1679 -816 1619 -816 1544 c 1
 -813 1555 -768 1619 -686 1619 c 0
 -591 1619 -538 1551 -538 1482 c 0
 -538 1384 -619 1332 -727 1332 c 0
 -826 1332 -917 1425 -917 1546 c 0
 -917 1676 -845 1766 -702 1817 c 1
 -550 1724 l 1
 -412 1825 l 1
 -337 1803 -218 1741 -218 1618 c 0
 -218 1543 -229 1515 -271 1465 c 1
EndSplineSet
EndChar
StartChar: uni0E4B.low
Encoding: 375 63245 254
Width: 0
VWidth: 2104
Flags: W
HStem: 1499 170<-680 -525 -355 -200>
VStem: -525 170<1344 1499 1669 1824>
AnchorPoint: "AboveBase" -249 1340 mark 0
Fore
-200 1499 m 1
 -355 1499 l 1
 -355 1344 l 1
 -525 1344 l 1
 -525 1499 l 1
 -680 1499 l 1
 -680 1669 l 1
 -525 1669 l 1
 -525 1824 l 1
 -355 1824 l 1
 -355 1669 l 1
 -200 1669 l 1
 -200 1499 l 1
EndSplineSet
EndChar
StartChar: uni0E4C.low
Encoding: 376 63246 255
Width: 0
VWidth: 2104
Flags: W
HStem: 1344 116<-661.463 -474.343> 1683 135<-658.97 -482.882> 1709 108<-432 -265.667>
VStem: -809 126<1482.58 1660.94> -454 131<1480.07 1651.41>
AnchorPoint: "AboveBase" -316 1340 mark 0
Fore
-544 1818 m 0xd8
 -517 1818 -477 1817 -432 1817 c 0
 -303 1817 -122 1825 -34 1880 c 1
 4 1738 l 1
 -49 1708 -97 1699 -144 1699 c 0
 -197 1699 -249 1709 -304 1709 c 0xb8
 -328 1709 -351 1708 -377 1702 c 1
 -357 1682 l 2
 -329 1654 -323 1629 -323 1560 c 0
 -323 1471 -404 1344 -563 1344 c 0
 -761 1344 -809 1486 -809 1568 c 0
 -809 1659 -729 1818 -544 1818 c 0xd8
-567 1460 m 0
 -509 1460 -454 1496 -454 1567 c 0
 -454 1645 -490 1683 -563 1683 c 0xd8
 -635 1683 -683 1640 -683 1564 c 0
 -683 1502 -633 1460 -567 1460 c 0
EndSplineSet
EndChar
StartChar: uni0E0D.descless
Encoding: 377 63247 256
Width: 1800
Flags: W
HStem: -10 132<363.297 495.177> 0 156<1106 1433> 266 132<378.561 495.364> 1072 160<423.408 814.307>
VStem: 188 170<127.203 260.783> 188 185<395 602.267> 502 130<127.636 260.177> 923 183<156 954.372> 1433 185<156 1204>
Fore
642 1232 m 0xb780
 853 1232 1106 1137 1106 756 c 2
 1106 156 l 1
 1433 156 l 1
 1433 1204 l 1
 1618 1204 l 1
 1618 0 l 1
 923 0 l 1
 923 740 l 2
 923 923 872 1072 642 1072 c 0
 503 1072 364 1014 280 950 c 1
 531 836 l 1
 531 688 l 1
 467 663 373 597 373 464 c 2
 373 395 l 1x7780
 374 397 393 398 428 398 c 0
 542 398 632 307 632 194 c 0
 632 80 541 -10 428 -10 c 0
 262 -10 188 117 188 239 c 2xbb80
 188 465 l 2
 188 566 245 702 362 760 c 1
 124 862 l 1
 124 1056 l 17
 161 1087 331 1232 642 1232 c 0xb780
430 122 m 0xbb80
 473 122 502 156 502 194 c 0
 502 237 468 266 430 266 c 0
 387 266 358 232 358 194 c 0
 358 151 392 122 430 122 c 0xbb80
EndSplineSet
EndChar
StartChar: uni0E38.low
Encoding: 386 63256 265
Width: 0
Flags: W
HStem: -782 92<-448.633 -349.848> -584 106<-448.576 -340.642>
VStem: -538 88<-687.184 -585.91> -346 155<-881 -774> -338 147<-689.13 -588.512>
Back
-336 -410 m 0xf0
 -198 -410 -164 -497 -164 -600 c 2xe8
 -164 -804 l 1
 -295 -804 l 1
 -295 -682 l 1
 -304 -690 -320 -694 -344 -694 c 0
 -430 -694 -478 -613 -478 -556 c 0
 -478 -478 -409 -410 -336 -410 c 0xf0
-277 -558 m 0
 -277 -524 -305 -496 -342 -496 c 24
 -380 -496 -409 -523 -409 -558 c 0
 -409 -593 -380 -622 -342 -622 c 0
 -304 -622 -277 -593 -277 -558 c 0
EndSplineSet
Refer: 179 3640 N 1 0 0 1 0 -358 2
EndChar
StartChar: uni0E39.low
Encoding: 387 63257 266
Width: 0
Flags: W
HStem: -882 102<-516 -375> -782 92<-772.939 -673.941> -584 106<-773.146 -665.642>
VStem: -863 89<-687.184 -585.91> -662 146<-689.13 -588.512> -375 155<-780 -484>
Back
-593 -417 m 0
 -448 -417 -425 -556 -425 -617 c 2
 -425 -722 l 1
 -290 -722 l 1
 -290 -428 l 1
 -156 -428 l 1
 -156 -816 l 1
 -556 -816 l 1
 -556 -672 l 1
 -570 -686 -578 -688 -611 -688 c 0
 -692 -688 -735 -622 -735 -556 c 0
 -735 -487 -689 -417 -593 -417 c 0
-538 -551 m 0
 -538 -521 -564 -495 -598 -495 c 24
 -632 -495 -663 -520 -663 -559 c 0
 -663 -591 -638 -620 -602 -620 c 0
 -564 -620 -538 -588 -538 -551 c 0
EndSplineSet
Refer: 180 3641 N 1 0 0 1 0 -358 2
EndChar
StartChar: uniF71B
Encoding: 389 63259 268
Width: 1000
Flags: W
VStem: 215 615<61 1085>
Fore
830 1085 m 1
 830 61 l 1
 215 61 l 1
 215 1085 l 1
 830 1085 l 1
EndSplineSet
EndChar
StartChar: uniF71C
Encoding: 390 63260 269
Width: 700
Flags: W
VStem: 107 379<-423 -154>
Fore
107 -423 m 1
 244 -154 l 1
 486 -154 l 1
 245 -423 l 1
 107 -423 l 1
EndSplineSet
EndChar
StartChar: uniF71D
Encoding: 391 63261 270
Width: 800
Flags: W
HStem: -236 211<182 266 532 616> -127 102<266 532>
VStem: 182 84<-236 -127> 532 84<-236 -127>
Fore
616 -236 m 1xb0
 532 -236 l 1xb0
 532 -127 l 1
 266 -127 l 1x70
 266 -236 l 1
 182 -236 l 1
 182 -25 l 1
 616 -25 l 1
 616 -236 l 1xb0
EndSplineSet
EndChar
StartChar: afii61664
Encoding: 315 8204 271
Width: 0
Flags: W
VStem: -36 72<-275 1289>
Fore
36 1289 m 1
 36 -275 l 1
 -36 -275 l 1
 -36 1289 l 1
 36 1289 l 1
EndSplineSet
EndChar
StartChar: uni00B9
Encoding: 122 185 274
Width: 821
Flags: W
HStem: 668 110<156 360 504 709> 1483 20G<249.051 504>
VStem: 360 144<778 1389>
Fore
156 778 m 1
 360 778 l 1
 360 1389 l 1
 137 1348 l 1
 137 1464 l 1
 367 1503 l 1
 504 1503 l 1
 504 778 l 1
 709 778 l 1
 709 668 l 1
 156 668 l 1
 156 778 l 1
EndSplineSet
EndChar
StartChar: ordmasculine
Encoding: 123 186 275
Width: 965
Flags: W
HStem: 469 123<139 827> 698 117<355.616 612.763> 1405 115<353.846 615.823>
VStem: 96 156<926.368 1297.08> 713 155<926.169 1298.57>
Fore
139 592 m 1
 827 592 l 1
 827 469 l 1
 139 469 l 1
 139 592 l 1
96 1108 m 0
 96 1362 242 1520 483 1520 c 256
 725 1520 868 1362 868 1108 c 256
 868 854 725 698 483 698 c 256
 242 698 96 855 96 1108 c 0
713 1108 m 0
 713 1277 636 1405 483 1405 c 0
 336 1405 252 1283 252 1108 c 0
 252 928 344 815 483 815 c 0
 633 815 713 941 713 1108 c 0
EndSplineSet
EndChar
StartChar: guillemotright
Encoding: 124 187 276
Width: 1253
Flags: W
HStem: 141 918<193 193>
VStem: 193 903<641 1059>
Fore
193 1059 m 1
 662 641 l 1
 662 559 l 1
 193 141 l 1
 193 332 l 1
 494 600 l 1
 193 868 l 1
 193 1059 l 1
627 1059 m 1
 1096 641 l 1
 1096 559 l 1
 627 141 l 1
 627 332 l 1
 928 600 l 1
 627 868 l 1
 627 1059 l 1
EndSplineSet
EndChar
StartChar: questiondown
Encoding: 128 191 280
Width: 1087
Flags: W
HStem: -29 164<429.344 710.594> 1239 254<494 696>
VStem: 143 203<211.863 458.945> 500 190<779.941 1092 1239 1493>
Fore
551 -29 m 0
 302 -29 143 112 143 324 c 0
 143 436 199 521 305 623 c 2
 393 709 l 2
 488 802 500 828 500 969 c 2
 500 1092 l 1
 690 1092 l 1
 690 936 l 2
 690 790 654 723 545 618 c 2
 455 530 l 2
 414 493 346 426 346 334 c 0
 346 215 440 135 586 135 c 0
 727 135 867 221 940 272 c 1
 940 84 l 1
 773 -18 634 -29 551 -29 c 0
696 1239 m 1
 494 1239 l 1
 494 1493 l 1
 696 1493 l 1
 696 1239 l 1
EndSplineSet
EndChar
StartChar: Agrave
Encoding: 129 192 281
Width: 1401
Flags: W
HStem: 0 21<16 236.102 1166.9 1384> 383 168<426 975> 1473 20<578.364 822.622> 1635 264<643 839 643 643>
Back
643 1899 m 1
 839 1635 l 1
 686 1635 l 1
 456 1899 l 1
 643 1899 l 1
EndSplineSet
Refer: 400 63182 N 1 0 0 1 1212 373 2
Refer: 37 65 N 1 0 0 1 0 0 3
EndChar
StartChar: Aacute
Encoding: 130 193 282
Width: 1401
Flags: W
HStem: 0 21<16 236.102 1166.9 1384> 383 168<426 975> 1473 20<578.364 822.622> 1635 264<712 755 755 755>
Back
755 1899 m 1
 940 1899 l 1
 712 1635 l 1
 559 1635 l 1
 755 1899 l 1
EndSplineSet
Refer: 398 63177 N 1 0 0 1 1212 373 2
Refer: 37 65 N 1 0 0 1 0 0 3
EndChar
StartChar: Acircumflex
Encoding: 131 194 283
Width: 1401
Flags: W
HStem: 0 21<16 236.102 1166.9 1384> 383 168<426 975> 1473 20<578.364 822.622> 1635 266<606 1005 606 606>
VStem: 395 610<1635 1635 1635 1635>
Back
606 1901 m 1
 794 1901 l 1
 1005 1635 l 1
 866 1635 l 1
 700 1813 l 1
 534 1635 l 1
 395 1635 l 1
 606 1901 l 1
EndSplineSet
Refer: 401 61431 N 1 0 0 1 1212 373 2
Refer: 37 65 N 1 0 0 1 0 0 3
EndChar
StartChar: Atilde
Encoding: 132 195 284
Width: 1401
Flags: W
HStem: 0 21<16 236.102 1166.9 1384> 383 168<426 975> 1473 20<578.364 822.622> 1667 121<725.742 895.866> 1667 219<435.707 495 905 960.406> 1768 118<505.375 669.872>
VStem: 370 125<1667 1761.02> 905 125<1795.67 1886>
Back
1030 1886 m 1xe7
 1027 1753 954 1667 841 1667 c 0xf3
 789 1667 753 1680 696 1710 c 2
 639 1743 l 2
 602 1764 585 1768 571 1768 c 0xe7
 520 1768 495 1728 495 1673 c 2
 495 1667 l 1
 370 1667 l 1xeb
 370 1797 439 1886 559 1886 c 0xe7
 617 1886 653 1872 704 1843 c 2
 761 1813 l 2
 800 1791 819 1788 833 1788 c 0xf3
 876 1788 905 1825 905 1880 c 2
 905 1886 l 1xeb
 1030 1886 l 1xe7
EndSplineSet
Refer: 399 61429 N 1 0 0 1 1212 373 2
Refer: 37 65 N 1 0 0 1 0 0 3
EndChar
StartChar: Adieresis
Encoding: 133 196 285
Width: 1401
Flags: W
HStem: 0 21<16 236.102 1166.9 1384> 383 168<426 975> 1473 20<578.364 822.622> 1667 203<403 606 794 997>
VStem: 403 203<1667 1870> 794 203<1667 1870>
Back
794 1870 m 1
 997 1870 l 1
 997 1667 l 1
 794 1667 l 1
 794 1870 l 1
403 1870 m 1
 606 1870 l 1
 606 1667 l 1
 403 1667 l 1
 403 1870 l 1
EndSplineSet
Refer: 397 63179 N 1 0 0 1 1212 373 2
Refer: 37 65 N 1 0 0 1 0 0 3
EndChar
StartChar: Aring
Encoding: 134 197 286
Width: 1401
Flags: W
HStem: 0 21G<16 236.102 1166.9 1384> 383 168<428 973> 1778 123<591.769 807.344>
VStem: 426 123<1542.47 1735.69> 852 123<1544.08 1732.78>
Fore
700 1475 m 256
 785 1475 852 1541 852 1626 c 256
 852 1713 782 1778 700 1778 c 0
 616 1778 549 1716 549 1626 c 0
 549 1540 617 1475 700 1475 c 256
700 1294 m 1
 428 551 l 1
 973 551 l 1
 700 1294 l 1
975 1626 m 0
 975 1583 966 1475 852 1397 c 1
 1384 0 l 1
 1174 0 l 1
 1038 383 l 1
 365 383 l 1
 229 0 l 1
 16 0 l 1
 549 1397 l 1
 435 1474 426 1577 426 1626 c 0
 426 1784 548 1901 700 1901 c 0
 854 1901 975 1779 975 1626 c 0
EndSplineSet
EndChar
StartChar: AE
Encoding: 135 198 287
Width: 1995
Flags: W
HStem: 0 170<1104 1864> 383 168<442 901> 711 170<1104 1815> 1323 170<1104 1845> 1335 158<772 901>
VStem: 901 203<170 383 551 711 881 1323>
Fore
1845 1493 m 1xf4
 1845 1323 l 1
 1104 1323 l 1xf4
 1104 881 l 1
 1815 881 l 1
 1815 711 l 1
 1104 711 l 1
 1104 170 l 1
 1864 170 l 1
 1864 0 l 1
 901 0 l 1
 901 383 l 1
 373 383 l 1
 213 0 l 1
 8 0 l 1
 633 1493 l 1xec
 1845 1493 l 1xf4
772 1335 m 1xec
 442 551 l 1
 901 551 l 1
 901 1335 l 1
 772 1335 l 1xec
EndSplineSet
EndChar
StartChar: Egrave
Encoding: 137 200 289
Width: 1294
Flags: W
HStem: 0 170<403 1163> 711 170<403 1114> 1323 170<403 1145> 1635 264<613 809 613 613>
VStem: 201 202<170 711 881 1323>
Back
613 1899 m 1
 809 1635 l 1
 656 1635 l 1
 426 1899 l 1
 613 1899 l 1
EndSplineSet
Refer: 400 63182 N 1 0 0 1 1182 373 2
Refer: 41 69 N 1 0 0 1 0 0 3
EndChar
StartChar: Eacute
Encoding: 138 201 290
Width: 1294
Flags: W
HStem: 0 170<403 1163> 711 170<403 1114> 1323 170<403 1145> 1635 264<682 725 725 725>
VStem: 201 202<170 711 881 1323>
Back
725 1899 m 1
 910 1899 l 1
 682 1635 l 1
 529 1635 l 1
 725 1899 l 1
EndSplineSet
Refer: 398 63177 N 1 0 0 1 1182 373 2
Refer: 41 69 N 1 0 0 1 0 0 3
EndChar
StartChar: Ecircumflex
Encoding: 139 202 291
Width: 1294
Flags: W
HStem: 0 170<403 1163> 711 170<403 1114> 1323 170<403 1145> 1635 266<576 975 576 576>
VStem: 201 202<170 711 881 1323> 365 610<1635 1635 1635 1635>
Back
576 1901 m 1xf4
 764 1901 l 1
 975 1635 l 1
 836 1635 l 1
 670 1813 l 1
 504 1635 l 1
 365 1635 l 1
 576 1901 l 1xf4
EndSplineSet
Refer: 401 61431 N 1 0 0 1 1182 373 2
Refer: 41 69 N 1 0 0 1 0 0 3
EndChar
StartChar: Edieresis
Encoding: 140 203 292
Width: 1294
Flags: W
HStem: 0 170<403 1163> 711 170<403 1114> 1323 170<403 1145> 1667 203<373 576 764 967>
VStem: 201 202<170 711 881 1323> 373 203<1667 1870> 764 203<1667 1870>
Back
764 1870 m 1xf2
 967 1870 l 1
 967 1667 l 1
 764 1667 l 1
 764 1870 l 1xf2
373 1870 m 1xf6
 576 1870 l 1
 576 1667 l 1
 373 1667 l 1
 373 1870 l 1xf6
EndSplineSet
Refer: 397 63179 N 1 0 0 1 1182 373 2
Refer: 41 69 N 1 0 0 1 0 0 3
EndChar
StartChar: Igrave
Encoding: 141 204 293
Width: 604
Flags: W
HStem: 0 21<201 403> 1473 20<201 403> 1635 264<246 442 246 246>
VStem: 201 202<0 1493>
Back
246 1899 m 1xf0
 442 1635 l 1
 289 1635 l 1
 59 1899 l 1
 246 1899 l 1xf0
EndSplineSet
Refer: 400 63182 N 1 0 0 1 815 373 2
Refer: 45 73 N 1 0 0 1 0 0 3
EndChar
StartChar: Iacute
Encoding: 142 205 294
Width: 604
Flags: W
HStem: 0 21<201 403> 1473 20<201 403> 1635 264<315 358 358 358>
VStem: 201 202<0 1493>
Back
358 1899 m 1xf0
 543 1899 l 1
 315 1635 l 1
 162 1635 l 1
 358 1899 l 1xf0
EndSplineSet
Refer: 398 63177 N 1 0 0 1 815 373 2
Refer: 45 73 N 1 0 0 1 0 0 3
EndChar
StartChar: Icircumflex
Encoding: 143 206 295
Width: 604
Flags: W
HStem: 0 21<201 403> 1473 20<201 403> 1635 266<209 608 209 209>
VStem: -2 610<1635 1635 1635 1635> 201 202<0 1493>
Back
209 1901 m 1xf0
 397 1901 l 1
 608 1635 l 1
 469 1635 l 1
 303 1813 l 1
 137 1635 l 1
 -2 1635 l 1
 209 1901 l 1xf0
EndSplineSet
Refer: 401 61431 N 1 0 0 1 815 373 2
Refer: 45 73 N 1 0 0 1 0 0 3
EndChar
StartChar: Idieresis
Encoding: 144 207 296
Width: 604
Flags: W
HStem: 0 21<201 403> 1473 20<201 403> 1667 203<6 209 397 600>
VStem: 6 203<1667 1870> 201 202<0 1493> 397 203<1667 1870>
Back
397 1870 m 1xe4
 600 1870 l 1
 600 1667 l 1
 397 1667 l 1
 397 1870 l 1xe4
6 1870 m 1xf0
 209 1870 l 1
 209 1667 l 1
 6 1667 l 1
 6 1870 l 1xf0
EndSplineSet
Refer: 397 63179 N 1 0 0 1 815 373 2
Refer: 45 73 N 1 0 0 1 0 0 3
EndChar
StartChar: Eth
Encoding: 145 208 297
Width: 1587
Flags: W
HStem: 0 166<414 948.011> 700 144<10 211 414 750> 1327 166<414 948.011>
VStem: 211 203<166 700 844 1327> 1253 213<479.562 1015.79>
Fore
1466 748 m 0
 1466 211 1174 0 627 0 c 2
 211 0 l 1
 211 700 l 1
 10 700 l 1
 10 844 l 1
 211 844 l 1
 211 1493 l 1
 627 1493 l 2
 1173 1493 1466 1284 1466 748 c 0
1253 748 m 0
 1253 1154 1061 1327 657 1327 c 2
 414 1327 l 1
 414 844 l 1
 750 844 l 1
 750 700 l 1
 414 700 l 1
 414 166 l 1
 657 166 l 2
 1061 166 1253 340 1253 748 c 0
EndSplineSet
EndChar
StartChar: Ntilde
Encoding: 146 209 298
Width: 1532
Flags: W
HStem: 0 21<201 397 1048.4 1331> 1473 20<201 483.6 1135 1331> 1667 121<791.742 961.866> 1667 219<501.707 561 971 1026.41> 1768 118<571.375 735.872>
VStem: 201 196<0 1249> 436 125<1667 1761.02> 971 125<1795.67 1886> 1135 196<244 1493>
Back
1096 1886 m 1xcf80
 1093 1753 1020 1667 907 1667 c 0xe780
 855 1667 819 1680 762 1710 c 2
 705 1743 l 2
 668 1764 651 1768 637 1768 c 0xcf80
 586 1768 561 1728 561 1673 c 2
 561 1667 l 1
 436 1667 l 1xd780
 436 1797 505 1886 625 1886 c 0xcf80
 683 1886 719 1872 770 1843 c 2
 827 1813 l 2
 866 1791 885 1788 899 1788 c 0xe780
 942 1788 971 1825 971 1880 c 2
 971 1886 l 1xd780
 1096 1886 l 1xcf80
EndSplineSet
Refer: 399 61429 N 1 0 0 1 1278 373 2
Refer: 50 78 N 1 0 0 1 0 0 3
EndChar
StartChar: Ograve
Encoding: 147 210 299
Width: 1612
Flags: W
HStem: -29 164<613.755 1008.2> 1356 164<613.794 999.874> 1635 264<750 946 750 750>
VStem: 115 213<462.683 1027.72> 1284 213<462.463 1027.5>
Back
750 1899 m 1
 946 1635 l 1
 793 1635 l 1
 563 1899 l 1
 750 1899 l 1
EndSplineSet
Refer: 400 63182 N 1 0 0 1 1319 373 2
Refer: 51 79 N 1 0 0 1 0 0 3
EndChar
StartChar: Oacute
Encoding: 148 211 300
Width: 1612
Flags: W
HStem: -29 164<613.755 1008.2> 1356 164<613.794 999.874> 1635 264<819 862 862 862>
VStem: 115 213<462.683 1027.72> 1284 213<462.463 1027.5>
Back
862 1899 m 1
 1047 1899 l 1
 819 1635 l 1
 666 1635 l 1
 862 1899 l 1
EndSplineSet
Refer: 398 63177 N 1 0 0 1 1319 373 2
Refer: 51 79 N 1 0 0 1 0 0 3
EndChar
StartChar: Ocircumflex
Encoding: 149 212 301
Width: 1612
Flags: W
HStem: -29 164<613.755 1008.2> 1356 164<613.794 999.874> 1635 266<713 1112 713 713>
VStem: 115 213<462.683 1027.72> 502 610<1635 1635 1635 1635> 1284 213<462.463 1027.5>
Back
713 1901 m 1
 901 1901 l 1
 1112 1635 l 1
 973 1635 l 1
 807 1813 l 1
 641 1635 l 1
 502 1635 l 1
 713 1901 l 1
EndSplineSet
Refer: 401 61431 N 1 0 0 1 1319 373 2
Refer: 51 79 N 1 0 0 1 0 0 3
EndChar
StartChar: Otilde
Encoding: 150 213 302
Width: 1612
Flags: W
HStem: -29 164<613.755 1008.2> 1356 164<613.794 999.874> 1667 121<832.742 1002.87> 1667 219<542.707 602 1012 1067.41> 1768 118<612.375 776.872>
VStem: 115 213<462.683 1027.72> 477 125<1667 1761.02> 1012 125<1795.67 1886> 1284 213<462.463 1027.5>
Back
1137 1886 m 1xcf80
 1134 1753 1061 1667 948 1667 c 0xe780
 896 1667 860 1680 803 1710 c 2
 746 1743 l 2
 709 1764 692 1768 678 1768 c 0xcf80
 627 1768 602 1728 602 1673 c 2
 602 1667 l 1
 477 1667 l 1xd780
 477 1797 546 1886 666 1886 c 0xcf80
 724 1886 760 1872 811 1843 c 2
 868 1813 l 2
 907 1791 926 1788 940 1788 c 0xe780
 983 1788 1012 1825 1012 1880 c 2
 1012 1886 l 1xd780
 1137 1886 l 1xcf80
EndSplineSet
Refer: 399 61429 N 1 0 0 1 1319 373 2
Refer: 51 79 N 1 0 0 1 0 0 3
EndChar
StartChar: Odieresis
Encoding: 151 214 303
Width: 1612
Flags: W
HStem: -29 164<613.755 1008.2> 1356 164<613.794 999.874> 1667 203<510 713 901 1104>
VStem: 115 213<462.683 1027.72> 510 203<1667 1870> 901 203<1667 1870> 1284 213<462.463 1027.5>
Back
901 1870 m 1
 1104 1870 l 1
 1104 1667 l 1
 901 1667 l 1
 901 1870 l 1
510 1870 m 1
 713 1870 l 1
 713 1667 l 1
 510 1667 l 1
 510 1870 l 1
EndSplineSet
Refer: 397 63179 N 1 0 0 1 1319 373 2
Refer: 51 79 N 1 0 0 1 0 0 3
EndChar
StartChar: multiply
Encoding: 152 215 304
Width: 1716
Flags: W
HStem: 1201 20G<379.496 419 1297 1336.67>
Fore
1436 1100 m 1
 979 641 l 1
 1436 184 l 1
 1317 63 l 1
 858 522 l 1
 399 63 l 1
 281 184 l 1
 737 641 l 1
 281 1100 l 1
 399 1221 l 1
 858 762 l 1
 1317 1221 l 1
 1436 1100 l 1
EndSplineSet
EndChar
StartChar: Oslash
Encoding: 153 216 305
Width: 1612
Flags: W
HStem: -29 164<607.563 1008.2> 1356 164<613.794 1007.2>
VStem: 115 213<454.066 1027.72> 1284 213<462.463 1034.87>
Fore
807 135 m 0
 1123 135 1284 394 1284 745 c 0
 1284 893 1258 1017 1206 1112 c 1
 489 266 l 1
 577 175 688 135 807 135 c 0
807 1356 m 0
 491 1356 328 1097 328 745 c 0
 328 599 353 469 406 377 c 1
 1124 1225 l 1
 1037 1316 926 1356 807 1356 c 0
807 -29 m 0
 622 -29 478 30 367 121 c 1
 205 -70 l 1
 102 18 l 1
 272 219 l 1
 172 349 115 522 115 745 c 0
 115 1209 375 1520 807 1520 c 0
 995 1520 1138 1460 1245 1368 c 1
 1407 1559 l 1
 1509 1470 l 1
 1339 1272 l 1
 1438 1142 1497 966 1497 745 c 0
 1497 280 1236 -29 807 -29 c 0
EndSplineSet
EndChar
StartChar: Ugrave
Encoding: 154 217 306
Width: 1499
Flags: W
HStem: -29 164<543.078 947.787> 1473 20<178 381 1118 1321> 1635 264<693 889 693 693>
VStem: 178 203<319.87 1493> 1118 203<319.87 1493>
Back
693 1899 m 1
 889 1635 l 1
 736 1635 l 1
 506 1899 l 1
 693 1899 l 1
EndSplineSet
Refer: 400 63182 N 1 0 0 1 1262 373 2
Refer: 57 85 N 1 0 0 1 0 0 3
EndChar
StartChar: Uacute
Encoding: 155 218 307
Width: 1499
Flags: W
HStem: -29 164<543.078 947.787> 1473 20<178 381 1118 1321> 1635 264<762 805 805 805>
VStem: 178 203<319.87 1493> 1118 203<319.87 1493>
Back
805 1899 m 1
 990 1899 l 1
 762 1635 l 1
 609 1635 l 1
 805 1899 l 1
EndSplineSet
Refer: 398 63177 N 1 0 0 1 1262 373 2
Refer: 57 85 N 1 0 0 1 0 0 3
EndChar
StartChar: Ucircumflex
Encoding: 156 219 308
Width: 1499
Flags: W
HStem: -29 164<543.078 947.787> 1473 20<178 381 1118 1321> 1635 266<656 1055 656 656>
VStem: 178 203<319.87 1493> 445 610<1635 1635 1635 1635> 1118 203<319.87 1493>
Back
656 1901 m 1
 844 1901 l 1
 1055 1635 l 1
 916 1635 l 1
 750 1813 l 1
 584 1635 l 1
 445 1635 l 1
 656 1901 l 1
EndSplineSet
Refer: 401 61431 N 1 0 0 1 1262 373 2
Refer: 57 85 N 1 0 0 1 0 0 3
EndChar
StartChar: Udieresis
Encoding: 157 220 309
Width: 1499
Flags: W
HStem: -29 164<543.078 947.787> 1473 20<178 381 1118 1321> 1667 203<453 656 844 1047>
VStem: 178 203<319.87 1493> 453 203<1667 1870> 844 203<1667 1870> 1118 203<319.87 1493>
Back
844 1870 m 1
 1047 1870 l 1
 1047 1667 l 1
 844 1667 l 1
 844 1870 l 1
453 1870 m 1
 656 1870 l 1
 656 1667 l 1
 453 1667 l 1
 453 1870 l 1
EndSplineSet
Refer: 397 63179 N 1 0 0 1 1262 373 2
Refer: 57 85 N 1 0 0 1 0 0 3
EndChar
StartChar: Yacute
Encoding: 158 221 310
Width: 1251
Flags: W
HStem: 0 21<524 727> 1473 20<-4 226.485 1024.61 1255> 1635 264<639 682 682 682>
VStem: 524 203<0 711>
Back
682 1899 m 1xf0
 867 1899 l 1
 639 1635 l 1
 486 1635 l 1
 682 1899 l 1xf0
EndSplineSet
Refer: 398 63177 N 1 0 0 1 1139 373 2
Refer: 61 89 N 1 0 0 1 0 0 3
EndChar
